<svg id="Layer_1" data-name="Layer 1" xmlns="http://www.w3.org/2000/svg" viewBox="0 0 1024 328"><defs><style>.cls-1{fill:#4c4c4c;}.cls-2{fill:#e9963c;}.cls-3{fill:none;}</style></defs><path class="cls-1" d="M596.55,270.42q2.48-19.53,3.8-43.15t1.57-44.7h34.55l-.86,11.7a63.48,63.48,0,0,1,4.91-5,30.33,30.33,0,0,1,5.11-3.61,33.29,33.29,0,0,1,6.5-2.88,48.54,48.54,0,0,1,7.52-1.77,55,55,0,0,1,8.57-.65,54.41,54.41,0,0,1,12.08,1.34,32.25,32.25,0,0,1,9.85,3.78,23.36,23.36,0,0,1,6.63,6.11,20.17,20.17,0,0,1,3.53,7.88,43.53,43.53,0,0,1,.86,8.68q0,3.27-.7,14.12L699,253.38c-.29,6.14-.36,11.69-.74,17-5.79-.12-10.9-.18-15.94-.18-6.82,0-18.1.18-18.1.18s.52-13,1.09-23.28.87-17.54.87-21.72q0-9.72-3.75-13.55A12.62,12.62,0,0,0,653,208a15.62,15.62,0,0,0-9.43,3.27,20.63,20.63,0,0,0-6.84,9.5c-1.61,4.16-2.63,11-3.41,20.52-.94,11.59-2.58,29.09-2.58,29.09s-10.08-.18-15.52-.18Q606.6,270.24,596.55,270.42Z"/><path class="cls-1" d="M751.42,231.53q.47-1.29,3.66-11l4.26-13.09,35.09.16-10.21,25.91-10,25.39-4.28,11.54c-6.12-.12-17.12-.18-21.79-.18q-7.62,0-17.12.18l-8.25-28.23-18.62-59.62q8.88.18,16.51.18,8,0,15-.18,1.32,5.94,5.21,20.78t8.57,35.32l2-7.14"/><path class="cls-1" d="M587.08,190q-4.73-5.07-13.16-7.35a71.12,71.12,0,0,0-18.59-2.29q-17.8,0-42.59,5.42-.94,6.88-1.38,10.11t-2.06,11.75q21.75-8.36,36.55-8.35,5.32,0,8.08,1.77a5.63,5.63,0,0,1,2.75,5,6,6,0,0,1-.43,2.28,6.21,6.21,0,0,1-1.42,2.06,8.67,8.67,0,0,1-2.58,1.72,36.13,36.13,0,0,1-5.33,1.73c-2.5.65-5.23,1.27-8.21,1.85A143,143,0,0,0,521,220.08,49,49,0,0,0,509.89,225a30.41,30.41,0,0,0-7.05,6.33,26.53,26.53,0,0,0-4.43,7.57,23,23,0,0,0-1.42,7.91,26.31,26.31,0,0,0,3.83,13.25,22.15,22.15,0,0,0,10.93,9.59q7.1,3,17.77,3a87.74,87.74,0,0,0,14-1.2,107.28,107.28,0,0,0,11.26-3.22c-.08.79-.17,1.54-.25,2.19q9.13-.18,17.22-.18,8.36,0,16.79.18.68-27.38,2-44.23t1.29-21.68Q591.82,195,587.08,190Zm-37.41,62.09-1.71.51a29.07,29.07,0,0,1-4.16,1,27.07,27.07,0,0,1-3.87.3c-3.39,0-5.85-.69-7.4-2.07a6.45,6.45,0,0,1-2.33-5,7.31,7.31,0,0,1,.82-3.44,9.37,9.37,0,0,1,2.75-3,16.86,16.86,0,0,1,4.54-2.41q2.63-.94,7.26-2.33t6.48-2.06q1.85-.69,5.11-2.23-.51,10.3-1,18.18c-.6.27-1.22.54-2,.81C552.55,250.94,550.06,252,549.67,252.06Z"/><path class="cls-1" d="M889.41,190q-4.74-5.07-13.17-7.35a71.09,71.09,0,0,0-18.58-2.29q-17.82,0-42.6,5.42-.94,6.88-1.37,10.11t-2.07,11.75q21.76-8.36,36.55-8.35c3.55,0,6.25.59,8.08,1.77a5.62,5.62,0,0,1,2.76,5,6.24,6.24,0,0,1-.43,2.28,6.36,6.36,0,0,1-1.42,2.06,8.67,8.67,0,0,1-2.58,1.72,36,36,0,0,1-5.34,1.73q-3.74,1-8.21,1.85a143,143,0,0,0-17.76,4.38,48.89,48.89,0,0,0-11,4.95,30,30,0,0,0-7.05,6.33,26.08,26.08,0,0,0-4.43,7.57,22.73,22.73,0,0,0-1.42,7.91,26.31,26.31,0,0,0,3.83,13.25,22.13,22.13,0,0,0,10.92,9.59q7.11,3,17.77,3a87.64,87.64,0,0,0,14-1.2,106.58,106.58,0,0,0,11.26-3.22c-.08.79-.16,1.54-.24,2.19q9.12-.18,17.21-.18,8.35,0,16.79.18.69-27.38,2-44.23t1.29-21.68Q894.14,195,889.41,190ZM852,252.06l-1.71.51a29.15,29.15,0,0,1-4.17,1,26.86,26.86,0,0,1-3.87.3q-5.07,0-7.4-2.07a6.44,6.44,0,0,1-2.32-5,7.3,7.3,0,0,1,.81-3.44,9.49,9.49,0,0,1,2.75-3,16.92,16.92,0,0,1,4.55-2.41q2.61-.94,7.25-2.33t6.48-2.06c1.23-.46,2.94-1.2,5.11-2.23q-.5,10.3-1,18.18c-.6.27-1.23.54-2,.81C854.88,250.94,852.38,252,852,252.06Z"/><path class="cls-1" d="M498.24,177.92l-30.12-.43c-11.95,0-20.57,4.63-26.35,14.16a40.49,40.49,0,0,0-5.68,18.9A44.36,44.36,0,0,0,439,230.66a24.21,24.21,0,0,0,22.25,14.46c12.85,0,27.53-.47,28-.51l1.87,27.73c-.35,0-15.75.58-29.91.58a51.66,51.66,0,0,1-47.89-31.51,71.91,71.91,0,0,1-5-32.63A68.54,68.54,0,0,1,418,177.22c10.93-18,28.26-27.53,50.11-27.53h.26l30.38.44Z"/><path class="cls-1" d="M903.83,268.29s32.88,6.37,49.89,1.44c10.69-3.1,19.29-11.51,19.29-23,0-7-2.5-12.57-8-17.6-3.44-3.15-10.21-7.85-15.11-11.48-1.39-1-4.2-3.24-5.71-4.5A5.53,5.53,0,0,1,942,209c0-2.46,1.93-4.06,4.15-4.71a33.25,33.25,0,0,1,8.87-1,50,50,0,0,1,9.71,1.11,43.22,43.22,0,0,1,10.3,3.4l-2.45-25.14s-32.89-6.37-49.89-1.44c-10.69,3.1-19.29,11.51-19.29,23,0,7,2.49,12.58,8,17.61,3.44,3.14,10.2,7.85,15.11,11.48,1.39,1,4.2,3.24,5.71,4.49a5.47,5.47,0,0,1,2.32,4c0,2.46-2,4.16-4.26,4.82a33.21,33.21,0,0,1-8.87,1,50.07,50.07,0,0,1-9.71-1.1,44.06,44.06,0,0,1-10.29-3.4Z"/><path class="cls-2" d="M303.85,245.12c-1,4.82-1.92,9.52-2.67,14.11l-1.89,10.5a132.15,132.15,0,0,1-13.3,2.41,86.94,86.94,0,0,1-9.24.51,61.11,61.11,0,0,1-13-1.24,21,21,0,0,1-9.46-4.57,16.88,16.88,0,0,1-5.16-7.61,29.7,29.7,0,0,1-1.38-9.12c0-.57,0-1.59.09-3.05s.25-4.72.6-9.77l1.88-29.77H236.91c.29-4,.54-9.17.77-15.66l.26-8H252.2q.51-3.95,1.28-17.29l31.63-.08s-.42,11.24-.54,17.37h19.62q-.69,17.89-.69,23.66H283.71l-1,21.51c-.11,3.21-.17,5.28-.17,6.19a22.49,22.49,0,0,0,.9,6.89,6.61,6.61,0,0,0,3.19,4,10.64,10.64,0,0,0,5,1.2,32.45,32.45,0,0,0,4.31-.3A73.53,73.53,0,0,0,303.85,245.12Z"/><path class="cls-2" d="M226,190q-4.74-5.07-13.17-7.35a71.09,71.09,0,0,0-18.58-2.29q-17.82,0-42.6,5.42-.94,6.88-1.37,10.11t-2.07,11.75q21.77-8.36,36.55-8.35c3.55,0,6.25.59,8.08,1.77a5.62,5.62,0,0,1,2.76,5,6.24,6.24,0,0,1-.43,2.28,6.36,6.36,0,0,1-1.42,2.06,8.67,8.67,0,0,1-2.58,1.72,36,36,0,0,1-5.34,1.73q-3.73,1-8.21,1.85a143,143,0,0,0-17.76,4.38,48.89,48.89,0,0,0-11,4.95,30,30,0,0,0-7.05,6.33,26.08,26.08,0,0,0-4.43,7.57,22.73,22.73,0,0,0-1.42,7.91,26.31,26.31,0,0,0,3.83,13.25,22.13,22.13,0,0,0,10.92,9.59q7.11,3,17.77,3a87.64,87.64,0,0,0,14-1.2,106.58,106.58,0,0,0,11.26-3.22c-.08.79-.16,1.54-.24,2.19q9.12-.18,17.21-.18,8.36,0,16.79.18.69-27.38,2-44.23t1.29-21.68Q230.75,195,226,190Zm-37.41,62.09-1.71.51a28.83,28.83,0,0,1-4.17,1,26.86,26.86,0,0,1-3.87.3q-5.07,0-7.4-2.07a6.44,6.44,0,0,1-2.32-5,7.3,7.3,0,0,1,.81-3.44,9.49,9.49,0,0,1,2.75-3,16.92,16.92,0,0,1,4.55-2.41q2.61-.94,7.25-2.33t6.48-2.06c1.23-.46,2.94-1.2,5.11-2.23q-.5,10.3-1,18.18c-.59.27-1.22.54-2,.81C191.49,250.94,189,252,188.61,252.06Z"/><path class="cls-2" d="M397.24,190q-4.74-5.07-13.17-7.35a71.12,71.12,0,0,0-18.59-2.29q-17.81,0-42.59,5.42-.94,6.88-1.37,10.11t-2.07,11.75q21.76-8.36,36.55-8.35c3.55,0,6.25.59,8.08,1.77a5.62,5.62,0,0,1,2.76,5A5.78,5.78,0,0,1,365,210.4a8.48,8.48,0,0,1-2.57,1.72,36.36,36.36,0,0,1-5.34,1.73q-3.74,1-8.21,1.85a143,143,0,0,0-17.76,4.38A48.89,48.89,0,0,0,320.05,225a30,30,0,0,0-7.05,6.33,26.08,26.08,0,0,0-4.43,7.57,22.73,22.73,0,0,0-1.42,7.91A26.21,26.21,0,0,0,311,260.09a22.13,22.13,0,0,0,10.92,9.59q7.11,3,17.77,3a87.64,87.64,0,0,0,14-1.2A106.58,106.58,0,0,0,365,268.23c-.08.79-.16,1.54-.24,2.19q9.12-.18,17.21-.18,8.35,0,16.79.18.69-27.38,2-44.23T402,204.51Q402,195,397.24,190Zm-37.41,62.09-1.71.51a29.15,29.15,0,0,1-4.17,1,26.86,26.86,0,0,1-3.87.3q-5.07,0-7.4-2.07a6.44,6.44,0,0,1-2.32-5,7.3,7.3,0,0,1,.81-3.44,9.49,9.49,0,0,1,2.75-3,16.92,16.92,0,0,1,4.55-2.41q2.61-.94,7.25-2.33t6.48-2.06q1.85-.69,5.11-2.23-.49,10.3-1,18.18c-.59.27-1.22.54-2,.81C362.71,250.94,360.21,252,359.83,252.06Z"/><path class="cls-2" d="M81,177.67c10,0,18.79,5.91,22.28,14.24,1.44,3.42,3.37,10.12,2.73,20.14-.66,9-5.08,19.18-9.58,24S83.68,245,74.18,245l-17.08-.43L60,178.18s7.65-.51,21-.51m0-28c-14.16,0-22.56.56-22.91.58l-25,1.69-1.09,25-2.9,66.34-1.24,28.47,28.49.71,17.08.43h.7c22.64,0,41.93-10.09,51.62-29.43,2-3.71,7.13-13.59,8.16-29.66,1-16.56-2.92-28.14-4.85-32.74-8.2-19.56-27.41-31.4-48.08-31.4Z"/><polygon class="cls-3" points="827.57 142.87 827.57 142.87 825.21 149.98 827.57 142.87"/><polygon class="cls-2" points="777.73 174.9 779.26 170.3 780.05 167.9 772.01 167.9 762.55 196.43 798.08 196.43 805.23 174.9 782.58 174.9 777.73 174.9"/><polygon class="cls-2" points="792.04 142.87 788.25 154.3 783.74 167.9 782.58 171.4 806.38 171.4 818.11 171.4 825.21 149.98 827.57 142.87 792.04 142.87"/><path class="cls-1" d="M880.07,102.42l3,10c0,.49-.39.7-1.17.7h-31l10.74-20.9h37.69v-9H833.72v9h13.22L836.26,112.6a6,6,0,0,0-.79,2.93v0a6.67,6.67,0,0,0,6.88,6.39h49.52c3.79,0,5.69-1.41,5.69-4.26l-4.07-15.28Z"/><rect class="cls-1" x="838.6" y="66.46" width="55.89" height="8.79"/><path class="cls-1" d="M914.42,121.18h11.14V84a5.44,5.44,0,0,1,5.62-5.58h2.39v-8.6h-8V64.9H914.81v4.88h-9.57v8.6h9.18Z"/><path class="cls-1" d="M971.51,114.53a3.08,3.08,0,0,1-2.44-1.81l-5.41-6.78,6.55-12.68a8.71,8.71,0,0,0,.89-4.09c0-2.71-2.8-4.94-6-4.94l4.46-8a10.13,10.13,0,0,0,1.32-4.94v-.37c0-2.76-2.66-5-5.89-5H935.33v6.65h3.95l-6.2,41c-.3,1.3-.69,2-1.18,2h-3.6V122H938c2.12,0,3.59-1.84,4.43-5.75l3.85-18.65,6.57,9.09-3.1,7.17a3.31,3.31,0,0,1-3,1.69h-3.14V122h7.72a5.53,5.53,0,0,0,5.1-2.47l2.19-4.52,3.42,4.29a4.59,4.59,0,0,0,3.7,2.31H975v-7ZM956.9,97.72l-2.76-4.49h-7.46L951,72.52h7.38l-6.06,11.61c-1,3.35,2,6.56,6,6.56h1.5Z"/><path class="cls-1" d="M912.08,106.38V87.26a6.72,6.72,0,0,0-6.84-6.76v32.64A6.72,6.72,0,0,0,912.08,106.38Z"/><path class="cls-1" d="M926.54,91.55v4.39a6.47,6.47,0,0,0,6.45,6.42V85.13A6.46,6.46,0,0,0,926.54,91.55Z"/><path class="cls-1" d="M695.28,114h-4.61v7.81h10.15c2.76,0,4.9-.62,6.4-2a8.43,8.43,0,0,0,2.72-6.34l2.76-34.24h19.4v35.75c0,4.67,1.65,6.85,6.57,6.85h17.08V114h-9c-1.16,0-2.36-.59-2.36-1.78V78.64c0-3.46-2.7-7.29-6.81-7.29H713.45l.57-7.82H701.47l-.56,7.82H689.5v7.81h10.65l-2.76,30.65C697.39,112.31,696.69,114,695.28,114Z"/><path class="cls-1" d="M790.14,121.76h11.14v-2.27a2.12,2.12,0,0,1,2.17-2.22h24.4v-6.84H801.28v-1.56h17.14c4.8,0,6.7-2,6.7-5V87.17H770.68c-3,0-5.75,2.6-5.75,5.19v16.51h22.39c1.2,0,2.55.53,2.78,1.56H761.61v6.84h28.53ZM779.2,93.41a1.64,1.64,0,0,1,1.6-1.55h31.42V94.6h-33Zm0,9V99.88h33v1.21c0,1-1.25,1.33-2.77,1.33Z"/><path class="cls-1" d="M827.85,78h-9.23l1.54-3.71h5V67.63H802.45V64.7H789v2.93h-24v6.65h5.26L771.44,78h-7.68v7.23h64.09Zm-20-3c-.85,2.23-3.09,3-5.61,3H788.67c-2.65,0-5,0-5.72-3.71h25Z"/></svg>