<svg xmlns="http://www.w3.org/2000/svg" viewBox="0 0 208.81 51.84"><defs><style>.cls-1,.cls-3{fill:#006ab4;}.cls-1,.cls-2{fill-rule:evenodd;}.cls-2,.cls-4{fill:#ef8200;}</style></defs><g id="图层_2" data-name="图层 2"><g id="图层_1-2" data-name="图层 1"><path class="cls-1" d="M204.86,30.36V42.9c0,3.11-1.42,4.87-3.81,4.87a3.74,3.74,0,0,1,0-7.48,4.19,4.19,0,0,1,2.83,1.16V37.37a5.91,5.91,0,0,0-3.3-1A7.55,7.55,0,0,0,193.29,44a7.7,7.7,0,0,0,7.83,7.76c4.49,0,7.69-3.39,7.69-8.14V30.36Z"/><path class="cls-1" d="M186,44.17c0,2.41-.88,3.6-2.64,3.6s-2.61-1.19-2.61-3.41V36.8h-4v8.12c0,4.23,2.49,6.81,6.64,6.81S190,49.15,190,45V36.8h-4Z"/><path class="cls-2" d="M162.07,43.29a3.62,3.62,0,0,1,7.13,0h4.19a7.8,7.8,0,0,0-15.51,0Z"/><path class="cls-1" d="M165.67,47.77a3.68,3.68,0,0,1-3.6-3h-4.18a7.8,7.8,0,0,0,15.51,0h-4.18A3.67,3.67,0,0,1,165.67,47.77Z"/><rect class="cls-3" x="150.05" y="30.36" width="3.96" height="20.96"/><path class="cls-1" d="M144.34,47.3a7.69,7.69,0,0,1-4-.82,6.19,6.19,0,0,1-3.23-5.56c0-3.83,2.86-6.41,7.19-6.41h1.58V30.36H143a10.34,10.34,0,0,0-10.56,10.5,10.6,10.6,0,0,0,1.88,6.06,11.57,11.57,0,0,0,2.46,2.48,9.8,9.8,0,0,0,6.31,1.92h2.74v-4Z"/><path class="cls-1" d="M125.83,45.51a7.3,7.3,0,0,1,.47-3.14,3.69,3.69,0,0,1,3.39-2.17,5.36,5.36,0,0,1,.63,0V36.52h-.19A4.39,4.39,0,0,0,125.7,39V36.77h-3.83V51.32h4Z"/><path class="cls-1" d="M110.84,48.24c-2.2,0-3.9-1.91-3.9-4.46,0-2.39,1.54-4.18,3.56-4.18A3,3,0,0,1,113,40.73l-4.87,3.18,1.44,2.51,8.14-5.06a11.62,11.62,0,0,0-.94-1.73,7.19,7.19,0,0,0-6.19-3.27,7.69,7.69,0,1,0,0,15.37,8.19,8.19,0,0,0,7.54-5l-2.55-2A5,5,0,0,1,110.84,48.24Z"/><path class="cls-1" d="M99.4,42.46c0-3.71-2.2-5.94-5.81-5.94a5.07,5.07,0,0,0-4.49,2.17,5.3,5.3,0,0,0-4.59-2.17,6.26,6.26,0,0,0-3.9,1.23c-1.47,1.1-2,2.42-2,4.9v8.67h4V43.25c0-1.89.75-2.8,2.23-2.8s2.26.91,2.26,2.67v8.2h4v-8c0-2,.66-2.92,2.2-2.92s2.2.88,2.2,2.54v8.33h4Z"/><path class="cls-1" d="M74.39,42.46c0-3.71-2.2-5.94-5.81-5.94a5.1,5.1,0,0,0-4.5,2.17,5.27,5.27,0,0,0-4.58-2.17,6.26,6.26,0,0,0-3.9,1.23c-1.48,1.1-2,2.42-2,4.9v8.67h4V43.25c0-1.89.75-2.8,2.23-2.8S62,41.36,62,43.12v8.2h4v-8c0-2,.66-2.92,2.2-2.92s2.2.88,2.2,2.54v8.33h4Z"/><path class="cls-1" d="M45.48,44.17c0,2.41-.88,3.6-2.64,3.6s-2.61-1.19-2.61-3.41V36.8H36.28v8.12c0,4.23,2.48,6.81,6.63,6.81s6.56-2.58,6.56-6.71V36.8h-4Z"/><polygon class="cls-1" points="27.26 38.56 23.99 38.56 20.72 38.56 20.72 30.36 16.29 30.36 16.29 51.32 20.72 51.32 20.72 42.34 27.26 42.34 27.26 51.32 31.69 51.32 31.69 38.56 27.26 38.56"/><rect class="cls-4" x="27.26" y="30.36" width="4.43" height="4.67"/><path class="cls-1" d="M130.8,27.4c.36-.2.46-.61.46-1.17V25.06l.33.63c.41-.4.88-.91,1.34-1.33v1.8c0,.15-.06.23-.23.23h-1l.07,1.24a4.18,4.18,0,0,0,1.87-.24c.37-.2.5-.59.5-1.19V19h-.26a4.56,4.56,0,0,1,.93-1,7.41,7.41,0,0,1-2.57-2.81l.15-.43-1.29-.39A7,7,0,0,1,128.39,18l.1.08h-1.14v-.85h1.37V15.89h-1.37V14.73H126v1.16h-1.36v.67A10.76,10.76,0,0,0,123,14.8l-1.06.76a10.62,10.62,0,0,1,1.62,2l1.05-.78v.5H126v.85h-1.24V23H126v1h-1.62v1.41H126v2.07h1.35V25.35h1.46v-.24l.37.67c.31-.3.6-.72.94-1v1.47c0,.18,0,.24-.2.24s-.51,0-.81,0l.06,1.2a3.14,3.14,0,0,0,1.65-.23Zm.46-8.45H129.8a8.75,8.75,0,0,0,1.79-2.29A8.79,8.79,0,0,0,133.5,19h-1.94v1.29h1.37v1.83c-.19-.42-.46-1-.67-1.33l-.82.28a14.22,14.22,0,0,1,.78,1.8l.71-.27v.34c-.56.52-1.21,1.1-1.67,1.45V19Zm-2.47,5h-1.46V23h1.27V18.21a5.93,5.93,0,0,1,.62.74H129v1.29h1.12v1.83a9.83,9.83,0,0,0-.53-1.3l-.81.33a14.26,14.26,0,0,1,.83,1.94l.51-.29v.49c-.53.43-.93.92-1.31,1.22v-.52Zm-4.38-3.62-1.1.95-1-1.12-.11-.11c-.24-.29-.52-.57-.73-.81l1.08-.82c.58.57,1.42,1.44,1.82,1.91ZM126,20v-.7h1.3V20Zm0,1.81v-.73h1.3v.73Zm-1.58.88c-.1.56-.25,1.17-.39,1.8l0,.15,0,.14a.56.56,0,0,1,0,.07l0,.14c-.22.9-.44,1.79-.66,2.49l-1.44-.69c.21-.61.49-1.53.76-2.5l0-.15,0-.15,0-.15s0-.05,0-.08l0-.15a.2.2,0,0,0,0-.07l0-.16c.13-.47.23-.94.33-1.39l1.29.7Zm31.12,5a2,2,0,0,0,1.4-.63c.53-.54.93-2.38,1.24-5.82,0-.22.06-.72.06-.72h-2.47c0-.34.07-.68.11-1l0-.14c0-.23.06-.44.07-.66v-.15c0-.1,0-.2.05-.3v-.15c0-.07,0-.14,0-.21v-.16a.56.56,0,0,0,0-.07l0-.14c.07-.83.14-1.63.18-2.31l-1.21-.12-.3.07h-7.68v1.62h7.41c0,.51-.1,1.14-.17,1.77l0,.15a.17.17,0,0,1,0,.07V19c-.06.54-.12,1.08-.19,1.55h-4.43c.1-.91.22-2.08.29-3l-1.67-.11c0,.47-.09,1-.13,1.58v.16c0,.16,0,.3-.06.46v.15c-.09.87-.19,1.72-.29,2.3h8.59c-.25,2.26-.52,3.64-.88,3.94a.94.94,0,0,1-.64.19c-.36,0-1.12,0-1.72-.09l0,1.57a15.14,15.14,0,0,0,2.37,0Zm-.44-4.27V25h-9v-1.6Zm26,.66,1.71-.32-.27-1.57-1.44.26v-8h-1.64v8.29l-4.38.8.26,1.61,4.12-.76V27.7h1.64V24.08Zm-7.52-2.2v5.84H172V22.54a15.86,15.86,0,0,1-1.38,2.6L169.47,24a14,14,0,0,0,2.28-4.05h-1.92V18.36H172v-1.6c-.53.07-1.11.17-1.61.22a5.69,5.69,0,0,0-.46-1.29c.49-.08,1-.18,1.52-.28l.15,0a18.45,18.45,0,0,0,2.9-.83l.81,1.36a9.74,9.74,0,0,1-1.68.51v1.95h1.73v1.55h-1.73V20c.38.38,1.56,1.78,1.81,2.08l-1,1.33a13.78,13.78,0,0,0-.83-1.56Zm5.52-4.6-1.15,1c-.45-.51-1.32-1.44-2-2.1l1.1-1c.26.24.56.51.84.8l.12.11c.41.42.81.81,1.08,1.11ZM178.75,21l-1,1.07c-.27-.29-.69-.7-1.14-1.15l-.1-.1s0,0-.06-.05l-.11-.1-.82-.77,1.07-.95c.63.55,1.49,1.36,2,1.89l.07.08.09.08Zm28,5.21a10.07,10.07,0,0,1-3.06-1.42,11,11,0,0,0,2.67-4.74l-1.07-.45-.31.07h-1.7V18h3.17V16.41h-3.17v-2h-1.57v2h-3V18h3v1.71H199v1.51h.73l-.43.13a12.56,12.56,0,0,0,2,3.41,11.38,11.38,0,0,1-3.17,1.4l.56,1.63a14.57,14.57,0,0,0,3.84-1.84,10.64,10.64,0,0,0,3.64,1.89l.6-1.59Zm-10.11,1.12a5.31,5.31,0,0,1-2.33.3l-.1-1.51h1.12c.18,0,.28-.1.28-.3v-3l-1.4.36-.42-1.6c.48-.11,1.19-.27,1.82-.43V18.63H194V17.08h1.64V14.43h1.67v2.65h1.39v1.55h-1.39v2.12l1.3-.33.2,1.53-.67.2-.21.06a5.83,5.83,0,0,1-.62.17v3.44c0,.79-.18,1.26-.64,1.51Zm4.27-6.15h3.32a8.4,8.4,0,0,1-1.78,2.56A8.33,8.33,0,0,1,200.91,21.18Z"/><path class="cls-1" d="M9.28,51.84S-1.57,32.55,16.52,22.9a38.72,38.72,0,0,1,18.07,0s6-13.25,22.92-14.46c0,0,14.46-1.2,24.11,14.46,0,0,19.29-4.82,25.31,8.45h7.24s-6-21.7-30.14-15.67C84,15.68,75.59,0,56.29,0,56.29,0,37,1.21,31,15.68-5.14,11.26-5.77,48.07,9.28,51.84Z"/></g></g></svg>