<?xml version="1.0" encoding="utf-8"?>
<!-- Generator: Adobe Illustrator 26.5.0, SVG Export Plug-In . SVG Version: 6.00 Build 0)  -->
<svg version="1.1" id="图层_1" xmlns="http://www.w3.org/2000/svg" xmlns:xlink="http://www.w3.org/1999/xlink" x="0px" y="0px"
	 viewBox="0 0 119 30" style="enable-background:new 0 0 119 30;" xml:space="preserve">
<style type="text/css">
	.st0{fill:#FEFEFE;}
	.st1{fill:#2CD9E5;}
	.st2{fill:#27A8E0;}
	.st3{fill:#27ABE0;}
	.st4{fill:#28AEE1;}
	.st5{fill:#28B1E1;}
	.st6{fill:#28B4E1;}
	.st7{fill:#95ECF2;}
	.st8{fill:#C7D9F5;}
	.st9{fill:#61E2EB;}
	.st10{fill:#58C2E8;}
	.st11{fill:#5ABFE7;}
	.st12{fill:#C9F5F8;}
	.st13{fill:#2CD3E5;}
	.st14{fill:#2BCCE4;}
	.st15{fill:#2BC9E4;}
	.st16{fill:#2AC6E3;}
	.st17{fill:#2CD6E5;}
	.st18{fill:#2BCFE4;}
	.st19{fill:#2AC3E3;}
	.st20{fill:#2BCAE4;}
	.st21{fill:#2EE7E7;}
	.st22{fill:#2CD7E5;}
	.st23{fill:#2AC2E3;}
	.st24{fill:#2AC1E3;}
	.st25{fill:#2AC5E3;}
	.st26{fill:#248DDD;}
	.st27{fill:#29BCE2;}
	.st28{fill:#26A0DF;}
	.st29{fill:#2594DE;}
	.st30{fill:#28B2E1;}
	.st31{fill:#2CD5E5;}
	.st32{fill:#29B9E2;}
	.st33{fill:#2CDAE6;}
	.st34{fill:#2DE1E6;}
	.st35{fill:#2599DE;}
	.st36{fill:#2DDBE6;}
	.st37{fill:#2AC0E3;}
	.st38{fill:#269CDF;}
	.st39{fill:#29BDE2;}
	.st40{fill:#29B7E2;}
	.st41{fill:#2CD2E5;}
	.st42{fill:#29BAE2;}
	.st43{fill:#2DDCE6;}
	.st44{fill:#2380DC;}
	.st45{fill:#2278DB;}
	.st46{fill:#2175DA;}
	.st47{fill:#227BDB;}
	.st48{fill:#227EDB;}
	.st49{fill:#2170DA;}
	.st50{fill:#216DDA;}
	.st51{fill:#206BD9;}
	.st52{fill:#2384DC;}
	.st53{fill:#2387DC;}
	.st54{fill:#2382DC;}
	.st55{fill:#2489DD;}
	.st56{fill:#248ADD;}
	.st57{fill:#2385DC;}
	.st58{fill:#2593DE;}
	.st59{fill:#2490DD;}
	.st60{fill:#227FDC;}
	.st61{fill:#2596DE;}
	.st62{fill:#2597DE;}
	.st63{fill:#2174DA;}
	.st64{fill:#269FDF;}
	.st65{fill:#29B8E2;}
	.st66{fill:#248CDD;}
	.st67{fill:#26A2DF;}
	.st68{fill:#27A5E0;}
	.st69{fill:#2CD4E5;}
	.st70{fill:#2171DA;}
	.st71{fill:#26A1DF;}
	.st72{fill:#28B3E1;}
	.st73{fill:#269EDF;}
	.st74{fill:#2AC7E4;}
	.st75{fill:#2BCEE4;}
	.st76{fill:#259ADF;}
	.st77{fill:#27ACE0;}
	.st78{fill:#28AFE1;}
	.st79{fill:#2BCBE4;}
	.st80{fill:#2069D9;}
	.st81{fill:#216FDA;}
	.st82{fill:#27A6E0;}
	.st83{fill:#269DDF;}
	.st84{fill:#2598DE;}
	.st85{fill:#248FDD;}
	.st86{fill:#248BDD;}
	.st87{fill:#2173DA;}
	.st88{fill:#2279DB;}
	.st89{fill:#2386DC;}
	.st90{fill:#227DDB;}
	.st91{fill:#2381DC;}
	.st92{fill:#227CDB;}
	.st93{fill:#248EDD;}
	.st94{fill:#29BFE3;}
	.st95{fill:#2AC7E3;}
	.st96{fill:#2DE0E6;}
	.st97{fill:#40AFE4;}
	.st98{fill:#40B3E4;}
	.st99{fill:#2488DD;}
	.st100{fill:#2388DD;}
	.st101{fill-rule:evenodd;clip-rule:evenodd;fill:#121212;}
	.st102{filter:url(#Adobe_OpacityMaskFilter);}
	.st103{fill-rule:evenodd;clip-rule:evenodd;fill:#FFFFFF;}
	.st104{mask:url(#mask-4_00000087396710634310018160000014647580056436163222_);fill-rule:evenodd;clip-rule:evenodd;fill:#121212;}
	.st105{filter:url(#Adobe_OpacityMaskFilter_00000027588724784529105930000001849300768476872091_);}
	.st106{mask:url(#mask-4_00000057831238362913289830000005746483519535640481_);fill-rule:evenodd;clip-rule:evenodd;fill:#121212;}
	.st107{filter:url(#Adobe_OpacityMaskFilter_00000057133793867693717370000001380196922893385369_);}
	.st108{mask:url(#mask-4_00000162344971943637301700000002773400567389486260_);fill-rule:evenodd;clip-rule:evenodd;fill:#121212;}
	.st109{filter:url(#Adobe_OpacityMaskFilter_00000049204358597486408550000005257082721937730191_);}
	.st110{mask:url(#mask-4_00000021805050808970718410000004599371740043241117_);fill-rule:evenodd;clip-rule:evenodd;fill:#121212;}
	.st111{fill:#121212;}
</style>
<path class="st0" d="M42.5,21.9c0,2.7,0,5.3,0,8c0,0.1,0,0.1-0.1,0.1c-2.5,0-5,0-7.5,0c0-0.1,0.2-0.1,0.2-0.1c0.4,0,0.7-0.1,1.1-0.2
	c0.3-0.1,0.6-0.2,0.9-0.3c0.1,0,0.2-0.1,0.3-0.1c0.3-0.1,0.5-0.2,0.7-0.4c0.1-0.1,0.3-0.2,0.4-0.2c0,0,0,0,0.1,0
	c0.1-0.1,0.2-0.1,0.3-0.2c0.1-0.1,0.2-0.2,0.3-0.3c0.3-0.2,0.6-0.4,0.8-0.7c0.1-0.1,0.2-0.2,0.3-0.3c0.1-0.1,0.2-0.2,0.3-0.3
	c0.1-0.1,0.2-0.2,0.3-0.3c0.1-0.1,0.2-0.2,0.2-0.3c0.1-0.1,0.2-0.3,0.3-0.4c0.1-0.2,0.2-0.3,0.3-0.5c0.1-0.2,0.2-0.3,0.3-0.6
	c0.1-0.2,0.2-0.4,0.3-0.7c0.2-0.5,0.3-1.1,0.4-1.6C42.4,22.3,42.4,22.1,42.5,21.9C42.5,21.8,42.5,21.8,42.5,21.9z"/>
<path class="st1" d="M35.1,29.9c-0.1,0.1-0.2,0-0.2,0.1c-0.4,0-0.8,0-1.1,0c-0.2,0-0.4,0-0.5,0c-7.3,0-14.6,0-22,0
	c-0.1,0-0.1,0-0.2,0c-0.8,0-1.6-0.1-2.4-0.2c-0.3-0.1-0.7-0.1-1-0.3c0.1-0.1,0.1-0.1,0.2-0.1c0.2,0,0.3,0,0.5,0c0.4,0.1,0.9,0,1.3,0
	c0.9,0,1.8,0,2.7,0c0.7,0,1.3,0,2,0c0.7,0,1.4,0,2.1,0c0.7,0,1.3,0,2,0c0.7,0,1.4,0,2.1,0c0.7,0,1.3,0,2,0c0.7,0,1.4,0,2.1,0
	c0.7,0,1.3,0,2,0c0.7,0,1.4,0,2.1,0c0.7,0,1.3,0,2,0c0.7,0,1.4,0,2.1,0c0.6,0,1.3,0,1.9,0C34.8,29.8,35,29.8,35.1,29.9z"/>
<path class="st2" d="M22.9,0c0.1,0.1,0.3,0,0.4,0.1c0.1,0,0.1,0,0.2,0c-0.1,0.1-0.1,0.2-0.1,0.3c0,0.9,0,1.9,0,2.8
	c0,0.1,0,0.2,0,0.3c0,0.1-0.1,0-0.2,0c-0.1,0-0.2-0.1-0.3-0.1c-0.1,0-0.1,0-0.1-0.1c0-0.1,0-0.2,0-0.3c0-0.9,0-1.8,0-2.7
	C22.8,0.2,22.8,0.1,22.9,0C22.9,0,22.9,0,22.9,0z"/>
<path class="st3" d="M22.9,0c0,1,0,2.1,0,3.1c0,0.1,0,0.1-0.1,0.2c-0.1,0.1-0.2,0-0.4,0c-0.1,0-0.2,0-0.2-0.1c0-0.1,0-0.2,0-0.3
	c0-0.8,0-1.7,0-2.5c0-0.1,0-0.2,0.1-0.3c0,0,0.1,0,0.1,0c0.1,0,0.1,0,0.2,0C22.8,0,22.8,0,22.9,0z"/>
<path class="st4" d="M22.4,0c0,1,0,1.9,0,2.9c0,0.1,0,0.2-0.1,0.2c-0.1,0.1-0.2,0-0.3,0c-0.1,0-0.2,0-0.2-0.1c0-0.1,0-0.2,0-0.3
	c0-0.8,0-1.6,0-2.4c0-0.1,0-0.2,0.1-0.3C22,0,22.2,0,22.4,0z"/>
<path class="st5" d="M21.9,0c0,1,0,1.9,0,2.9c0,0.1,0,0.1-0.1,0.2c-0.2,0.1-0.4,0-0.5-0.1c0-0.1,0-0.1,0-0.2c0-0.9,0-1.7,0-2.6
	c0-0.1,0-0.2,0.1-0.2c0,0,0,0,0.1,0c0.1,0,0.2,0,0.2,0C21.7,0,21.8,0,21.9,0z"/>
<path class="st6" d="M21.3,0c0,1,0,2,0,3c0,0-0.1,0-0.1,0c-0.1,0-0.3,0-0.4-0.1c0-0.1,0-0.1,0-0.2c0-0.8,0-1.6,0-2.4
	c0-0.1,0-0.2,0.1-0.2c0.1,0,0.2,0,0.4-0.1C21.2,0,21.3,0,21.3,0z"/>
<path class="st7" d="M11.2,30c0,0,0.1,0,0.1,0c7.3,0,14.5,0,21.8,0c0,0,0.1,0,0.1,0c0,0,0,0,0,0c0,0,0,0,0,0
	C25.9,30,18.5,30,11.2,30C11.2,30,11.2,30,11.2,30C11.2,30,11.2,30,11.2,30z"/>
<path class="st8" d="M42.5,21.9C42.5,21.9,42.5,21.9,42.5,21.9c-0.1-0.2-0.1-0.5,0-0.7c0,0,0,0,0,0C42.5,21.4,42.5,21.6,42.5,21.9z"
	/>
<path class="st9" d="M33.2,30C33.2,30,33.2,30,33.2,30c0.2,0,0.3-0.1,0.5,0C33.5,30,33.4,30,33.2,30z"/>
<path class="st10" d="M21.6,0c-0.1,0.1-0.2,0.1-0.2,0C21.5,0,21.6,0,21.6,0z"/>
<path class="st11" d="M22.7,0c-0.1,0.1-0.1,0-0.2,0C22.6,0,22.6,0,22.7,0z"/>
<path class="st12" d="M11.2,30C11.2,30,11.2,30,11.2,30c-0.1,0-0.1,0-0.2,0c0,0,0,0,0,0C11.1,30,11.1,30,11.2,30z"/>
<path class="st13" d="M38.1,28.9c-0.2,0.2-0.5,0.3-0.7,0.4c-0.2,0-0.4,0-0.6,0c-1.2,0-2.4,0-3.5,0c-0.7,0-1.3,0-2,0
	c-0.7,0-1.4,0-2.1,0c-0.7,0-1.3,0-2,0c-0.7,0-1.4,0-2.1,0c-0.7,0-1.3,0-2,0c-0.7,0-1.4,0-2.1,0c-0.7,0-1.3,0-2,0c-0.7,0-1.4,0-2.1,0
	c-0.6,0-1.3,0-1.9,0c-0.7,0-1.4,0-2.1,0c-0.6,0-1.3,0-1.9,0c-0.7,0-1.4,0-2.1,0c-0.7,0-1.3,0-2,0c-0.3,0-0.6,0-0.9,0
	c-0.2-0.1-0.5-0.2-0.7-0.4c0.1-0.1,0.2-0.1,0.3-0.1c0.2,0,0.3,0,0.5,0c1.1,0,2.2,0,3.4,0c0.7,0,1.3,0,2,0c0.7,0,1.4,0,2.1,0
	c0.7,0,1.3,0,2,0c0.7,0,1.4,0,2.1,0c0.7,0,1.3,0,2,0c0.7,0,1.4,0,2,0c0.7,0,1.3,0,2,0c0.7,0,1.4,0,2,0c0.7,0,1.3,0,2,0
	c0.7,0,1.4,0,2,0c0.7,0,1.4,0,2,0c0.7,0,1.4,0,2,0c0.7,0,1.4,0,2,0c0.6,0,1.2,0,1.8,0C37.9,28.9,38,28.8,38.1,28.9z"/>
<path class="st14" d="M39.1,28.2c-0.1,0.1-0.2,0.2-0.3,0.3c-0.1,0-0.2,0-0.3,0c-0.6-0.1-1.2,0-1.9,0c-0.7,0-1.5,0-2.2,0
	c-0.6,0-1.2,0-1.8,0c-0.8,0-1.5,0-2.3,0c-0.6,0-1.3,0-1.9,0c-0.7,0-1.4,0-2.1,0c-0.7,0-1.3,0-2,0c-0.7,0-1.4,0-2.1,0
	c-0.7,0-1.3,0-2,0c-0.7,0-1.4,0-2.1,0c-0.6,0-1.3,0-1.9,0c-0.7,0-1.4,0-2.1,0c-0.7,0-1.3,0-2,0c-0.7,0-1.4,0-2.1,0c-0.7,0-1.3,0-2,0
	c-0.7,0-1.4,0-2.1,0c-0.4,0-0.8,0-1.3,0c0,0-0.1,0-0.1,0c-0.2-0.1-0.3-0.2-0.4-0.3c0.1-0.1,0.2-0.1,0.3-0.1c0.9,0.1,1.7,0,2.6,0.1
	c0.1,0,0.2,0,0.2,0c1.2,0,2.4,0,3.6,0c0.7,0,1.3,0,2,0c0.7,0,1.4,0,2.1,0c0.7,0,1.3,0,2,0c0.7,0,1.4,0,2.1,0c0.7,0,1.3,0,2,0
	c0.7,0,1.4,0,2.1,0c0.7,0,1.3,0,2,0c0.7,0,1.4,0,2.1,0c0.7,0,1.3,0,2,0c0.7,0,1.4,0,2.1,0c0.7,0,1.3,0,2,0c0.7,0,1.4,0,2.1,0
	c0.7,0,1.3,0,2,0c0.6,0,1.2,0,1.7,0c0.1,0,0.2,0,0.2,0C39.2,28.2,39.2,28.2,39.1,28.2z"/>
<path class="st15" d="M3.9,27.4c-0.1-0.1-0.3-0.2-0.4-0.4C3.6,27,3.7,27,3.7,27c0.6,0.1,1.2,0,1.8,0c0.8,0,1.5,0,2.3,0
	c0.6,0,1.2,0,1.8,0c0.8,0,1.5,0,2.3,0c0.6,0,1.3,0,1.9,0c0.7,0,1.4,0,2.2,0c0.6,0,1.3,0,1.9,0c0.7,0,1.4,0,2.1,0c0.7,0,1.3,0,2,0
	c0.7,0,1.4,0,2.1,0c0.7,0,1.3,0,2,0c0.7,0,1.4,0,2.1,0c0.7,0,1.3,0,2,0c0.7,0,1.4,0,2.1,0c0.7,0,1.3,0,2,0c0.7,0,1.4,0,2.1,0
	c0.7,0,1.3,0,2,0c0.4,0,0.8,0,1.2,0.1c0.1,0.1,0,0.3-0.1,0.4c-0.2,0-0.4,0-0.7,0c-0.2,0-0.5,0-0.7,0c-1.1,0-2.2,0-3.3,0
	c-0.7,0-1.3,0-2,0c-0.7,0-1.4,0-2,0c-0.7,0-1.4,0-2,0c-0.7,0-1.4,0-2,0c-0.7,0-1.4,0-2,0c-0.7,0-1.4,0-2,0c-0.7,0-1.4,0-2,0
	c-0.7,0-1.4,0-2,0c-0.7,0-1.3,0-2,0c-0.7,0-1.4,0-2,0c-0.7,0-1.3,0-2,0c-0.7,0-1.4,0-2,0c-0.7,0-1.4,0-2,0c-0.7,0-1.3,0-2,0
	C5.4,27.4,4.7,27.5,3.9,27.4z"/>
<path class="st16" d="M39.4,27.6c-0.9,0-1.9,0-2.8,0c-0.7,0-1.4,0-2,0c-0.7,0-1.4,0-2,0c-0.7,0-1.4,0-2,0c-0.7,0-1.3,0-2,0
	c-0.7,0-1.4,0-2.1,0c-0.7,0-1.3,0-2,0c-0.7,0-1.4,0-2.1,0c-0.7,0-1.3,0-1.9,0c-0.7,0-1.4,0-2.1,0c-0.5,0-1.1,0-1.6,0
	c-0.8,0-1.6,0-2.4,0c-0.7,0-1.3,0-2,0c-0.7,0-1.4,0-2.1,0c-0.6,0-1.2,0-1.8,0c-0.8,0-1.5,0-2.3,0c-0.7,0-1.3,0-2,0
	c-0.2,0-0.3,0-0.5,0c-0.1,0-0.1-0.1-0.2-0.2c0,0,0,0,0,0c0.1-0.1,0.2-0.1,0.2-0.1c0.8,0,1.6,0,2.4,0c0.5,0,0.9,0,1.4,0
	c0.9,0,1.8,0,2.7,0c0.6,0,1.3,0,1.9,0c0.7,0,1.4,0,2.1,0c0.7,0,1.3,0,2,0c0.4,0,0.7,0,1.1,0c0.1,0,0.2,0,0.2,0c0.6,0,1.2,0,1.8,0
	c0.4,0,0.8,0,1.1,0c0.9,0,1.8,0,2.7,0c0.6,0,1.3,0,1.9,0c0.7,0,1.4,0,2.1,0c0.7,0,1.3,0,2,0c0.7,0,1.4,0,2.1,0c0.7,0,1.3,0,2,0
	c0.7,0,1.4,0,2.1,0c0.7,0,1.3,0,2,0c0.7,0,1.4,0,2,0c0,0,0.1,0,0.1,0C39.6,27.4,39.5,27.5,39.4,27.6z"/>
<path class="st17" d="M37.1,29.4c-0.3,0.1-0.6,0.2-0.9,0.3c-0.2,0-0.3,0-0.5,0c-1.2,0-2.3,0-3.5,0c-0.7,0-1.5,0-2.2,0
	c-0.6,0-1.3,0-1.9,0c-0.7,0-1.4,0-2.2,0c-0.6,0-1.3,0-1.9,0c-0.7,0-1.4,0-2.1,0c-0.7,0-1.3,0-2,0c-0.7,0-1.4,0-2.1,0
	c-0.7,0-1.3,0-2,0c-0.7,0-1.4,0-2.1,0c-0.7,0-1.3,0-2,0c-0.7,0-1.4,0-2.1,0c-0.7,0-1.3,0-2,0c-0.2,0-0.4-0.1-0.7,0
	c-0.2-0.1-0.5-0.2-0.7-0.3c0-0.1,0.1-0.1,0.2-0.1c0.6,0.1,1.2,0,1.7,0c0.7,0,1.5,0,2.2,0c0.6,0,1.3,0,1.9,0c0.7,0,1.4,0,2.1,0
	c0.6,0,1.3,0,1.9,0c0.7,0,1.5,0,2.2,0c0.7,0,1.3,0,2,0c0.7,0,1.4,0,2.1,0c0.7,0,1.3,0,2,0c0.7,0,1.4,0,2.1,0c0.7,0,1.3,0,2,0
	c0.7,0,1.4,0,2.1,0c0.7,0,1.3,0,2,0c0.7,0,1.4,0,2.1,0c0.7,0,1.3,0,2,0C36.9,29.3,37,29.3,37.1,29.4z"/>
<path class="st18" d="M38.1,28.9c-0.6-0.1-1.2,0-1.9,0c-0.7,0-1.3,0-2,0c-0.7,0-1.4,0-2.1,0c-0.6,0-1.1,0-1.7,0c-0.8,0-1.6,0-2.4,0
	c-0.7,0-1.3,0-2,0c-0.7,0-1.4,0-2.1,0c-0.7,0-1.3,0-2,0c-0.7,0-1.4,0-2.1,0c-0.7,0-1.3,0-2,0c-0.7,0-1.4,0-2.1,0c-0.6,0-1.2,0-1.8,0
	c-0.8,0-1.5,0-2.3,0c-0.7,0-1.3,0-2,0c-0.7,0-1.4,0-2.1,0c-0.7,0-1.3,0-2,0c-0.2,0-0.3,0-0.5,0c-0.1-0.1-0.2-0.1-0.4-0.2
	c0-0.1,0.1-0.1,0.2-0.1c0.5,0,1.1,0,1.6,0c0.4,0,0.9,0,1.3,0c0.9,0,1.8,0,2.7,0c0.7,0,1.3,0,2,0c0.7,0,1.4,0,2.1,0c0.7,0,1.3,0,2,0
	c0.7,0,1.4,0,2,0c0.7,0,1.4,0,2,0c0.7,0,1.4,0,2,0c0.7,0,1.4,0,2,0c0.7,0,1.3,0,2,0c0.7,0,1.4,0,2,0c0.7,0,1.4,0,2,0
	c0.7,0,1.4,0,2,0c0.7,0,1.4,0,2,0c0.7,0,1.3,0,2,0c0.4,0,0.8,0,1.1,0c0.1,0,0.2,0,0.2,0.1C38.4,28.8,38.2,28.9,38.1,28.9z"/>
<path class="st19" d="M3.1,26.6c-0.1-0.1-0.2-0.2-0.2-0.3c0.1-0.1,0.1-0.1,0.2-0.1c0.6,0,1.2,0,1.7,0c0.7,0,1.3,0,2,0
	c0.7,0,1.4,0,2,0c0.7,0,1.3,0,2,0c0.7,0,1.4,0,2,0c0.7,0,1.4,0,2,0c0.7,0,1.4,0,2,0c0.7,0,1.4,0,2,0c0.7,0,1.4,0,2,0
	c0.7,0,1.3,0,2,0c0.7,0,1.4,0,2,0c0.7,0,1.3,0,2,0c0.7,0,1.4,0,2,0c0.7,0,1.4,0,2,0c0.7,0,1.4,0,2,0c0.7,0,1.4,0,2,0
	c0.7,0,1.4,0,2,0c0.7,0,1.3,0,2,0c0.1,0,0.2,0,0.3,0.1c0,0.1,0,0.2-0.1,0.2c-1,0-1.9,0-2.9,0c-0.3,0-0.7,0-1,0c-1,0-2,0-3,0
	c-0.7,0-1.3,0-2,0c-0.7,0-1.4,0-2.1,0c-0.7,0-1.3,0-2,0c-0.7,0-1.4,0-2.1,0c-0.7,0-1.3,0-2,0c-0.7,0-1.4,0-2.1,0c-0.7,0-1.3,0-2,0
	c-0.7,0-1.4,0-2.1,0c-0.7,0-1.3,0-2,0c-0.7,0-1.4,0-2,0c-0.7,0-1.3,0-2,0c-0.7,0-1.4,0-2,0c-0.7,0-1.4,0-2,0c-0.7,0-1.4,0-2,0
	C3.8,26.6,3.5,26.6,3.1,26.6z"/>
<path class="st20" d="M3.9,27.4c0-0.1,0.1,0,0.2,0c0.6,0,1.1,0,1.7,0c0.7,0,1.4,0,2.1,0c0.7,0,1.3,0,2,0c0.7,0,1.4,0,2,0
	c0.7,0,1.4,0,2,0c0.7,0,1.4,0,2,0c0.7,0,1.4,0,2,0c0.7,0,1.3,0,2,0c0.7,0,1.4,0,2,0c0.7,0,1.4,0,2,0c0.7,0,1.4,0,2,0
	c0.7,0,1.3,0,2,0c0.7,0,1.4,0,2.1,0c0.7,0,1.3,0,2,0c0.7,0,1.4,0,2.1,0c0.6,0,1.2,0,1.8,0c0.8,0,1.5,0,2.3,0c0.3,0,0.6,0,0.9,0
	c0,0.1,0,0.2-0.1,0.2c-0.1,0-0.2,0-0.3,0c-0.3,0-0.7,0-1,0c-0.8,0-1.6,0-2.4,0c-0.7,0-1.3,0-2,0c-0.7,0-1.4,0-2.1,0
	c-0.6,0-1.2,0-1.8,0c-0.8,0-1.5,0-2.3,0c-0.7,0-1.3,0-2,0c-0.7,0-1.4,0-2.1,0c-0.6,0-1.3,0-1.9,0c-0.7,0-1.4,0-2.1,0
	c-0.7,0-1.3,0-2,0c-0.7,0-1.4,0-2.1,0c-0.7,0-1.3,0-2,0c-0.7,0-1.4,0-2.1,0c-0.6,0-1.1,0-1.7,0c-0.8,0-1.6,0-2.4,0c-0.7,0-1.3,0-2,0
	c-0.1,0-0.2,0-0.4,0c-0.2,0-0.3,0-0.5,0C4.1,27.6,4,27.5,3.9,27.4z"/>
<path class="st21" d="M1.9,25c-0.4-0.5-0.6-1.1-0.9-1.7c-0.6-1.5-0.8-3-0.7-4.5c0-0.9,0.2-1.8,0.5-2.7c0,0,0,0,0-0.1
	c0.1,0,0.1,0.1,0.2,0.1c0.3,0.7,0.6,1.3,0.9,2c0,0.1,0.1,0.2,0.1,0.3c0,0.1-0.1,0.2-0.1,0.3c-0.1,0.2-0.1,0.4-0.2,0.6
	c-0.1,0.2-0.1,0.4-0.2,0.6c-0.1,0.2-0.1,0.4-0.1,0.7c0,0.2,0,0.4-0.1,0.6c0,0.2,0,0.4,0,0.6c0,0.2,0,0.4,0,0.7
	c0,0.2,0.1,0.4,0.1,0.6c0,0.2,0.1,0.4,0.1,0.6c0,0.2,0.1,0.4,0.2,0.6C1.8,24.7,1.9,24.8,1.9,25C1.9,25,1.9,25,1.9,25z"/>
<path class="st22" d="M7,29.2c0.1-0.1,0.3-0.1,0.4,0c0.1,0,0.3,0,0.4,0c0.4,0,0.8,0,1.3,0c0.8,0,1.5,0,2.3,0c0.7,0,1.3,0,2,0
	c0.7,0,1.4,0,2,0c0.7,0,1.4,0,2,0c0.7,0,1.4,0,2,0c0.7,0,1.3,0,2,0c0.7,0,1.4,0,2.1,0c0.7,0,1.3,0,2,0c0.7,0,1.4,0,2.1,0
	c0.6,0,1.2,0,1.8,0c0.8,0,1.5,0,2.3,0c0.7,0,1.3,0,2,0c0.7,0,1.4,0,2.1,0c0.1,0,0.3,0,0.4,0.1c-0.4,0.1-0.7,0.2-1.1,0.2
	c-0.6-0.1-1.2,0-1.8-0.1c-0.7,0-1.5,0-2.2,0c-0.7,0-1.3,0-1.9,0c-0.7,0-1.4,0-2.1,0c-0.6,0-1.1,0-1.7,0c-0.8,0-1.6,0-2.4,0
	c-0.7,0-1.3,0-2,0c-0.7,0-1.4,0-2.1,0c-0.7,0-1.3,0-2,0c-0.7,0-1.4,0-2.1,0c-0.6,0-1.2,0-1.8,0c-0.8,0-1.5,0-2.3,0c-0.7,0-1.3,0-2,0
	c-0.2,0-0.5,0-0.7,0c-0.1,0-0.2,0-0.3,0C7.4,29.4,7.2,29.3,7,29.2z"/>
<path class="st18" d="M4.6,27.9c0.1,0,0.2,0,0.3,0c1,0,1.9,0,2.9,0c0.7,0,1.3,0,2,0c0.7,0,1.4,0,2.1,0c0.7,0,1.3,0,2,0
	c0.7,0,1.4,0,2.1,0c0.7,0,1.3,0,2,0c0.7,0,1.4,0,2.1,0c0.6,0,1.2,0,1.7,0c0.8,0,1.5,0,2.3,0c0.7,0,1.3,0,2,0c0.7,0,1.4,0,2.1,0
	c0.7,0,1.3,0,1.9,0c0.7,0,1.4,0,2.1,0c0.6,0,1.2,0,1.8,0c0.5,0,1,0,1.5,0c0.1,0,0.2,0,0.2,0c0.9,0,1.7,0,2.6,0c0.2,0,0.4,0,0.6,0.1
	c-0.1,0.1-0.2,0.1-0.3,0.2c-0.2,0-0.4,0-0.7,0c-0.8,0-1.6,0-2.5,0c-0.7,0-1.3,0-2,0c-0.7,0-1.4,0-2.1,0c-0.7,0-1.3,0-2,0
	c-0.7,0-1.4,0-2.1,0c-0.7,0-1.3,0-2,0c-0.7,0-1.4,0-2,0c-0.7,0-1.3,0-2,0c-0.7,0-1.4,0-2.1,0c-0.7,0-1.3,0-2,0c-0.7,0-1.4,0-2.1,0
	c-0.7,0-1.3,0-2,0c-0.7,0-1.4,0-2,0c-0.7,0-1.4,0-2,0c-0.7,0-1.4,0-2,0c-0.7,0-1.3,0-2,0c-0.1,0-0.1,0-0.2,0
	C4.7,28.1,4.6,28,4.6,27.9z"/>
<path class="st23" d="M39.6,27c0-0.1-0.1-0.1-0.2-0.1c-1,0-2,0-3,0c-0.9,0-1.9,0-2.8,0c-0.7,0-1.3,0-2,0c-0.7,0-1.4,0-2.1,0
	c-0.7,0-1.3,0-2,0c-0.7,0-1.4,0-2.1,0c-0.7,0-1.3,0-2,0c-0.7,0-1.4,0-2,0c-0.7,0-1.4,0-2,0c-0.7,0-1.4,0-2,0c-0.7,0-1.3,0-2,0
	c-0.7,0-1.4,0-2.1,0c-0.7,0-1.3,0-2,0c-0.7,0-1.4,0-2.1,0c-0.6,0-1.2,0-1.8,0c-0.8,0-1.5,0-2.3,0c-0.8,0-1.5,0-2.3,0
	c-0.1-0.1-0.1-0.1-0.2-0.2c0.1-0.1,0.1-0.1,0.2-0.1c1,0,2,0,3,0c0.4,0,0.8,0,1.2,0c1,0,1.9,0,2.9,0c0.6,0,1.3,0,1.9,0
	c0.7,0,1.4,0,2.1,0c0.7,0,1.3,0,2,0c0.7,0,1.4,0,2.1,0c0.7,0,1.3,0,2,0c0.7,0,1.4,0,2.1,0c0.7,0,1.3,0,2,0c0.7,0,1.4,0,2.1,0
	c0.7,0,1.3,0,2,0c0.7,0,1.4,0,2.1,0c0.7,0,1.3,0,2,0c0.7,0,1.4,0,2.1,0c0.7,0,1.3,0,2,0c0.7,0,1.4,0,2,0c0.4,0,0.8,0,1.1,0
	c0.1,0,0.1,0,0.2,0C39.7,26.9,39.7,26.9,39.6,27z"/>
<path class="st13" d="M37.1,29.4c-0.1,0-0.2,0-0.3,0c-1.2,0-2.3,0-3.5,0c-0.7,0-1.5,0-2.2,0c-0.7,0-1.3,0-2,0c-0.7,0-1.4,0-2.1,0
	c-0.6,0-1.1,0-1.7,0c-0.8,0-1.6,0-2.4,0c-0.7,0-1.3,0-2,0c-0.7,0-1.4,0-2.1,0c-0.6,0-1.2,0-1.8,0c-0.7,0-1.5,0-2.2,0
	c-0.7,0-1.3,0-2,0c-0.7,0-1.4,0-2.1,0c-0.6,0-1.3,0-1.9,0c-0.7,0-1.4,0-2.1,0c-0.1,0-0.3-0.1-0.4,0c-0.1,0-0.2-0.1-0.3-0.1
	c0-0.1,0.1-0.1,0.2-0.1c0.8,0,1.6,0,2.4,0c0.5,0,0.9,0,1.4,0c0.9,0,1.8,0,2.7,0c0.7,0,1.3,0,2,0c0.7,0,1.4,0,2.1,0c0.7,0,1.3,0,2,0
	c0.7,0,1.4,0,2.1,0c0.7,0,1.3,0,1.9,0c0.7,0,1.4,0,2.1,0c0.7,0,1.3,0,2,0c0.7,0,1.4,0,2,0c0.7,0,1.4,0,2,0c0.7,0,1.4,0,2,0
	c0.7,0,1.3,0,2,0c0.7,0,1.4,0,2.1,0c0.1,0,0.2,0,0.3,0.1C37.3,29.3,37.2,29.4,37.1,29.4z"/>
<path class="st24" d="M39.7,26.8c-0.1-0.1-0.1,0-0.2,0c-1,0-1.9,0-2.9,0c-0.7,0-1.3,0-2,0c-0.7,0-1.4,0-2,0c-0.7,0-1.4,0-2,0
	c-0.7,0-1.4,0-2,0c-0.7,0-1.3,0-2,0c-0.7,0-1.4,0-2.1,0c-0.7,0-1.3,0-2,0c-0.7,0-1.4,0-2.1,0c-0.7,0-1.3,0-2,0c-0.7,0-1.4,0-2.1,0
	c-0.7,0-1.3,0-2,0c-0.7,0-1.4,0-2,0c-0.7,0-1.3,0-2,0c-0.7,0-1.4,0-2.1,0c-0.7,0-1.3,0-2,0c-0.7,0-1.4,0-2.1,0c-0.5,0-0.9,0-1.4,0
	c0,0-0.1-0.1-0.1-0.1C2.7,26,2.7,26,2.8,26C3.9,26,5,26,6,26c0.5,0,1,0,1.5,0c0.3,0,0.5,0,0.8,0c0.3,0,0.6,0,0.9,0
	c0.2,0,0.4,0.1,0.5,0.1c0.1,0,0.2,0,0.2,0c2,0,4.1,0,6.1,0c0.1,0,0.1,0,0.2,0c0.1,0,0.1,0,0.2,0c1.1,0,2.2,0,3.3,0
	c0.8,0,1.7,0,2.5,0.1c0.4,0,0.8,0,1.2,0c0.9,0,1.8,0,2.8,0c0.7,0,1.3,0,2,0c0.7,0,1.4,0,2.1,0c0.7,0,1.3,0,2,0c0.7,0,1.4,0,2,0
	c0.7,0,1.3,0,2,0c0.7,0,1.4,0,2,0c0.4,0,0.8,0,1.2,0C39.8,26.7,39.8,26.7,39.7,26.8z"/>
<path class="st25" d="M3.1,26.6c0-0.1,0.1-0.1,0.1-0.1c0.9,0,1.8,0,2.7,0c0.3,0,0.6,0,0.9,0c1,0,2.1,0,3.1,0c0.7,0,1.4,0,2,0
	c0.7,0,1.4,0,2,0c0.7,0,1.4,0,2,0c0.7,0,1.3,0,2,0c0.7,0,1.4,0,2.1,0c0.7,0,1.3,0,2,0c0.7,0,1.4,0,2.1,0c0.7,0,1.3,0,2,0
	c0.7,0,1.4,0,2.1,0c0.7,0,1.3,0,2,0c0.7,0,1.4,0,2,0c0.7,0,1.4,0,2,0c0.7,0,1.4,0,2,0c0.7,0,1.4,0,2,0c0.3,0,0.7,0,1,0
	c0,0,0.1,0,0.1,0c0,0.1,0,0.1,0,0.1c-0.7,0-1.4,0-2.1,0c0,0-0.1,0-0.1,0c-1,0-1.9,0-2.9,0c-0.7,0-1.3,0-2,0c-0.7,0-1.4,0-2.1,0
	c-0.7,0-1.3,0-2,0c-0.7,0-1.4,0-2.1,0c-0.7,0-1.3,0-2,0c-0.7,0-1.4,0-2,0c-0.7,0-1.4,0-2,0c-0.7,0-1.4,0-2,0c-0.6,0-1.3,0-1.9,0
	c-0.7,0-1.4,0-2.1,0c-0.7,0-1.3,0-2,0c-0.7,0-1.4,0-2.1,0c-0.7,0-1.3,0-2,0c-0.7,0-1.4,0-2.1,0c-0.7,0-1.3,0-2,0c-0.3,0-0.5,0-0.8,0
	C3.2,26.7,3.1,26.7,3.1,26.6z"/>
<path class="st26" d="M9.6,9c0.3,0,0.6-0.1,0.9-0.1c0,0,0.1,0,0.1,0c-0.1,0.2,0,0.3,0.1,0.5c0.5,1.1,0.9,2.2,1.4,3.3
	c0,0.1,0.1,0.2,0,0.3c-0.3,0-0.6-0.1-0.9-0.1c0,0-0.1,0-0.1-0.1c-0.2-0.4-0.4-0.8-0.5-1.2c-0.3-0.7-0.6-1.5-1-2.2
	c0-0.1-0.1-0.2-0.1-0.2C9.5,9.1,9.5,9,9.6,9z"/>
<path class="st27" d="M1.9,25C1.9,25,1.9,25,1.9,25c0.2,0,0.4,0,0.6,0c0.8,0,1.7,0,2.5,0c0.6,0,1.1,0,1.7,0c0.1,0,0.2,0,0.3,0
	c0.1,0,0.1,0,0.2,0c0.3,0.2,0.7,0.4,1,0.6c0.1,0,0.1,0.1,0.1,0.1c0,0.1-0.1,0.1-0.2,0.1c-0.4,0-0.8,0-1.2,0c0,0-0.1,0-0.1,0
	c-1.2,0-2.4,0-3.6,0c-0.3,0-0.5,0-0.8,0C2.2,25.5,2,25.3,1.9,25z"/>
<path class="st2" d="M6.2,10c0.3-0.1,0.6-0.3,0.9-0.4C7.2,9.7,7.2,9.9,7.3,10c0.4,1,0.9,2,1.3,2.9c0,0,0,0.1,0,0.1
	c-0.1,0.1-0.8,0.4-0.9,0.4c-0.2-0.3-0.3-0.6-0.4-0.8c-0.4-0.8-0.7-1.6-1.1-2.4C6.2,10.1,6.1,10.1,6.2,10z"/>
<path class="st28" d="M8.6,13.1c-0.1-0.2-0.2-0.4-0.3-0.7c-0.3-0.6-0.6-1.3-0.8-1.9c-0.1-0.3-0.3-0.6-0.4-0.9
	c0.2-0.1,0.5-0.2,0.7-0.3c0.4,0.8,0.7,1.6,1,2.4C9,12,9.1,12.4,9.3,12.7c0,0.1,0.1,0.2,0.1,0.2C9.1,13,8.9,13.1,8.6,13.1z"/>
<path class="st29" d="M9.6,9c-0.1,0,0,0.1,0,0.2c0.2,0.5,0.4,1,0.6,1.5c0.3,0.7,0.6,1.3,0.9,2c0,0,0,0.1,0,0.1c0,0.1-0.1,0-0.2,0
	c-0.1,0-0.2,0-0.3,0c-0.4,0-0.3,0-0.5-0.3c-0.5-1-0.9-2.1-1.4-3.1c0-0.1-0.1-0.1,0-0.2C9,9.1,9.3,9,9.6,9z"/>
<path class="st25" d="M3.2,26.8c0.2-0.1,0.4-0.1,0.6-0.1c0.1,0,0.3,0,0.4,0c0.4,0,0.8,0,1.2,0c0.8,0,1.6,0,2.4,0c0.7,0,1.3,0,2,0
	c0.7,0,1.4,0,2,0c0.7,0,1.4,0,2,0c0.7,0,1.4,0,2,0c0.7,0,1.3,0,2,0c0.7,0,1.4,0,2.1,0c0.7,0,1.3,0,2,0c0.7,0,1.4,0,2.1,0
	c0.7,0,1.3,0,2,0c0.7,0,1.4,0,2.1,0c0.6,0,1.1,0,1.7,0c0.8,0,1.6,0,2.4,0c0.7,0,1.3,0,2,0c0.7,0,1.4,0,2.1,0c0.7,0,1.4,0,2,0
	c0.4,0,0.8,0,1.2,0c0,0,0,0,0,0.1c-0.1,0-0.3,0-0.4,0c-1.2,0-2.3,0-3.5,0c-0.7,0-1.4,0-2,0c-0.7,0-1.4,0-2,0c-0.7,0-1.4,0-2,0
	c-0.7,0-1.3,0-2,0c-0.7,0-1.4,0-2.1,0c-0.7,0-1.3,0-2,0c-0.7,0-1.4,0-2.1,0c-0.7,0-1.3,0-2,0c-0.7,0-1.3,0-1.9,0c-0.1,0-0.2,0-0.3,0
	c-0.3,0-0.7,0-1,0c-1,0-1.9,0-2.9,0c-0.7,0-1.3,0-2,0c-0.7,0-1.4,0-2.1,0c-0.6,0-1.2,0-1.8,0c-0.8,0-1.5,0-2.3,0c-0.5,0-1,0-1.5,0
	c-0.1,0-0.1,0-0.2,0C3.3,26.9,3.3,26.9,3.2,26.8C3.3,26.8,3.2,26.8,3.2,26.8z"/>
<path class="st30" d="M5,10.6c0.2-0.1,0.4-0.3,0.6-0.4c0.1,0.1,0.2,0.3,0.2,0.5c0.4,1,0.8,2,1.3,2.9c0,0,0,0.1,0,0.1
	c0,0,0,0.1-0.1,0.1C7,14,6.8,14.1,6.7,14.2c0,0-0.1,0-0.1,0c-0.1,0-0.1-0.1-0.1-0.1C6,13,5.5,11.9,5.1,10.8C5,10.8,5,10.7,5,10.6z"
	/>
<path class="st31" d="M11.9,5.6c0.1-0.2,0.2-0.3,0.3-0.5c0,0,0,0,0.1,0c0.2,0.1,0.2,0.4,0.3,0.5c0.6,1.1,1.3,2.2,1.9,3.3
	c0.1,0.2,0.2,0.3,0.3,0.5c0,0.1,0,0.1-0.1,0.2c-0.1,0-0.2,0-0.3-0.1c-0.1-0.1-0.3-0.1-0.4-0.2c-0.2-0.4-0.4-0.7-0.6-1
	C12.9,7.5,12.4,6.6,11.9,5.6z"/>
<path class="st32" d="M5,10.6c0.3,0.7,0.6,1.4,0.9,2.1c0.2,0.5,0.4,1,0.6,1.5c0,0,0,0.1-0.1,0.1c-0.2,0-0.3,0.1-0.5,0.2
	c-0.1,0-0.1,0.1-0.2,0c-0.3-0.5-0.5-1.1-0.7-1.7c-0.2-0.5-0.5-1.1-0.7-1.6c0,0-0.1-0.1,0-0.1C4.6,10.9,4.8,10.8,5,10.6z"/>
<path class="st33" d="M11.9,5.6C12,5.7,12.1,5.9,12.1,6c0.6,1,1.2,2.1,1.7,3.1C13.9,9.2,14,9.3,14,9.4c-0.1,0.1-0.2,0-0.2,0
	c-0.1,0-0.2,0-0.3-0.1c-0.1-0.1-0.3,0-0.4-0.1c0-0.2-0.2-0.4-0.3-0.6c-0.4-0.7-0.8-1.4-1.2-2.1c0-0.1-0.1-0.1-0.2-0.2
	C11.6,6.1,11.7,5.8,11.9,5.6z"/>
<path class="st4" d="M7.2,13.8C7,13.4,6.8,13,6.7,12.6c-0.3-0.8-0.7-1.6-1-2.4C5.8,10.1,6,10.1,6.2,10c0.1,0.3,0.2,0.5,0.3,0.7
	c0.3,0.8,0.7,1.6,1,2.4c0.1,0.1,0.1,0.2,0.2,0.4c-0.1,0.1-0.2,0.1-0.3,0.2C7.3,13.8,7.3,13.8,7.2,13.8z"/>
<path class="st34" d="M1.9,18.6c-0.3-0.6-0.6-1.3-0.9-1.9C1,16.5,1,16.4,0.9,16.3c0-0.1-0.1-0.1-0.1-0.2C0.9,15.7,1,15.4,1.2,15
	c0.1,0,0.1,0.1,0.1,0.2c0.3,0.7,0.6,1.5,1,2.2c0,0.1,0.1,0.1,0.1,0.2c0,0.2-0.2,0.3-0.2,0.5c0,0.1-0.1,0.2-0.1,0.3
	C2,18.5,2,18.6,1.9,18.6z"/>
<path class="st24" d="M3.5,11.8c0.1-0.2,0.3-0.3,0.5-0.4c0.1,0,0.1,0.1,0.1,0.1c0.4,1,0.9,2,1.3,3.1c0,0,0,0.1,0,0.1
	c-0.2,0.2-0.3,0.3-0.6,0.3c-0.2-0.4-0.3-0.8-0.5-1.1c-0.3-0.6-0.5-1.3-0.8-1.9C3.6,11.9,3.5,11.9,3.5,11.8z"/>
<path class="st35" d="M8.8,9.1C8.8,9.3,9,9.5,9,9.8c0.3,0.8,0.7,1.6,1,2.4c0.1,0.1,0.1,0.3,0.2,0.4c0,0.1,0.1,0.2,0.3,0.2
	c0.2,0,0.4,0,0.6,0c0,0,0.1,0,0.1,0c0,0-0.1,0.1-0.1,0.1c-0.4,0-0.8,0-1.2,0c-0.1,0-0.1-0.1-0.2-0.1c-0.5-1.1-0.9-2.2-1.4-3.3
	c0-0.1-0.1-0.2,0-0.2C8.5,9.2,8.6,9.1,8.8,9.1z"/>
<path class="st21" d="M10.6,8.9c0,0-0.1,0-0.1,0c0.2-0.7,0.4-1.3,0.7-2c0.1,0,0.1,0.1,0.2,0.1c0.2,0.4,0.4,0.8,0.7,1.2
	c0.1,0.2,0.2,0.4,0.3,0.6c0.1,0.1,0,0.2-0.1,0.2c-0.1,0-0.1,0-0.2,0c-0.2,0-0.3-0.1-0.5,0c0,0-0.1,0-0.1,0c-0.1,0-0.2,0-0.3,0
	c0,0,0,0-0.1,0C10.9,9,10.7,9,10.6,8.9z"/>
<path class="st36" d="M2.4,17.7c-0.2-0.3-0.3-0.6-0.4-0.9c-0.3-0.6-0.5-1.1-0.7-1.7c0.1-0.3,0.2-0.5,0.4-0.8
	c0.1,0.1,0.1,0.2,0.2,0.3c0.3,0.8,0.7,1.5,1,2.3c0,0,0,0.1,0,0.1c-0.1,0.2-0.2,0.3-0.3,0.5C2.5,17.6,2.5,17.6,2.4,17.7z"/>
<path class="st34" d="M12.2,9c0.1,0,0.1-0.1,0.1-0.2C12,8.3,11.6,7.7,11.3,7c0,0,0-0.1-0.1-0.1c0.1-0.2,0.2-0.4,0.3-0.6
	c0.1-0.1,0.1,0,0.2,0.1c0.1,0.2,0.3,0.5,0.4,0.7c0.4,0.6,0.7,1.3,1.1,1.9c0,0.1,0.1,0.1,0,0.2c-0.2,0.1-0.3,0-0.5,0
	C12.5,9.1,12.4,9.2,12.2,9z"/>
<path class="st37" d="M2.4,25.8c0.2-0.1,0.4-0.1,0.6,0c0.1,0,0.1,0,0.2,0c0.5,0,1.1,0,1.6,0c0.7,0,1.4,0,2.2,0c0.4,0,0.8,0,1.3,0
	c0,0,0.1,0.1,0.1-0.1c0,0,0.1,0,0.1,0C8.6,25.9,8.9,26,9.1,26c0,0,0.1,0,0.1,0.1c-0.3,0-0.6,0.1-0.9,0c-0.7-0.1-1.4,0-2.1,0
	c-0.7,0-1.3,0-2,0c-0.6,0-1.1,0-1.7,0C2.5,26,2.4,25.9,2.4,25.8z"/>
<path class="st17" d="M2.8,17c-0.2-0.4-0.3-0.8-0.5-1.1c-0.2-0.5-0.5-1.1-0.7-1.6c0.1-0.2,0.2-0.4,0.4-0.6c0.1,0,0.1,0.1,0.2,0.2
	c0.3,0.7,0.6,1.4,0.9,2c0.1,0.2,0.2,0.4,0.2,0.5c0,0.2-0.2,0.3-0.3,0.4C2.9,16.9,2.9,17,2.8,17z"/>
<path class="st18" d="M2.3,13.2c0.1-0.2,0.3-0.4,0.4-0.5C2.9,12.8,2.9,13,3,13.2c0.3,0.8,0.7,1.5,1,2.3c0,0,0,0.1,0,0.1
	c-0.1,0.2-0.3,0.3-0.4,0.4c0,0,0,0,0,0c-0.2-0.2-0.2-0.4-0.3-0.6C3,14.7,2.7,14,2.3,13.3C2.3,13.3,2.3,13.2,2.3,13.2z"/>
<path class="st24" d="M18.3,0.6c0.3-0.1,0.5-0.2,0.8-0.2c0.1,0.1,0.1,0.1,0.1,0.2c0,0.7,0,1.4,0,2.2c0,0,0,0.1,0,0.1
	c0,0.1-0.1,0.1-0.2,0.1c-0.1,0-0.2,0-0.4,0c-0.1,0-0.3,0.1-0.4,0c0.1-0.1,0.1-0.2,0.1-0.4c0-0.6,0-1.2,0-1.8
	C18.3,0.7,18.3,0.6,18.3,0.6z"/>
<path class="st38" d="M8.3,9.2c0,0,0,0.1,0,0.2c0.4,1,0.9,2,1.3,3.1c0,0.1,0.1,0.2,0.1,0.3c0,0,0,0,0.1,0.1
	c-0.2,0.1-0.3,0.1-0.5,0.1c-0.1-0.3-0.3-0.7-0.4-1C8.6,11.2,8.3,10.5,8,9.8C7.9,9.6,7.8,9.5,7.8,9.4C8,9.3,8.1,9.3,8.3,9.2z"/>
<path class="st39" d="M5.5,14.6c-0.3-0.6-0.6-1.3-0.8-1.9c-0.2-0.5-0.4-0.9-0.6-1.4c0.1-0.1,0.3-0.2,0.4-0.3
	c0.2,0.3,0.3,0.6,0.4,0.9c0.3,0.6,0.5,1.2,0.8,1.8c0.1,0.2,0.2,0.4,0.2,0.6c0,0,0,0.1,0,0.1C5.8,14.6,5.6,14.6,5.5,14.6z"/>
<path class="st15" d="M4,15.6c-0.2-0.4-0.3-0.8-0.5-1.2c-0.3-0.6-0.5-1.2-0.8-1.8c0,0,0,0,0,0c0.1-0.1,0.2-0.3,0.4-0.4
	c0.1,0.1,0.1,0.2,0.2,0.3c0.4,0.9,0.8,1.7,1.1,2.6c0,0.1,0.1,0.1,0,0.2c0,0.1-0.1,0.1-0.2,0.2C4.2,15.5,4.2,15.6,4,15.6z"/>
<path class="st16" d="M18.3,0.6c0,0.1,0,0.2,0,0.2c0,0.6,0,1.2,0,1.9c0,0.1,0,0.2-0.1,0.2C18.2,3,18.1,3,18,3c-0.1,0-0.3,0.1-0.4,0
	c0,0,0,0,0,0c0-0.1,0-0.1,0-0.2c0-0.6,0-1.1,0-1.7c0-0.1,0-0.2,0-0.2C17.8,0.8,18.1,0.7,18.3,0.6z"/>
<path class="st39" d="M19.1,2.8c0-0.8,0-1.7,0-2.5c0.2-0.1,0.4-0.1,0.6-0.1c0.1,0.1,0.1,0.1,0.1,0.2c0,0.7,0,1.5,0,2.2
	c0,0.1,0,0.1,0,0.2C19.6,2.9,19.4,2.9,19.1,2.8z"/>
<path class="st18" d="M4.8,28.1c1,0,1.9,0,2.9,0c0.5,0,1,0,1.5,0c0.9,0,1.7,0,2.6,0c0.7,0,1.3,0,2,0c0.7,0,1.4,0,2.1,0
	c0.7,0,1.3,0,2,0c0.7,0,1.4,0,2.1,0c0.6,0,1.3,0,1.9,0c0.7,0,1.4,0,2.1,0c0.7,0,1.3,0,2,0c0.7,0,1.4,0,2.1,0c0.7,0,1.3,0,1.9,0
	c0.7,0,1.4,0,2.1,0c0.7,0,1.3,0,2,0c0.7,0,1.4,0,2.1,0c0.7,0,1.3,0,2,0c0.1,0,0.3,0,0.4,0.1c0,0,0,0,0,0c-0.2,0-0.3,0-0.5,0
	c-0.9,0-1.7,0-2.6,0c-0.7,0-1.3,0-2,0c-0.7,0-1.4,0-2.1,0c-0.6,0-1.1,0-1.7,0c-0.8,0-1.6,0-2.4,0c-0.7,0-1.3,0-2,0
	c-0.7,0-1.4,0-2.1,0c-0.6,0-1.2,0-1.9,0c-0.7,0-1.5,0-2.2,0c-0.7,0-1.3,0-2,0c-0.7,0-1.4,0-2,0c-0.7,0-1.4,0-2,0c-0.7,0-1.4,0-2,0
	c-0.7,0-1.4,0-2,0c-0.7,0-1.3,0-2,0c-0.6,0-1.2,0-1.8,0c-0.1,0-0.1,0-0.2,0C4.9,28.2,4.8,28.1,4.8,28.1z"/>
<path class="st20" d="M17.6,0.9c0,0.7,0,1.4,0,2.1c-0.1,0.1-0.3,0.1-0.4,0.1c-0.1,0-0.2,0.1-0.3,0c0,0-0.1,0-0.1,0
	c0-0.1,0-0.1,0-0.2c0-0.5,0-1,0-1.5c0,0,0-0.1,0-0.1C17,1.1,17.3,1,17.6,0.9z"/>
<path class="st40" d="M20.8,0.1c0,1,0,1.9,0,2.9c-0.1,0.1-0.1,0-0.2,0c-0.1,0-0.2,0-0.3-0.1c0-0.1,0-0.2,0-0.2c0-0.7,0-1.5,0-2.2
	c0-0.1,0-0.2,0.1-0.3C20.5,0.1,20.7,0.1,20.8,0.1z"/>
<path class="st41" d="M2.3,13.2c0.4,1,0.8,1.9,1.3,2.9c-0.1,0.2-0.2,0.3-0.3,0.4c-0.2-0.3-0.3-0.7-0.4-1c-0.2-0.5-0.5-1.1-0.7-1.6
	c0-0.1-0.1-0.1-0.1-0.2C2.1,13.5,2.2,13.3,2.3,13.2z"/>
<path class="st42" d="M20.3,0.1c0,0.9,0,1.8,0,2.7c-0.1,0.1-0.2,0-0.3,0c-0.1,0-0.2,0-0.2-0.1c0-0.9,0-1.7,0-2.6
	C20,0.2,20.1,0.1,20.3,0.1z"/>
<path class="st18" d="M16.8,1.2c0,0.1,0,0.1,0,0.2c0,0.6,0,1.1,0,1.7c-0.1,0.1-0.2,0.1-0.3,0.1c-0.1,0-0.2,0.1-0.4,0.1
	c-0.1,0-0.1,0-0.2,0c0-0.5,0-1,0-1.5c0-0.1,0-0.1,0.1-0.2C16.3,1.5,16.5,1.3,16.8,1.2z"/>
<path class="st13" d="M16,1.6c0,0.5,0,1,0,1.5c0,0.1,0,0.1,0,0.2c0,0.1-0.1,0.1-0.2,0.1c-0.1,0-0.3,0.1-0.4,0.1
	c-0.1,0-0.1,0.1-0.2,0c0-0.1,0-0.2,0-0.4c0-0.3,0-0.5,0-0.8c0-0.1,0-0.2,0-0.2C15.5,1.9,15.8,1.8,16,1.6z"/>
<path class="st16" d="M3.5,11.8c0.3,0.8,0.7,1.6,1,2.4c0.1,0.3,0.3,0.5,0.3,0.8c0,0.1-0.1,0.2-0.2,0.2c-0.1,0-0.1-0.1-0.1-0.2
	c-0.4-0.9-0.7-1.7-1.1-2.6c0-0.1-0.2-0.2-0.1-0.4C3.4,11.9,3.5,11.9,3.5,11.8z"/>
<path class="st22" d="M15.3,2.1c0,0.5,0,0.9,0,1.4c0,0,0,0,0,0c-0.1,0.1-0.3,0.1-0.4,0.2c-0.1,0-0.2,0.1-0.2,0.1c-0.1,0-0.1,0-0.1,0
	c0-0.3,0-0.7,0-1c0,0,0-0.1,0-0.1C14.7,2.5,15,2.3,15.3,2.1z"/>
<path class="st16" d="M3.3,12c0.1,0.3,0.3,0.6,0.4,1c0.3,0.6,0.5,1.3,0.8,1.9c0,0.1,0.1,0.2,0.1,0.3c0,0.1-0.1,0.2-0.2,0.2
	c0-0.2-0.1-0.4-0.2-0.5c-0.4-0.9-0.7-1.7-1.1-2.6C3.2,12.1,3.2,12.1,3.3,12z"/>
<path class="st43" d="M14.5,2.7c0,0.4,0,0.8,0,1.1c0,0.1-0.1,0.1-0.2,0.1C14.1,4,14,4.1,13.8,4.2c-0.1,0-0.1,0.1-0.2,0
	c0-0.2,0-0.5,0-0.7C13.9,3.2,14.2,2.9,14.5,2.7z"/>
<path class="st34" d="M13.6,3.5c0.1,0.1,0,0.1,0,0.2c0,0.2,0,0.3,0,0.5c0,0.1-0.1,0.1-0.1,0.1c-0.3,0.1-0.5,0.3-0.7,0.4
	c-0.2,0.1-0.3,0.3-0.5,0.4c0,0-0.1,0-0.1,0C12.6,4.5,13.1,4,13.6,3.5z"/>
<path class="st44" d="M29.7,2.8c0.2,0.1,0.4,0.3,0.5,0.5c0,0.1,0,0.2,0,0.3c0,5.4,0,10.7,0,16.1c0,0.1,0,0.2,0,0.3
	c-0.2,0.1-0.4,0-0.6,0c0,0,0-0.1,0-0.2c0-1.9,0-3.7,0-5.6c0-0.1,0-0.2,0-0.3c0-0.2,0.1-0.4,0.1-0.5c0.1-0.9,0.1-1.8-0.1-2.6
	c0-0.1,0-0.2,0-0.3c0-0.1,0-0.3,0-0.4c0-2.2,0-4.5,0-6.7c0-0.1,0-0.2,0-0.3C29.6,2.8,29.6,2.8,29.7,2.8z"/>
<path class="st45" d="M31.2,4.2c0.2,0.2,0.4,0.4,0.6,0.7c0,0.1,0,0.2,0,0.3c0,4.5,0,9,0,13.5c0,0.1,0,0.1,0,0.2
	c0.1-0.1,0.1-0.2,0.2-0.2c0,0,0.1,0,0.1,0c0,0,0,0.1,0,0.1c-0.2,0.3-0.4,0.5-0.7,0.7c-0.1,0-0.1,0.1-0.2,0c0,0-0.1-0.1-0.1-0.2
	c0-0.1,0-0.1,0-0.2c0-4.9,0-9.7,0-14.6c0-0.1,0-0.1,0-0.2C31.1,4.3,31.1,4.2,31.2,4.2z"/>
<path class="st46" d="M32.1,18.7c-0.1,0.1-0.2,0.3-0.3,0.4c0,0,0-0.1,0-0.1c0-4.6,0-9.2,0-13.8c0-0.1,0-0.1,0-0.2
	c0.3,0.3,0.5,0.7,0.7,1c0,0.1,0,0.2,0,0.2c0,3.9,0,7.9,0,11.8c0,0,0,0.1,0,0.1c0,0,0,0,0,0C32.4,18.4,32.3,18.6,32.1,18.7z"/>
<path class="st47" d="M31.2,4.2c-0.1,0.1-0.1,0.1-0.1,0.2c0,1.5,0,2.9,0,4.4c0,3.5,0,7,0,10.5c0,0.1,0,0.2,0.1,0.2c0,0,0,0,0,0.1
	c-0.2,0.1-0.3,0.2-0.5,0.2c-0.1,0-0.1-0.1-0.1-0.2c0-0.1,0-0.1,0-0.2c0-5.1,0-10.2,0-15.3c0-0.1,0-0.2,0-0.2c0-0.1,0-0.1,0.1-0.2
	C30.9,3.8,31.1,4,31.2,4.2z"/>
<path class="st48" d="M30.7,3.7c-0.1,0.1-0.1,0.1-0.1,0.2c0,5.2,0,10.5,0,15.7c0,0.1,0,0.1,0.1,0.2c-0.1,0.1-0.4,0.1-0.5,0.1
	c0-5.5,0-10.9,0-16.4c0-0.1,0-0.1,0-0.2C30.4,3.3,30.6,3.5,30.7,3.7z"/>
<path class="st49" d="M32.4,18.1c-0.1,0-0.1-0.1-0.1-0.2c0-0.9,0-1.8,0-2.7c0-3,0-6,0-9c0-0.1-0.1-0.2,0.1-0.2
	C32.7,6.3,32.9,6.7,33,7c0,0.2,0,0.4,0,0.6c0,3,0,6,0,9c0,0.1,0,0.2,0,0.3c0,0,0,0,0,0.1c0,0,0,0.1,0,0.1
	C32.9,17.4,32.7,17.8,32.4,18.1C32.5,18.1,32.4,18.1,32.4,18.1z"/>
<path class="st50" d="M33,16.9C33,16.9,33,17,33,16.9C33,16.9,33,16.8,33,16.8c0-3.2,0-6.4,0-9.5c0-0.1,0-0.1,0-0.2
	c0.2,0.4,0.4,0.8,0.5,1.2c0,0.1,0,0.2,0,0.3c0,2.3,0,4.6,0,6.9c0,0.1,0,0.2,0,0.3c0,0.1,0,0.1,0,0.2c-0.1,0.3-0.2,0.6-0.3,0.9
	C33.1,16.9,33.1,16.9,33,16.9z"/>
<path class="st51" d="M33.5,15.8c-0.1-0.1-0.1-0.1-0.1-0.2c0-2.4,0-4.8,0-7.2c0-0.1,0-0.2,0.1-0.2c0.2,0.5,0.3,1.1,0.4,1.6
	c0.2,1,0.3,2.1,0.2,3.1c0.1,0.2,0,0.4,0,0.5c0,0.5-0.1,0.9-0.2,1.4c-0.1,0.3-0.1,0.5-0.2,0.8C33.5,15.7,33.5,15.8,33.5,15.8z"/>
<path class="st52" d="M29.7,2.8c0,0.1-0.1,0.2-0.1,0.4c0,2.3,0,4.7,0,7c0,0.1,0,0.1,0,0.2c-0.1,0-0.1-0.1-0.1-0.1
	c-0.1-0.4-0.2-0.8-0.4-1.2c0-0.1-0.1-0.1-0.1-0.2c0-0.1,0-0.2,0-0.4c0-1.9,0-3.8,0-5.8c0-0.1,0-0.2,0-0.2c0-0.1,0-0.1,0.1-0.1
	C29.4,2.5,29.5,2.6,29.7,2.8z"/>
<path class="st53" d="M29.2,2.3c-0.1,0.1,0,0.1,0,0.2c0,2,0,4,0,6c0,0.1,0,0.2,0,0.3c0,0-0.1,0-0.1,0c-0.1-0.3-0.3-0.5-0.4-0.8
	c0-0.1-0.1-0.3-0.1-0.4c0-1.8,0-3.5,0-5.3c0-0.1,0-0.3,0.1-0.4C28.8,2.1,29,2.2,29.2,2.3z"/>
<path class="st54" d="M40.8,26.6c-0.1,0.1-0.2,0.2-0.3,0.4c-0.1,0-0.1-0.1-0.1-0.1c0-0.1,0-0.1,0-0.2c0-3.4,0-6.8,0-10.2
	c0-0.1,0-0.1,0-0.2c0-0.1,0-0.1,0.1-0.1c0.1,0.1,0.2,0.2,0.3,0.3c0,0.2,0,0.3,0,0.5c0,3.1,0,6.2,0,9.3
	C40.8,26.3,40.8,26.4,40.8,26.6z"/>
<path class="st55" d="M40.2,27.2c0,0.1-0.2,0.2-0.3,0.3c-0.1,0-0.1-0.1-0.1-0.2c0-0.2,0-0.5,0-0.7c0-0.1,0-0.3,0-0.4
	c0-0.1,0-0.2,0-0.3c0-0.2,0.1-0.5,0.1-0.7c0,0,0-0.1,0-0.1c0-0.1,0-0.2,0-0.3c0-0.1,0-0.2,0-0.3c0-0.1,0-0.2,0-0.3
	c0-0.1,0-0.2,0-0.3c0-0.2,0-0.4-0.1-0.5c0-0.2-0.1-0.3-0.1-0.5c0-0.1,0-0.3,0-0.4c0-2.2,0-4.4,0-6.6c0-0.1,0-0.1,0-0.2
	c0,0,0-0.1,0.1-0.1c0.1,0.1,0.2,0.1,0.2,0.2c0,0.1,0,0.2,0,0.3c0,3.6,0,7.2,0,10.9C40.3,27,40.3,27.1,40.2,27.2z"/>
<path class="st56" d="M28.6,2c0,0.2,0,0.3,0,0.5c0,1.7,0,3.3,0,5c0,0.1,0,0.1,0,0.2c-0.1,0-0.1-0.1-0.1-0.1C28.3,7.3,28.2,7,28,6.7
	c0-0.1-0.1-0.1,0-0.2c0-0.1,0-0.2,0-0.4c0-1.4,0-2.8,0-4.2c0-0.1,0-0.1,0-0.2c0,0,0-0.1,0.1-0.1C28.3,1.7,28.5,1.8,28.6,2z"/>
<path class="st57" d="M40.2,27.2c0-0.1,0-0.1,0-0.2c0-3.7,0-7.4,0-11.2c0-0.1,0-0.1,0-0.2c0.1,0.1,0.2,0.2,0.3,0.3
	c-0.1,0.1-0.1,0.1-0.1,0.2c0,3.5,0,7,0,10.5c0,0.1,0,0.2,0.1,0.2C40.4,27.1,40.3,27.2,40.2,27.2z"/>
<path class="st26" d="M28.1,1.6c-0.1,0.1,0,0.1,0,0.2c0,1.5,0,3,0,4.5c0,0.1,0,0.2-0.1,0.3c-0.1,0-0.1-0.1-0.1-0.1
	c-0.1-0.1-0.2-0.3-0.3-0.4C27.5,6,27.5,6,27.5,5.9c0-0.1,0-0.2,0-0.3c0-1.3,0-2.6,0-3.9c0-0.1,0-0.2,0.1-0.3
	C27.8,1.4,28,1.5,28.1,1.6z"/>
<path class="st47" d="M41.3,25.9c0,0.2-0.2,0.3-0.3,0.4c-0.1,0-0.1-0.1-0.1-0.1c0-0.1,0-0.1,0-0.2c0-3,0-5.9,0-8.9
	c0-0.1,0-0.1,0-0.2c0-0.1,0-0.1,0.1-0.1c0.1,0.1,0.2,0.3,0.3,0.4c0,0.1,0,0.3,0,0.4c0,2.7,0,5.4,0,8.1
	C41.3,25.7,41.2,25.8,41.3,25.9z"/>
<path class="st58" d="M26.5,0.9C26.8,0.9,27,1,27.2,1.1c0,0.1,0,0.3,0,0.4c0,1.2,0,2.4,0,3.6c0,0.1,0,0.2,0,0.3c0,0-0.1,0-0.1,0
	c-0.1-0.1-0.3-0.2-0.4-0.4c0,0,0-0.1,0-0.1c0-0.3,0-0.5,0-0.8c0-1,0-2,0-3C26.5,1.1,26.4,1,26.5,0.9z"/>
<path class="st59" d="M27,5.5c0.1-0.1,0-0.1,0-0.2c0-1.3,0-2.6,0-3.9c0-0.1,0-0.2,0.1-0.2c0.2,0.1,0.3,0.1,0.5,0.2
	c-0.1,0.1,0,0.1,0,0.2c0,1.4,0,2.8,0,4.2c0,0.1,0,0.2-0.1,0.2c-0.1,0-0.1,0-0.1,0c-0.1-0.1-0.2-0.2-0.3-0.3C27,5.5,27,5.5,27,5.5z"
	/>
<path class="st60" d="M41,16.7c-0.1,0-0.1,0.1-0.1,0.2c0,3.1,0,6.2,0,9.2c0,0.1,0,0.1,0.1,0.2c-0.1,0.1-0.2,0.2-0.2,0.3
	c-0.1,0,0-0.1,0-0.2c0-3.3,0-6.6,0-9.9c0-0.1,0-0.1,0-0.2C40.8,16.5,40.9,16.6,41,16.7z"/>
<path class="st45" d="M41.3,25.9c-0.1-0.1-0.1-0.1-0.1-0.2c0-2.7,0-5.3,0-8c0-0.1,0-0.3,0-0.4c0-0.1,0-0.1,0.1-0.2
	c0.1,0.1,0.2,0.3,0.3,0.5c0,0.1,0,0.2,0,0.3c0,2.4,0,4.9,0,7.3c0,0.1,0,0.2,0,0.3C41.5,25.6,41.4,25.7,41.3,25.9z"/>
<path class="st61" d="M26.5,0.9c0,0.2,0,0.3,0,0.5c0,1.2,0,2.4,0,3.6c0,0,0,0,0,0c-0.2-0.1-0.3-0.2-0.5-0.3c0,0,0-0.1,0-0.1
	c0-1.2,0-2.3,0-3.5c0-0.1,0-0.3,0.1-0.4C26.2,0.7,26.4,0.8,26.5,0.9z"/>
<path class="st35" d="M26,0.7c-0.1,1.3,0,2.5,0,3.8c0,0.1,0,0.1,0,0.2c0,0-0.1,0-0.1,0c-0.1-0.1-0.3-0.2-0.4-0.2
	c0,0-0.1-0.1-0.1-0.1c0-0.1,0-0.2,0-0.4c0-1,0-2.1,0-3.1c0-0.1,0-0.1,0-0.2c0-0.1,0-0.1,0.1-0.1C25.7,0.6,25.9,0.6,26,0.7z"/>
<path class="st62" d="M38.9,14.6c0.1,0.1,0.2,0.1,0.3,0.2c0,0,0,0.1,0,0.1c0,1.8,0,3.7,0,5.5c0,0.1,0,0.2,0.1,0.3
	c0,0.1,0.1,0.2,0.1,0.2c0,0.1-0.1,0.1-0.2,0.1c-0.3,0-0.6,0-0.9,0c-0.1-0.2-0.1-0.4-0.1-0.6c0.1-0.1,0.2,0,0.3,0c0.1,0,0.2,0,0.3,0
	c0.2,0,0.2,0,0.1-0.2c0-0.1-0.1-0.1-0.1-0.2c0-0.1,0-0.2,0-0.4c0-1.6,0-3.2,0-4.8C38.8,14.8,38.8,14.7,38.9,14.6z"/>
<path class="st63" d="M41.5,25.4c-0.1,0-0.1-0.1-0.1-0.2c0-2.5,0-5,0-7.5c0,0,0-0.1,0-0.1c0,0,0-0.1,0.1-0.1
	c0.1,0.2,0.2,0.4,0.3,0.6c0,0.1,0,0.2,0,0.3c0,2,0,4.1,0,6.1c0,0.1,0,0.2,0,0.3C41.7,25.1,41.6,25.2,41.5,25.4z"/>
<path class="st38" d="M25.5,0.5c-0.1,0-0.1,0.1-0.1,0.2c0,1.1,0,2.2,0,3.3c0,0.1,0,0.2-0.1,0.3c-0.2,0-0.5-0.2-0.5-0.3
	c0-1.1,0-2.2,0-3.3c0-0.1,0-0.1,0-0.2c0-0.1,0-0.1,0.1-0.1C25.2,0.4,25.4,0.5,25.5,0.5z"/>
<path class="st64" d="M25.1,0.4c-0.1,0-0.1,0.1-0.1,0.2c0,1.1,0,2.2,0,3.3c0,0.1,0,0.1,0,0.2c-0.2,0-0.5-0.1-0.5-0.3
	c0-0.2,0-0.4,0-0.6c0-0.9,0-1.7,0-2.6c0-0.1,0-0.2,0.1-0.3C24.7,0.3,24.9,0.3,25.1,0.4z"/>
<path class="st65" d="M36.4,13.3c0.1,0,0.3,0.1,0.4,0.1c0,0.1,0,0.1,0,0.2c0,1.3,0,2.6,0,3.8c0,0.1,0,0.3,0,0.4c0,0.1-0.1,0.1-0.2,0
	c-0.1,0-0.2-0.1-0.3-0.1c0,0-0.1,0-0.1-0.1c0,0,0-0.1,0-0.1c0.1,0,0.1-0.1,0.1-0.2c0-1.2,0-2.5,0-3.7c0-0.1,0-0.1,0-0.2
	C36.3,13.4,36.3,13.3,36.4,13.3z"/>
<path class="st50" d="M42.5,21.1c0,0.2,0,0.5,0,0.7c0,0.8-0.1,1.5-0.4,2.3c0,0,0,0,0,0.1c-0.1,0-0.1-0.1-0.1-0.1c0-0.1,0-0.2,0-0.3
	c0-1.5,0-3,0-4.5c0-0.1,0-0.2,0-0.3c0,0,0-0.1,0.1-0.1c0.2,0.5,0.3,0.9,0.3,1.4C42.4,20.5,42.5,20.8,42.5,21.1z"/>
<path class="st66" d="M40,15.5c-0.1,0-0.1,0.1-0.1,0.2c0,1.9,0,3.7,0,5.6c0,0.4,0,0.8,0,1.2c0,0.1,0,0.2,0,0.3
	c-0.1,0-0.1-0.1-0.1-0.1c0-0.1,0-0.2-0.1-0.3c0-0.2-0.1-0.3-0.1-0.5c0-0.1,0-0.1,0-0.2c0-0.1,0-0.3,0-0.4c0-1.9,0-3.8,0-5.8
	c0-0.1,0-0.2,0.1-0.3C39.8,15.3,39.9,15.4,40,15.5z"/>
<path class="st67" d="M24.5,0.3c-0.1,0-0.1,0.1-0.1,0.2c0,1.1,0,2.2,0,3.4c0,0-0.1,0-0.1,0c-0.1-0.1-0.3-0.1-0.4-0.1
	c-0.1,0-0.1-0.1-0.1-0.1c0-0.1,0-0.2,0-0.3c0-0.9,0-1.8,0-2.8c0-0.1,0-0.1,0-0.2c0-0.1,0-0.1,0.1-0.1C24.2,0.2,24.3,0.2,24.5,0.3z"
	/>
<path class="st68" d="M24,0.2c-0.1,0-0.1,0.1-0.1,0.2c0,1,0,2,0,3c0,0.1,0,0.2-0.1,0.2c-0.2,0-0.3,0-0.5-0.1c0-1.1,0-2.1,0-3.2
	c0-0.1,0-0.2,0.1-0.2C23.7,0.1,23.8,0.1,24,0.2z"/>
<path class="st58" d="M39.3,21c-0.2-0.3-0.2-0.7-0.2-1c0-1.6,0-3.1,0-4.7c0-0.2,0-0.3,0-0.5c0.1,0.1,0.2,0.1,0.3,0.3
	c0,0.3,0,0.5,0,0.8c0,1.7,0,3.3,0,5c0,0.1,0,0.2,0,0.3C39.3,21.2,39.3,21,39.3,21z"/>
<path class="st33" d="M33.8,14.9c0.1-0.4,0.1-0.7,0.2-1.1c0-0.3,0.1-0.5,0.1-0.8c0.1,0.1,0.2,0,0.3,0c0,0.1,0,0.1,0,0.2
	c0,1.2,0,2.3,0,3.5c0,0.1,0,0.2-0.1,0.3c-0.2,0.1-0.3,0-0.5,0c-0.1-0.1,0-0.2,0-0.3C33.8,16.1,33.8,15.5,33.8,14.9
	C33.8,14.9,33.8,14.9,33.8,14.9z"/>
<path class="st69" d="M34.3,17c0-0.1,0-0.2,0-0.3c0-1.2,0-2.4,0-3.5c0-0.1,0-0.1,0-0.2c0.2,0,0.3,0,0.5,0c0,0.1,0,0.3,0,0.4
	c0,1.2,0,2.4,0,3.6c0,0,0,0.1,0,0.1c0,0,0,0,0,0C34.6,17.1,34.4,17.1,34.3,17z"/>
<path class="st23" d="M35.7,13.2c0.1,0,0.3,0,0.4,0.1c0,1.4,0,2.8,0,4.2c0,0,0,0.1,0,0.1c0,0,0,0.1,0,0.1c-0.2-0.1-0.4-0.1-0.4-0.3
	c0-1.3,0-2.6,0-3.8c0-0.1,0-0.1,0-0.2C35.6,13.2,35.6,13.2,35.7,13.2z"/>
<path class="st59" d="M39.4,21.1c0.1-0.1,0-0.1,0-0.2c0-1.9,0-3.8,0-5.7c0-0.1,0-0.1,0.1-0.2c0.1,0.1,0.2,0.1,0.2,0.2
	c0,0.1,0,0.1,0,0.2c0,2,0,4,0,6c0,0.1,0,0.2-0.1,0.3c-0.1,0-0.1-0.1-0.1-0.1c-0.1-0.1-0.1-0.2-0.1-0.3
	C39.4,21.2,39.4,21.2,39.4,21.1z"/>
<path class="st70" d="M42,18.8c0,0.1-0.1,0.2-0.1,0.3c0,1.6,0,3.1,0,4.7c0,0.1,0,0.2,0.1,0.3c-0.1,0.2-0.2,0.5-0.3,0.7
	c-0.1,0-0.1-0.1-0.1-0.2c0-2.1,0-4.3,0-6.4c0-0.1,0-0.1,0.1-0.2C41.9,18.4,42,18.6,42,18.8z"/>
<path class="st39" d="M36,17.6c0-0.1,0-0.1,0-0.2c0-1.3,0-2.6,0-3.9c0-0.1,0-0.2,0.1-0.2c0.1,0,0.2,0.1,0.4,0.1
	c-0.1,0-0.1,0.1-0.1,0.2c0,1.3,0,2.7,0,4c0,0.1,0,0.1,0,0.2c-0.1,0-0.1,0-0.2,0C36.1,17.7,36.1,17.7,36,17.6z"/>
<path class="st71" d="M38.2,14.1c0.1,0,0.2,0.1,0.3,0.2c0,0.1,0,0.1,0,0.2c0,1.5,0,3.1,0,4.6c0,0.1,0,0.2-0.1,0.3c0,0-0.1,0-0.1,0
	c-0.1-0.1-0.2-0.2-0.2-0.4c0-1.5,0-3.1,0-4.6c0-0.1,0-0.1,0-0.2C38.1,14.2,38.1,14.1,38.2,14.1z"/>
<path class="st72" d="M36.8,18c0.1-1.4,0-2.9,0-4.3c0-0.1,0-0.1,0-0.2c0.1,0.1,0.2,0.1,0.3,0.1c0,1.4,0,2.8,0,4.2
	c0,0.1,0,0.2-0.1,0.3C36.9,18.2,36.8,18.1,36.8,18z"/>
<path class="st73" d="M38.3,19.4c0.1-0.1,0.1-0.2,0.1-0.3c0-1.6,0-3.1,0-4.7c0-0.1,0-0.1,0-0.2c0.1,0.1,0.2,0.1,0.3,0.2
	c0,0.1,0,0.1,0,0.2c0,1.6,0,3.2,0,4.8c0,0.1,0,0.2-0.1,0.3c0,0-0.1,0-0.1,0C38.4,19.6,38.3,19.5,38.3,19.4z"/>
<path class="st74" d="M35.7,13.2c-0.1,0.1,0,0.1,0,0.2c0,1.3,0,2.5,0,3.8c0,0.1,0,0.2,0,0.2c-0.1,0-0.3,0-0.3-0.2c0-0.1,0-0.1,0-0.2
	c0-1.2,0-2.4,0-3.6c0-0.1,0-0.2,0.1-0.3C35.4,13.1,35.5,13.1,35.7,13.2z"/>
<path class="st75" d="M34.7,17.1c0,0,0-0.1,0-0.2c0-1.2,0-2.5,0-3.7c0-0.1,0-0.1,0.1-0.2c0.1,0,0.2,0,0.3,0c0,0.1,0,0.1,0,0.2
	c0,1.2,0,2.4,0,3.6c0,0.1,0,0.2,0,0.3C34.9,17.2,34.8,17.2,34.7,17.1z"/>
<path class="st2" d="M37.7,13.8c0.1,0,0.2,0.1,0.3,0.1c0,0.1,0,0.2,0,0.3c0,1.4,0,2.7,0,4.1c0,0.1,0,0.3-0.1,0.4
	c-0.1,0-0.3-0.1-0.3-0.2c0-0.1,0-0.2,0-0.3c0-1.4,0-2.7,0-4.1c0-0.1,0-0.1,0-0.2C37.6,13.9,37.6,13.8,37.7,13.8z"/>
<path class="st76" d="M38.6,19.7c0.1-0.1,0.1-0.2,0.1-0.2c0-1.6,0-3.3,0-4.9c0-0.1,0-0.1,0-0.2c0.1,0,0.2,0.1,0.2,0.2
	c0,0.1,0,0.1,0,0.2c0,1.7,0,3.4,0,5c0,0.1,0,0.2,0,0.3c-0.1,0-0.1-0.1-0.2-0.2C38.6,19.9,38.5,19.8,38.6,19.7z"/>
<path class="st77" d="M37.7,13.8c-0.1,0.1,0,0.1,0,0.2c0,1.4,0,2.9,0,4.3c0,0.1,0,0.2-0.1,0.2c-0.2,0-0.3-0.1-0.3-0.3
	c0-0.1,0-0.2,0-0.3c0-1.3,0-2.7,0-4c0-0.1,0-0.2,0.1-0.3C37.5,13.7,37.6,13.8,37.7,13.8z"/>
<path class="st78" d="M37.4,13.7c-0.1,0.1,0,0.1,0,0.2c0,1.4,0,2.8,0,4.3c0,0.1,0,0.2-0.1,0.2c-0.1,0-0.2-0.1-0.3-0.2
	c0.1-0.1,0.1-0.2,0.1-0.2c0-1.4,0-2.8,0-4.1c0-0.1,0-0.1,0.1-0.2C37.3,13.6,37.3,13.7,37.4,13.7z"/>
<path class="st68" d="M37.8,18.8c0-0.1,0.1-0.2,0.1-0.4c0-1.4,0-2.9,0-4.3c0-0.1,0-0.1,0-0.2c0.1,0.1,0.2,0.1,0.2,0.1
	c-0.1,0-0.1,0.1-0.1,0.2c0,1.5,0,3.1,0,4.6c0,0.1,0,0.1,0,0.2c0,0,0,0,0,0C37.9,19,37.8,19,37.8,18.8z"/>
<path class="st79" d="M35,17.1c0-0.1,0-0.1,0-0.2c0-1.2,0-2.5,0-3.7c0-0.1,0-0.1,0-0.2c0.1,0,0.2,0,0.2,0c0,1.4,0,2.8,0,4.1
	C35.2,17.3,35.1,17.2,35,17.1z"/>
<path class="st26" d="M39.9,26.2c0.1,0.4,0,0.8,0,1.2c0,0.1,0,0.1,0.1,0.2c-0.2,0.3-0.5,0.5-0.8,0.7c0,0,0,0,0-0.1
	c0-0.1,0.1-0.2,0.1-0.2c0.1-0.1,0.1-0.2,0.1-0.3c0.1-0.1,0.1-0.2,0.1-0.3c0,0,0,0,0-0.1c0,0,0-0.1,0-0.1c0-0.1,0.1-0.1,0.1-0.2
	c0-0.1,0.1-0.1,0.1-0.2c0-0.1,0-0.1,0.1-0.2c-0.1-0.1,0-0.2,0-0.3C39.8,26.3,39.8,26.2,39.9,26.2z"/>
<path class="st80" d="M23.4,3.5c0.1,0.1,0.3,0.1,0.5,0.1c0.2,0.1,0.4,0.2,0.6,0.2C24.6,3.9,24.8,4,24.9,4c0.2,0.1,0.3,0.2,0.5,0.3
	c0.2,0.1,0.4,0.2,0.5,0.3c0.2,0.1,0.4,0.3,0.5,0.4c0.2,0.2,0.3,0.3,0.5,0.5c0.1,0.2,0.3,0.3,0.5,0.5c0.2,0.2,0.3,0.4,0.5,0.6
	c0.2,0.3,0.4,0.6,0.5,1c0,0,0,0.1,0.1,0.1c0,0.1,0.1,0.2,0.1,0.4c-0.1,0-0.1,0-0.1-0.1c-0.3-0.5-0.7-1-1.2-1.4
	c-0.9-0.8-1.9-1.4-3.1-1.8c-0.1,0-0.3,0-0.4-0.2c-0.2-0.3-0.4-0.6-0.5-0.9c0-0.1-0.1-0.1,0-0.2C23.3,3.4,23.4,3.4,23.4,3.5z"/>
<path class="st81" d="M23.3,3.4c0,0.2,0.2,0.3,0.2,0.5c0.1,0.2,0.3,0.4,0.4,0.7c0,0-0.1,0-0.1,0c-0.2,0-0.5-0.1-0.7-0.1
	c-0.2-0.3-0.3-0.5-0.5-0.8c-0.1-0.1-0.1-0.2-0.2-0.3c0-0.1-0.1-0.1,0-0.2c0.1,0,0.2,0,0.4,0.1C23,3.3,23.1,3.3,23.3,3.4z"/>
<path class="st46" d="M22.5,3.2c0,0.2,0.2,0.4,0.3,0.5C22.8,4,23,4.2,23.1,4.4c-0.2,0.1-0.4,0-0.5,0c-0.2-0.4-0.4-0.8-0.6-1.1
	c0-0.1-0.1-0.1,0.1-0.1c0.1,0,0.2,0,0.3,0C22.3,3.2,22.4,3.2,22.5,3.2z"/>
<path class="st45" d="M22,3.1c-0.1,0,0,0.1,0,0.1c0.2,0.3,0.3,0.6,0.5,0.9c0,0.1,0.1,0.1,0.1,0.2c-0.1,0.1-0.2,0-0.3,0
	c-0.3,0-0.4-0.2-0.5-0.4c-0.1-0.3-0.3-0.6-0.5-0.8c0-0.1-0.1-0.1,0-0.2c0,0,0.1,0,0.1,0C21.5,3,21.6,3,21.8,3
	C21.8,3.1,21.9,3,22,3.1z"/>
<path class="st48" d="M21.2,3c0,0.1,0,0.1,0,0.2c0.2,0.3,0.4,0.7,0.6,1c0.1,0.1,0.1,0.2,0.3,0.2c0,0,0.1,0,0.1,0
	c-0.1,0.1-0.1,0.1-0.2,0.1c-0.2,0-0.3,0-0.5,0c-0.1,0-0.2,0-0.3-0.2c-0.2-0.4-0.4-0.7-0.6-1.1c0-0.1-0.1-0.2-0.1-0.3
	c0.1,0,0.1,0,0.2,0C21,2.9,21.1,2.9,21.2,3z"/>
<path class="st16" d="M3.3,26.9c0-0.1,0.1-0.1,0.1-0.1c0.5,0,0.9,0,1.4,0c0.6,0,1.2,0,1.7,0c0.8,0,1.5,0,2.3,0c0.7,0,1.3,0,2,0
	c0.7,0,1.4,0,2.1,0c0.7,0,1.3,0,2,0c0.7,0,1.4,0,2.1,0c0.1,0,0.2,0.1,0.4,0c0,0-0.1,0-0.1,0c-1,0-1.9,0-2.9,0c-0.7,0-1.4,0-2.1,0
	c-0.7,0-1.4,0-2,0c-0.3,0-0.7,0-1,0c-1,0-2,0-3,0c-0.7,0-1.4,0-2,0c-0.2,0-0.4,0-0.6,0C3.5,26.8,3.4,26.8,3.3,26.9z"/>
<path class="st65" d="M7,25.1c0,0.1-0.1,0.1-0.1,0.1c-0.5,0-1,0-1.5,0c-0.7,0-1.3,0-2,0c-0.4,0-0.8,0-1.3,0c-0.1,0-0.1,0-0.2-0.1
	c-0.1-0.2-0.1-0.3-0.2-0.5c0.1-0.1,0.3-0.1,0.4,0c0.6,0.1,1.2,0,1.8,0c0.8,0,1.5,0,2.3,0c0.1,0,0.1,0,0.1,0
	C6.5,24.7,6.7,24.9,7,25.1C6.9,25,7,25.1,7,25.1z"/>
<path class="st6" d="M6.3,24.5c0,0-0.1,0-0.2,0c-0.5,0-1.1,0-1.6,0c-0.7,0-1.4,0-2.1,0c-0.2,0-0.4,0-0.7,0c-0.1-0.2-0.1-0.4-0.2-0.6
	c0.2-0.1,0.4-0.1,0.5,0c0.5,0,0.9,0,1.4,0c0.7,0,1.4,0.1,2.2,0c0.1,0,0.1,0,0.2,0.1C5.9,24.1,6.1,24.3,6.3,24.5
	C6.2,24.5,6.3,24.5,6.3,24.5z"/>
<path class="st78" d="M5.6,23.9c-0.1,0-0.1,0-0.2,0c-0.3,0-0.7,0-1,0c-0.7,0-1.4,0-2.2,0c-0.3,0-0.5,0-0.8,0c0-0.2-0.1-0.4-0.1-0.6
	c0.1-0.1,0.2-0.1,0.2-0.1c0.5,0,1,0,1.6,0c0.6,0,1.3,0,1.9,0c0,0,0.1,0,0.1,0.1C5.4,23.5,5.6,23.7,5.6,23.9z"/>
<path class="st82" d="M1.3,22.6c-0.1-0.2,0-0.5,0-0.7c0.1-0.1,0.2-0.1,0.2,0c0.5,0.1,1.1,0,1.6,0c0.3,0,0.7,0.1,1,0
	c0.1,0,0.2,0,0.2,0c0.1,0,0.1,0,0.1,0.1c0.1,0.2,0.2,0.4,0.2,0.5c0,0,0,0.1,0,0.1c-0.1,0.1-0.2,0-0.3,0c-0.4,0-0.9,0-1.3,0
	c-0.5,0-1,0-1.4,0c-0.1,0-0.1,0-0.2,0C1.5,22.7,1.4,22.7,1.3,22.6z"/>
<path class="st3" d="M1.3,22.6c0.4,0.1,0.7,0,1.1,0c0.7,0,1.5,0,2.2,0c0.1,0,0.1,0,0.2,0c0,0,0,0,0,0c0.1,0.2,0.3,0.4,0.4,0.6
	c-0.5,0-1.1,0-1.6,0c-0.7,0-1.5,0-2.2,0C1.4,23.1,1.3,22.8,1.3,22.6z"/>
<path class="st71" d="M4.5,21.9C4.4,22,4.4,22,4.5,21.9C4.1,22,3.9,22,3.7,22c-0.1,0-0.1,0-0.2,0c-0.4,0-0.7,0-1.1,0
	c-0.4,0-0.8,0-1.1,0c0-0.2,0-0.4,0-0.6c0.1,0,0.1,0,0.2,0c0.8,0,1.6,0.1,2.4,0c0.1,0,0.2,0,0.3,0c0,0,0.1,0,0.1,0
	C4.4,21.5,4.5,21.7,4.5,21.9z"/>
<path class="st83" d="M4.2,21.3c0,0.1-0.1,0.1-0.2,0.1c-0.9,0-1.8,0-2.7,0c0,0,0,0-0.1,0c0-0.2,0-0.4,0.1-0.6c0.1-0.1,0.1,0,0.2-0.1
	c0.3,0,0.7,0,1,0c0.4,0,0.8,0,1.2,0c0.1,0,0.2,0,0.2,0c0,0,0,0,0.1,0C4.2,20.9,4.3,21.1,4.2,21.3z"/>
<path class="st29" d="M1.5,20c0-0.2,0.1-0.4,0.2-0.6c0,0,0.1,0,0.2,0c0.6,0.1,1.3,0,1.9,0c0.1,0,0.2,0,0.3,0.1c0.1,0.1,0,0.2,0,0.3
	c0,0.1,0,0.2,0,0.3c0,0,0,0.1,0,0.1c-0.3,0.1-0.6,0-0.9,0c-0.4,0-0.9,0-1.3,0c0,0-0.1,0-0.1,0C1.6,20.1,1.5,20.1,1.5,20z"/>
<path class="st84" d="M1.5,20C1.5,20,1.5,20.1,1.5,20c0.1,0.1,0.1,0.1,0.2,0.1c0.8,0,1.6,0.1,2.4,0c0.1,0.2,0.1,0.4,0.1,0.6
	c-0.9,0-1.8,0-2.7,0C1.4,20.4,1.4,20.2,1.5,20z"/>
<path class="st85" d="M4,19.5c-0.1,0-0.2,0-0.3,0c-0.4,0-0.9,0-1.3,0c-0.3,0-0.5,0-0.8,0c0-0.2,0.1-0.4,0.2-0.6
	c0.1-0.1,0.2,0,0.2-0.1c0.6,0,1.2,0,1.8,0c0.1,0,0.1,0,0.2,0C4.1,19,4.1,19.2,4,19.5z"/>
<path class="st86" d="M4,18.8c-0.7,0-1.5-0.1-2.2,0c0-0.1,0.1-0.1,0.1-0.2C2,18.4,2,18.3,2.2,18.1c0.1,0,0.1,0,0.2,0
	c0.5,0,1.1,0,1.6,0c0.1,0,0.1,0,0.2,0c0,0,0,0.1,0,0.1C4.2,18.4,4.1,18.6,4,18.8C4.1,18.8,4.1,18.8,4,18.8z"/>
<path class="st37" d="M16.3,26.2c0.1,0,0.1,0,0.2,0c5.1,0,10.3,0,15.4,0c0.5,0,1,0,1.5,0c0.1,0,0.2,0,0.4,0c0.6,0,1.3,0,1.9,0
	c0.5,0,0.9,0,1.4,0c0.8,0,1.5,0,2.3,0c0.2,0,0.3,0,0.5,0c0,0.1,0,0.2-0.1,0.3c-0.1,0-0.1,0-0.2,0c-0.9,0-1.8,0-2.7,0
	c-0.7,0-1.3,0-2,0c-0.7,0-1.4,0-2.1,0c-0.6,0-1.2,0-1.8,0c-0.8,0-1.5,0-2.3,0c-0.7,0-1.3,0-2,0c-0.7,0-1.4,0-2.1,0c-0.7,0-1.3,0-2,0
	c-0.4,0-0.8,0-1.2,0c-1-0.1-2,0-2.9-0.1c-0.7,0-1.3,0-2,0C16.4,26.2,16.3,26.3,16.3,26.2z"/>
<path class="st23" d="M9.8,26.2c0.1,0,0.1,0,0.2,0C9.9,26.2,9.8,26.2,9.8,26.2z"/>
<path class="st53" d="M12.8,13.1c-0.2-0.1-0.4-0.1-0.6-0.2c-0.4-1-0.8-1.9-1.2-2.9c-0.1-0.3-0.3-0.6-0.4-1c-0.1-0.1,0-0.1,0.1-0.2
	c0.2,0,0.3,0,0.5,0c0.2,0.4,0.4,0.8,0.5,1.2c0.4,0.9,0.8,1.8,1.1,2.6C12.8,12.9,12.8,12.9,12.8,13.1z"/>
<path class="st70" d="M17.8,17.6c-0.4-0.2-0.8-0.5-0.9-0.9c-0.2-0.5-0.5-0.9-0.8-1.3c-0.2-0.6-0.5-1.2-0.7-1.8
	c-0.4-1-0.8-1.9-1.2-2.9c-0.2-0.4-0.3-0.8-0.5-1.2c0-0.1-0.1-0.2-0.1-0.3c0.2,0,0.3,0.1,0.5,0.1c0.1,0.1,0.3,0.1,0.4,0.2
	c0.4,0.9,0.7,1.7,1.1,2.6c0.6,1.3,1.1,2.6,1.7,3.9c0.2,0.4,0.4,0.9,0.6,1.3C17.8,17.5,17.9,17.5,17.8,17.6z"/>
<path class="st81" d="M17.8,17.6c0-0.2-0.1-0.4-0.2-0.6c-0.5-1.2-1-2.4-1.6-3.6c-0.5-1.1-0.9-2.2-1.4-3.3c-0.1-0.1-0.1-0.3-0.2-0.4
	c0,0-0.1-0.1,0-0.2c0.1,0,0.2,0.1,0.3,0.1c0,0.1,0.1,0.1,0.2,0.1c0.2,0.3,0.3,0.6,0.4,0.9c0.6,1.5,1.3,2.9,1.9,4.4
	c0.4,0.8,0.7,1.7,1.1,2.5c0,0.1,0.1,0.1,0,0.2C18.2,17.7,18,17.7,17.8,17.6z"/>
<path class="st18" d="M15.1,8.7c-0.1,0.3-0.2,0.6-0.4,0.8c-0.3-0.4-0.5-0.9-0.8-1.3c-0.3-0.6-0.7-1.2-1-1.8
	c-0.2-0.4-0.5-0.8-0.7-1.2c0.2-0.2,0.3-0.3,0.5-0.4c0.1,0,0.1,0.1,0.2,0.2c0.4,0.8,0.9,1.5,1.3,2.3C14.6,7.7,14.8,8.2,15.1,8.7z"/>
<path class="st87" d="M6.5,14.2c-0.5,0.4-0.9,0.8-1.2,1.3c-0.1,0-0.2,0.1-0.3,0c-0.2,0-0.4,0-0.5,0c-0.1,0-0.2,0-0.2-0.1
	c0-0.1,0.1-0.1,0.2-0.2c0.1,0,0.2-0.1,0.2-0.2C4.8,15.1,4.8,15,4.9,15c0.2-0.1,0.4-0.2,0.5-0.3c0.1-0.1,0.3-0.1,0.4-0.2
	c0.2-0.1,0.3-0.1,0.5-0.2C6.4,14.2,6.5,14.2,6.5,14.2z"/>
<path class="st88" d="M13.6,9.3c0.1,0.5,0.4,0.9,0.5,1.3c0.3,0.7,0.6,1.4,0.9,2.1c0.2,0.6,0.5,1.1,0.7,1.7c0.1,0.3,0.3,0.6,0.4,0.9
	c0,0,0.1,0.1,0,0.1c-0.4-0.5-0.9-1-1.4-1.4c-0.3-0.6-0.5-1.2-0.8-1.7c-0.4-1-0.9-2-1.3-2.9c0-0.1-0.1-0.1-0.1-0.2c0,0,0-0.1,0.1-0.1
	c0.1,0,0.3,0,0.4,0.1C13.3,9.2,13.4,9.3,13.6,9.3z"/>
<path class="st89" d="M4.3,17.6c-0.1,0.2-0.1,0.4-0.2,0.6c-0.6,0-1.2-0.1-1.8,0c0,0-0.1,0-0.1,0c0-0.2,0.2-0.3,0.2-0.5
	c0-0.1,0.1-0.1,0.1-0.2c0.2,0,0.4,0,0.6,0c0.3,0,0.6,0,0.9,0C4.1,17.5,4.2,17.5,4.3,17.6z"/>
<path class="st90" d="M12.7,9.1c-0.1,0.1,0,0.1,0,0.2c0.5,1.1,1,2.2,1.4,3.3c0.2,0.4,0.3,0.8,0.5,1.2c0,0.1,0.1,0.1,0.1,0.2
	c-0.2-0.2-0.5-0.3-0.7-0.5c-0.1-0.1-0.1-0.2-0.1-0.3c-0.6-1.3-1.2-2.7-1.7-4C12.1,9.2,12,9.1,12,9c0.1,0,0.1,0,0.2,0
	C12.4,9.1,12.5,9.1,12.7,9.1z"/>
<path class="st44" d="M12,9c0.2,0.4,0.4,0.8,0.5,1.3c0.3,0.8,0.7,1.6,1,2.4c0.1,0.3,0.3,0.6,0.4,0.9c-0.2-0.1-0.4-0.2-0.6-0.3
	c-0.2-0.5-0.4-1-0.6-1.5c-0.4-0.9-0.8-1.8-1.1-2.6c0-0.1-0.1-0.1,0-0.2C11.7,9,11.9,9,12,9z"/>
<path class="st57" d="M11.5,9c0.1,0.3,0.2,0.5,0.3,0.8c0.3,0.7,0.6,1.4,0.9,2.2c0.2,0.4,0.3,0.7,0.5,1.1c0,0.1,0.1,0.1,0,0.2
	c-0.2-0.1-0.4-0.1-0.6-0.2c0-0.3-0.2-0.5-0.3-0.7c-0.5-1.1-0.9-2.2-1.4-3.3c0,0,0-0.1,0-0.1c0,0,0,0,0,0c0.1,0,0.2,0,0.3,0
	C11.4,9,11.5,9,11.5,9z"/>
<path class="st53" d="M11.4,9c-0.1,0-0.2,0-0.3,0C11.2,8.9,11.3,8.9,11.4,9z"/>
<path class="st91" d="M4.3,17.6c-0.5,0-1.1,0-1.6,0c0,0-0.1,0-0.1,0c0.1-0.2,0.2-0.3,0.3-0.5c0.1-0.1,0.1-0.2,0.2-0.2
	c0.4,0,0.8,0,1.2,0c0.1,0,0.2,0,0.3,0.1C4.4,17.1,4.4,17.3,4.3,17.6z"/>
<path class="st92" d="M4.5,16.9c-0.4-0.1-0.9,0-1.3,0c-0.1,0-0.1,0-0.2-0.1c0.1-0.1,0.2-0.2,0.3-0.4c0.1-0.1,0.2-0.2,0.3-0.4
	c0,0,0,0,0,0c0.3,0,0.7,0,1,0c0.1,0,0.2,0,0.2,0.1C4.8,16.4,4.6,16.6,4.5,16.9z"/>
<path class="st45" d="M4.9,16.2c-0.4,0-0.8-0.1-1.1,0c-0.1,0-0.1,0-0.1-0.1c0.1-0.2,0.3-0.3,0.4-0.4c0.1-0.1,0.2-0.2,0.3-0.2
	c0.1,0.1,0.1,0.1,0.2,0.1c0.3,0,0.5,0,0.8,0C5.2,15.7,5,16,4.9,16.2z"/>
<path class="st93" d="M20.3,4.6c-0.2,0.1-0.4,0.1-0.6,0.2c-0.1,0-0.1-0.1-0.2-0.1c-0.3-0.4-0.5-0.9-0.7-1.3c0-0.1-0.1-0.2-0.1-0.3
	c0-0.1-0.1-0.1,0-0.2c0.2,0,0.3,0,0.5,0c0.2,0,0.4,0,0.6,0c0.1,0,0.2,0,0.2,0c0,0,0,0,0,0c-0.2,0-0.3,0-0.5,0c-0.2,0-0.2,0-0.1,0.2
	C19.7,3.6,20,4.1,20.3,4.6z"/>
<path class="st29" d="M18.6,2.9c0.1,0.2,0.2,0.4,0.3,0.6c0.2,0.4,0.4,0.8,0.7,1.2c0,0,0,0.1,0.1,0.1c-0.2,0.1-0.4,0.1-0.5,0.2
	c-0.1,0-0.1-0.1-0.2-0.2c-0.3-0.5-0.6-1-0.9-1.5c0-0.1-0.1-0.1-0.1-0.3c0.1,0,0.1,0,0.2,0C18.4,2.9,18.5,2.9,18.6,2.9z"/>
<path class="st83" d="M18.8,5.1c-0.1,0.1-0.3,0.2-0.5,0.2c-0.1-0.2-0.2-0.4-0.4-0.6c-0.3-0.5-0.5-0.9-0.8-1.4c0-0.1-0.1-0.2,0-0.3
	c0.1,0,0.3,0,0.4-0.1c0,0,0,0,0,0c0.1,0.3,0.2,0.5,0.4,0.7C18.3,4.2,18.5,4.6,18.8,5.1z"/>
<path class="st35" d="M18.8,5.1c-0.2,0-0.2-0.2-0.2-0.3c-0.3-0.5-0.6-1.1-0.9-1.6c0-0.1,0-0.1,0-0.2c0.1,0,0.3-0.1,0.4,0
	c0.3,0.6,0.7,1.2,1,1.8c0,0.1,0.1,0.1,0.1,0.2C19,5,18.9,5,18.8,5.1z"/>
<path class="st71" d="M18.2,5.4c-0.1,0.1-0.2,0.1-0.3,0.2c-0.1,0-0.1-0.1-0.2-0.1c-0.4-0.6-0.7-1.3-1.1-1.9
	c-0.1-0.1-0.2-0.2-0.2-0.4c0.1,0,0.2,0,0.3-0.1c0,0,0,0,0.1,0c0.2,0.2,0.3,0.5,0.4,0.7c0.3,0.4,0.5,0.9,0.7,1.3
	C18.1,5.2,18.2,5.3,18.2,5.4z"/>
<path class="st71" d="M18.2,5.4c-0.1,0-0.1,0-0.1-0.1c-0.4-0.7-0.8-1.4-1.2-2.2c0,0,0,0,0,0c0.1,0,0.2,0,0.3-0.1
	c-0.1,0.1,0,0.2,0.1,0.3c0.3,0.6,0.7,1.2,1,1.8c0,0.1,0,0.1,0.1,0.2C18.3,5.4,18.3,5.3,18.2,5.4z"/>
<path class="st54" d="M21.5,4.4c-0.2,0-0.4,0-0.6,0.1c-0.1,0-0.1,0-0.2-0.1C20.5,3.9,20.3,3.5,20,3c0,0-0.1-0.1,0-0.2c0,0,0,0,0,0
	c0.1,0,0.2,0,0.3,0c0.1,0,0.2,0,0.3,0c0.3,0.5,0.5,0.9,0.8,1.4C21.4,4.4,21.5,4.4,21.5,4.4z"/>
<path class="st2" d="M16.5,3.2c0.4,0.8,0.9,1.5,1.3,2.3c0,0,0.1,0.1,0.1,0.1c-0.2,0.2-0.4,0.3-0.6,0.5c-0.2-0.2-0.3-0.5-0.5-0.8
	c-0.3-0.5-0.6-1.1-0.9-1.7c0-0.1-0.1-0.1,0-0.2c0.1,0,0.1,0,0.2-0.1C16.2,3.3,16.4,3.2,16.5,3.2z"/>
<path class="st78" d="M15.8,3.4c0.1,0.3,0.2,0.5,0.4,0.7c0.3,0.5,0.6,1.1,0.9,1.6c0.1,0.1,0.1,0.2,0.2,0.3c-0.1,0.1-0.3,0.2-0.4,0.4
	c-0.1,0-0.1-0.1-0.1-0.1c-0.5-0.9-1-1.7-1.5-2.6c0-0.1-0.1-0.1,0-0.2c0,0,0,0,0,0C15.5,3.5,15.6,3.4,15.8,3.4z"/>
<path class="st65" d="M16.6,6.7c-0.2,0.2-0.3,0.3-0.5,0.5c-0.2-0.2-0.3-0.4-0.4-0.6c-0.5-0.8-0.9-1.6-1.4-2.4c0-0.1-0.1-0.2-0.1-0.3
	c0.1,0,0.2-0.1,0.2-0.1c0.1,0,0.2-0.1,0.4-0.1c0.2,0.2,0.3,0.5,0.5,0.8C15.7,5.2,16.1,5.9,16.6,6.7C16.6,6.6,16.6,6.6,16.6,6.7z"/>
<path class="st72" d="M16.6,6.7c-0.1-0.1-0.2-0.2-0.2-0.3c-0.5-0.8-0.9-1.6-1.4-2.4c0-0.1-0.1-0.1-0.1-0.2c0.1-0.1,0.3-0.1,0.4-0.2
	c0.1,0.3,0.3,0.6,0.5,0.9c0.3,0.5,0.6,1,0.9,1.6c0.1,0.1,0.2,0.3,0.2,0.4C16.8,6.5,16.7,6.6,16.6,6.7z"/>
<path class="st94" d="M14.3,3.9c0.1,0.3,0.3,0.5,0.4,0.8c0.3,0.6,0.6,1.1,0.9,1.6c0.2,0.3,0.3,0.6,0.5,0.9c-0.2,0.2-0.3,0.4-0.5,0.7
	c-0.1,0-0.2-0.1-0.2-0.2c-0.2-0.3-0.4-0.7-0.6-1c-0.4-0.7-0.8-1.4-1.2-2.1c0-0.1-0.1-0.1-0.1-0.2c0,0,0.1-0.1,0.1-0.1
	C13.9,4.1,14.1,4,14.3,3.9z"/>
<path class="st95" d="M13.6,4.3C14,5,14.4,5.7,14.8,6.4c0.2,0.4,0.4,0.8,0.6,1.1c0.1,0.1,0.1,0.2,0.2,0.3c-0.2,0.3-0.3,0.6-0.5,0.8
	c-0.1,0-0.1,0-0.1-0.1c-0.4-0.6-0.7-1.3-1.1-1.9c-0.3-0.6-0.7-1.2-1-1.8c0-0.1-0.1-0.1-0.1-0.1C13,4.6,13.3,4.4,13.6,4.3z"/>
<path class="st52" d="M29.7,19.7c-0.2,0-0.4-0.1-0.6-0.3c0,0,0-0.1,0-0.1c0-1.1,0-2.3,0-3.4c0-0.1,0-0.2,0-0.4
	c0.2-0.5,0.4-0.9,0.5-1.4c0-0.1,0.1-0.3,0.1-0.4c0.1,1.9,0,3.9,0,5.8C29.7,19.6,29.6,19.7,29.7,19.7z"/>
<path class="st96" d="M33.8,16.9c-0.3,0-0.5,0-0.8,0c0,0,0,0,0,0c0.2-0.4,0.3-0.7,0.4-1.1c0.1-0.3,0.2-0.6,0.3-0.9
	c0.1,0,0.1,0.1,0.1,0.2C33.8,15.7,33.8,16.3,33.8,16.9z"/>
<path class="st32" d="M35.8,25.7c0.3-0.2,0.7-0.4,1-0.7c0.3,0,0.6,0,0.9,0c0.7,0,1.3,0,2,0c0.1,0,0.2,0,0.3,0.1c0,0.2,0,0.5-0.1,0.7
	c-0.1,0.1-0.1,0.1-0.2,0.1c-0.9,0-1.9,0-2.8,0c-0.3,0-0.6,0-0.8,0C36,25.8,35.9,25.8,35.8,25.7z"/>
<path class="st39" d="M35.8,25.7c0,0.1,0.1,0.1,0.2,0.1c0.8,0,1.7,0,2.5,0c0.5,0,0.9,0,1.4,0c0,0.1,0,0.2,0,0.3c0,0.1,0,0.1-0.1,0.2
	c-0.1,0-0.1,0-0.2,0c-0.3-0.1-0.6,0-0.8,0c-1.1,0-2.1,0-3.2,0c-0.7,0-1.3,0-2,0c-0.1,0-0.1,0-0.2-0.1c0.2,0,0.3,0,0.5,0
	c0.1,0,0.2,0,0.4,0c0.1,0,0.1,0,0.2,0c0,0,0.1,0,0.2,0C35,26.1,35.4,25.9,35.8,25.7z"/>
<path class="st72" d="M40,25.1c-0.3-0.1-0.7,0-1,0c-0.7,0-1.4-0.1-2.1,0c0,0-0.1,0-0.1,0c0.2-0.2,0.4-0.5,0.6-0.7
	c0.8,0.1,1.6,0,2.4,0c0.1,0,0.2,0,0.2,0.1c0,0.1,0,0.2,0,0.3c0,0.1,0,0.2,0,0.3C40,25,40,25.1,40,25.1z"/>
<path class="st4" d="M40,24.4c-0.5,0-1,0-1.4,0c-0.3,0-0.7,0-1,0c-0.1,0-0.1,0-0.2-0.1c0.1-0.2,0.2-0.3,0.3-0.5c0.3,0,0.6,0,0.9,0
	c0.4,0,0.7,0,1.1,0c0.1,0,0.2,0,0.2,0c0.1,0.1,0,0.2,0.1,0.2C40,24.2,40,24.3,40,24.4z"/>
<path class="st3" d="M40,23.8c-0.3,0-0.7,0-1,0c-0.4,0-0.7,0-1.1,0c0,0-0.1,0-0.1,0c0.1-0.2,0.2-0.4,0.3-0.6c0.1,0,0.1,0,0.2,0
	c0.5,0,1,0,1.5,0c0.1,0,0.2,0,0.2,0.1C40,23.4,40,23.6,40,23.8C40,23.8,40,23.8,40,23.8z"/>
<path class="st82" d="M40,23.2c-0.1,0-0.1,0-0.2,0c-0.6,0-1.2,0-1.7,0c0.1-0.2,0.1-0.5,0.2-0.7c0,0,0.1,0,0.1,0c0.3,0,0.5,0,0.8,0
	c0.2,0,0.4,0,0.6,0c0,0.1,0,0.3,0.1,0.4C39.9,22.9,40,23.1,40,23.2z"/>
<path class="st97" d="M40,23.8C40,23.8,40,23.8,40,23.8c0.1,0,0,0.1,0,0.2C40,24,40,23.9,40,23.8z"/>
<path class="st98" d="M40,25c0-0.1,0-0.2,0-0.3C40,24.8,40.1,24.9,40,25z"/>
<path class="st76" d="M38.3,21.6c0-0.2,0-0.4,0-0.6c0.2-0.1,0.5,0,0.7,0c0.1,0,0.2,0,0.3,0c0,0,0.1,0.1,0.1,0.1
	c0.1,0.2,0.1,0.3,0.2,0.5c0,0.1-0.1,0.1-0.2,0.1c-0.3,0-0.6,0-0.9,0C38.4,21.6,38.4,21.6,38.3,21.6z"/>
<path class="st58" d="M38.2,20.5c-0.1-0.2-0.1-0.4-0.2-0.5c0,0,0-0.1,0.1-0.1c0.2,0,0.4-0.1,0.6,0c0.1,0,0.1,0.2,0.2,0.2
	c0,0.1,0.1,0.2,0.1,0.3c0.1,0.1,0,0.1-0.1,0.1c-0.1,0-0.3,0-0.4,0C38.4,20.5,38.3,20.5,38.2,20.5z"/>
<path class="st99" d="M37.6,19.1c-0.3-0.5-0.8-1-1.2-1.3c0.1,0,0.1,0.1,0.2,0.1c0.1,0,0.1,0.1,0.2,0.1c0.1,0.1,0.2,0.2,0.3,0.2
	c0.1,0.1,0.2,0.1,0.3,0.2c0.1,0.1,0.2,0.2,0.3,0.2c0.1,0.1,0.2,0.2,0.3,0.2c0,0.1,0.1,0.2,0.2,0.3c0,0.1-0.1,0.1-0.2,0.1
	C37.8,19.2,37.7,19.2,37.6,19.1z"/>
<path class="st28" d="M38.3,21.6c0.4,0,0.7,0,1.1,0c0.1,0,0.1,0,0.2,0c0,0,0,0.1,0.1,0.1c0.1,0.2,0.1,0.4,0.2,0.6
	c0,0.1-0.1,0.1-0.2,0.1c-0.5,0-0.9,0-1.4,0C38.3,22.2,38.3,21.9,38.3,21.6z"/>
<path class="st93" d="M37.6,19.1c0.1,0,0.2,0,0.3,0c0.1,0,0.1,0,0.1-0.1c0,0,0,0,0,0c0.1,0.1,0.2,0.2,0.3,0.3
	c0.1,0.1,0.1,0.2,0.3,0.3c0,0.1,0.1,0.1,0.1,0.2c-0.2,0-0.5,0-0.7,0C37.9,19.7,37.8,19.4,37.6,19.1z"/>
<path class="st84" d="M4,19.7c0,0.1,0,0.2,0,0.3C4,19.9,4,19.8,4,19.7z"/>
<path class="st80" d="M15.5,10.1c0.9,0.4,1.7,1,2.4,1.7c0.9,0.8,1.6,1.7,2.1,2.8c0,0.1,0.1,0.1,0.1,0.2c0.8,1.1,0.2,2.7-1.1,3
	c-0.1,0-0.1,0-0.2,0c-0.1,0-0.1-0.1-0.1-0.1c-0.3-0.7-0.6-1.5-1-2.2c-0.6-1.3-1.1-2.6-1.7-3.9c-0.2-0.4-0.4-0.8-0.5-1.2
	C15.5,10.2,15.4,10.1,15.5,10.1z"/>
<path class="st51" d="M15.5,10.1c0,0.2,0.2,0.5,0.3,0.7c0.4,1,0.8,1.9,1.3,2.9c0.3,0.7,0.6,1.4,0.9,2.1c0.3,0.6,0.5,1.3,0.8,1.9
	c0,0,0,0.1,0.1,0.1c-0.2,0-0.3,0-0.5,0c-0.3-0.6-0.5-1.2-0.8-1.9c-0.2-0.5-0.5-1.1-0.7-1.6c-0.3-0.7-0.6-1.4-0.9-2.1
	c-0.2-0.6-0.5-1.1-0.7-1.7c-0.1-0.2-0.2-0.5-0.3-0.7C15.1,9.9,15.3,9.9,15.5,10.1z"/>
<path class="st53" d="M29,15.6c0.1,0.1,0.1,0.2,0.1,0.3c0,1.1,0,2.2,0,3.3c0,0.1,0,0.2,0,0.3c-1-0.7-1.3-2.1-0.5-3.1
	C28.7,16.1,28.8,15.8,29,15.6z"/>
<path class="st100" d="M20,2.9c0.1,0.2,0.2,0.4,0.3,0.6c0.1,0.3,0.3,0.5,0.5,0.8c0,0.1,0.1,0.1,0.1,0.1c-0.2,0-0.5,0.1-0.7,0.1
	c-0.1-0.1-0.2-0.2-0.2-0.4c-0.2-0.4-0.4-0.8-0.7-1.1c0,0-0.1-0.1-0.1-0.1c0-0.1,0.1,0,0.2,0C19.7,2.9,19.8,2.9,20,2.9z"/>
<path class="st24" d="M34.2,26.2c-0.1,0.1-0.2,0-0.4,0C34,26.2,34.1,26.2,34.2,26.2z"/>
<path class="st24" d="M34.6,26.2c0,0-0.1,0-0.2,0C34.5,26.1,34.5,26.2,34.6,26.2z"/>
<g id="编组" transform="translate(48.689348, 2.308984)">
	<polygon id="Fill-1" class="st101" points="0.8,0.3 0.8,2.2 15,2.2 15.5,0.3 	"/>
	<g>
		<path id="Fill-2" class="st101" d="M15.6,14.7c0.5,1.1-0.2,2.3-1.4,2.3h-0.5l0,0c-0.1,0-0.1,0-0.2,0H0.7v-1.9l4.1-6.6H0V6.5h16.2
			l-0.8,1.9H8.3l-4.1,6.6h8.6L10.2,10h3L15.6,14.7z"/>
		<g id="Clip-5">
		</g>
		<defs>
			<filter id="Adobe_OpacityMaskFilter" filterUnits="userSpaceOnUse" x="17.7" y="0.3" width="16.7" height="16.7">
				<feColorMatrix  type="matrix" values="1 0 0 0 0  0 1 0 0 0  0 0 1 0 0  0 0 0 1 0"/>
			</filter>
		</defs>
		
			<mask maskUnits="userSpaceOnUse" x="17.7" y="0.3" width="16.7" height="16.7" id="mask-4_00000087396710634310018160000014647580056436163222_">
			<g class="st102">
				<polygon id="path-3_00000087397964831903352780000001374970824876570520_" class="st103" points="0,17 70,17 70,0 0,0 				"/>
			</g>
		</mask>
		<path id="Fill-4" class="st104" d="M28.1,17H31v-3.3h-2.9V17z M28.2,6.8l0-1h2.7l-0.8,1H28.2z M28.2,5.4l0-1h2.7l-0.8,1H28.2z
			 M26.1,10.6l3.1-1V9.4H23v0.3L26.1,10.6z M21.5,6.8v-1h2.7l-0.3,1H21.5z M21.6,5.4l0-1h2.6l-0.3,1H21.6z M18.1,1.9V0.3h15.8
			l-0.4,1.6h-5.9v0.5h6.5v3.3c0,0.6-0.5,1.1-1,1.1h-1.7V4h-3.8v2.9h-3V4h-4.2l-0.2-1.6h4.4V1.9H18.1z M18.1,6.9h2.8V2.5h-2.8V6.9z
			 M17.8,17l2.8-1.8c0.4-0.2,0.6-0.6,0.6-1.1v-0.5h2.9v0.9c0,0.6-0.3,1.1-0.8,1.4l-1.6,1H17.8z M24.5,7.2h3.2l0.2,0.5h6.5l-1.1,1.6
			h-1.1c0,0.7-0.4,1.3-1.1,1.5l-2,0.6l0.3,0.1h5.1l-1.2,1.6c0,0-3.9,0.1-4.6,0c-0.7-0.1-2.5-0.8-2.5-0.8l-1.6,0.5
			c-0.3,0.1-0.5,0.2-1,0.2c-0.5,0-0.5,0-0.9,0h-4.9v-1.5l4.5-0.1c0.3,0,0.7,0,1-0.1l-3.1-1V9.4h-2.2l0-1.6h6.7L24.5,7.2z"/>
		<defs>
			
				<filter id="Adobe_OpacityMaskFilter_00000163757171995651255960000012999079502684113290_" filterUnits="userSpaceOnUse" x="35.6" y="0.5" width="12" height="16.5">
				<feColorMatrix  type="matrix" values="1 0 0 0 0  0 1 0 0 0  0 0 1 0 0  0 0 0 1 0"/>
			</filter>
		</defs>
		
			<mask maskUnits="userSpaceOnUse" x="35.6" y="0.5" width="12" height="16.5" id="mask-4_00000057831238362913289830000005746483519535640481_">
			<g style="filter:url(#Adobe_OpacityMaskFilter_00000163757171995651255960000012999079502684113290_);">
				<polygon id="path-3_00000057854437204388242740000006712913604013429898_" class="st103" points="0,17 70,17 70,0 0,0 				"/>
			</g>
		</mask>
		<path id="Fill-6" class="st106" d="M35.8,7.7l-0.2,8.1h1.3l0.2-8.1H35.8z M40.4,4.7V2.8c0.6,0,1-0.1,1.3-0.3
			c0.3-0.2,0.5-0.6,0.6-1l0.2-0.9l-2.9,0c-0.1,0.2-0.2,0.3-0.5,0.3h-3.4v1.9h1.9v1.9h-1.8l0,1.9h1.8V17h2.8V6.7h1.2l1-1.9H40.4z
			 M45.6,6h-2.9l2,4.6h2.9L45.6,6z M45.7,0.6h-2.9l1.8,4.6h2.9L45.7,0.6z"/>
		<defs>
			
				<filter id="Adobe_OpacityMaskFilter_00000017476407123996536620000013026693695799364029_" filterUnits="userSpaceOnUse" x="40.9" y="0.5" width="12.3" height="16.5">
				<feColorMatrix  type="matrix" values="1 0 0 0 0  0 1 0 0 0  0 0 1 0 0  0 0 0 1 0"/>
			</filter>
		</defs>
		
			<mask maskUnits="userSpaceOnUse" x="40.9" y="0.5" width="12.3" height="16.5" id="mask-4_00000162344971943637301700000002773400567389486260_">
			<g style="filter:url(#Adobe_OpacityMaskFilter_00000017476407123996536620000013026693695799364029_);">
				<polygon id="path-3_00000161607676517435728800000001997160071893843373_" class="st103" points="0,17 70,17 70,0 0,0 				"/>
			</g>
		</mask>
		<polygon id="Fill-7" class="st108" points="53.2,11.3 52,13.3 51.1,13.3 51.1,17 48.1,17 48.2,13.3 43.5,13.3 41.8,13.3 40.9,7.7 
			42.2,7.7 43,11.4 48.1,11.4 48.1,0.5 51.1,0.5 51.1,11.4 		"/>
		<defs>
			
				<filter id="Adobe_OpacityMaskFilter_00000169535446640428221490000018144016476703479728_" filterUnits="userSpaceOnUse" x="53.2" y="0" width="16.8" height="17">
				<feColorMatrix  type="matrix" values="1 0 0 0 0  0 1 0 0 0  0 0 1 0 0  0 0 0 1 0"/>
			</filter>
		</defs>
		
			<mask maskUnits="userSpaceOnUse" x="53.2" y="0" width="16.8" height="17" id="mask-4_00000021805050808970718410000004599371740043241117_">
			<g style="filter:url(#Adobe_OpacityMaskFilter_00000169535446640428221490000018144016476703479728_);">
				<polygon id="path-3_00000152259558405341558710000010038062509091303611_" class="st103" points="0,17 70,17 70,0 0,0 				"/>
			</g>
		</mask>
		<path id="Fill-8" class="st110" d="M63.2,0h2.9v2.7h3.7l-1.3,1.9h-2.4v2.2h3.3v0.8c0,0.9-0.3,1.7-0.9,2.3l-2.5,2.8L70,17h-3.3
			l-2.3-2.5L62.2,17h-3.3l3.9-4.3l-2.9-3.3h3.3l1.3,1.4l1.9-2.1h-6.5l0-1.9h3.4V4.6h-3.2l0-1.9h3.2V0z M53.2,5.2V3.3h1.9V0H58v3.3
			h1.7l-0.8,1.9H58v3.1l1.5-0.3L58.9,10L58,10.2v4.3c0,0.9-0.2,1.5-0.6,1.9c-0.3,0.4-0.9,0.6-1.7,0.6h-2.5l0-1.9l1.4-0.1
			c0.3,0,0.5-0.2,0.5-0.6v-3.7l-1.9,0.4l0-1.9l1.9-0.4V5.2H53.2z"/>
	</g>
</g>
<g id="iDCOS.com备份-3" transform="translate(50.715026, 22.991549)">
	<path id="形状" class="st111" d="M0.7,0c-0.2,0-0.3,0-0.5,0.2C0.1,0.3,0,0.4,0,0.6C0,0.8,0.1,0.9,0.2,1c0.1,0.1,0.3,0.2,0.5,0.2
		C0.8,1.2,1,1.2,1.1,1c0.1-0.1,0.2-0.3,0.2-0.4S1.3,0.3,1.1,0.2C1,0.1,0.8,0,0.7,0z M0.2,1.7V6h1V1.7H0.2z"/>
	<path id="形状_00000159460593886680984560000018032286813180941200_" class="st111" d="M2.5,0.1V6h2.3c1,0,1.8-0.3,2.4-0.8
		C7.7,4.7,8,4,8,3c0-0.9-0.3-1.6-0.8-2.1C6.7,0.4,5.9,0.1,4.9,0.1H2.5z M3.5,0.9h1.2c0.8,0,1.4,0.2,1.8,0.5C6.8,1.8,7,2.3,7,3
		c0,0.7-0.2,1.3-0.6,1.6C6.1,5,5.5,5.2,4.7,5.2H3.5V0.9z"/>
	<path id="路径" class="st111" d="M11.8,0c-1,0-1.8,0.3-2.3,0.9C8.9,1.5,8.7,2.2,8.7,3.1c0,0.9,0.2,1.6,0.7,2.1
		c0.5,0.6,1.3,0.9,2.4,0.9c0.7,0,1.3-0.2,1.8-0.5c0.5-0.4,0.9-0.9,1-1.6h-1c-0.1,0.5-0.4,0.8-0.7,1c-0.3,0.2-0.7,0.3-1.2,0.3
		c-0.7,0-1.3-0.2-1.6-0.6C9.9,4.3,9.7,3.8,9.7,3.1c0-0.7,0.2-1.2,0.5-1.6c0.4-0.4,0.9-0.6,1.6-0.6c0.5,0,0.8,0.1,1.2,0.3
		s0.5,0.5,0.6,0.9h1c-0.1-0.6-0.4-1.1-0.9-1.4C13.1,0.2,12.5,0,11.8,0z"/>
	<path id="形状_00000062187018832862275100000015736450663703178670_" class="st111" d="M18.4,0c-1,0-1.8,0.3-2.3,0.9
		c-0.5,0.6-0.8,1.3-0.8,2.2c0,0.9,0.3,1.6,0.8,2.2c0.6,0.6,1.3,0.9,2.3,0.9c1,0,1.7-0.3,2.3-0.9c0.5-0.6,0.8-1.3,0.8-2.2
		c0-0.9-0.3-1.6-0.8-2.2C20.2,0.3,19.4,0,18.4,0z M18.4,0.8c0.7,0,1.2,0.2,1.6,0.6c0.4,0.4,0.5,1,0.5,1.7c0,0.7-0.2,1.2-0.5,1.6
		c-0.4,0.4-0.9,0.6-1.6,0.6s-1.2-0.2-1.6-0.6c-0.4-0.4-0.5-0.9-0.5-1.6c0-0.7,0.2-1.2,0.5-1.6C17.2,1,17.7,0.8,18.4,0.8z"/>
	<path id="路径_00000116933730349294349670000007058172493771055544_" class="st111" d="M24.8,0c-0.7,0-1.3,0.1-1.7,0.4
		c-0.5,0.3-0.7,0.7-0.7,1.2c0,0.5,0.2,0.9,0.7,1.2c0.2,0.1,0.7,0.3,1.5,0.5c0.7,0.2,1.1,0.3,1.3,0.4c0.4,0.2,0.6,0.4,0.6,0.8
		c0,0.3-0.1,0.5-0.4,0.6c-0.3,0.1-0.7,0.2-1.2,0.2c-0.5,0-0.9-0.1-1.2-0.3c-0.3-0.2-0.5-0.5-0.5-1h-1c0.1,0.7,0.3,1.3,0.9,1.6
		c0.4,0.3,1.1,0.4,1.8,0.4c0.8,0,1.4-0.1,1.9-0.4c0.5-0.3,0.7-0.7,0.7-1.2c0-0.5-0.3-1-0.8-1.3c-0.3-0.1-0.8-0.3-1.7-0.6
		c-0.6-0.2-1-0.3-1.1-0.4c-0.3-0.2-0.5-0.4-0.5-0.6c0-0.3,0.1-0.5,0.4-0.6c0.2-0.1,0.5-0.2,1-0.2c0.5,0,0.8,0.1,1.1,0.3
		c0.3,0.2,0.4,0.4,0.5,0.8h1c-0.1-0.6-0.3-1.1-0.8-1.4C26.1,0.1,25.5,0,24.8,0z"/>
	<path id="路径_00000115492434791918816270000005147856994931747492_" class="st111" d="M29,4.8c-0.2,0-0.4,0.1-0.5,0.2
		c-0.1,0.1-0.2,0.3-0.2,0.4c0,0.2,0.1,0.3,0.2,0.4C28.6,6,28.8,6,29,6c0.2,0,0.3-0.1,0.5-0.2c0.1-0.1,0.2-0.3,0.2-0.4
		c0-0.2-0.1-0.3-0.2-0.4C29.3,4.9,29.1,4.8,29,4.8z"/>
	<path id="路径_00000091713824114642187660000011774176089561923255_" class="st111" d="M32.8,1.6c-0.7,0-1.3,0.2-1.7,0.7
		c-0.4,0.4-0.6,0.9-0.6,1.6c0,0.7,0.2,1.2,0.6,1.6c0.4,0.4,0.9,0.6,1.7,0.6c0.6,0,1.1-0.1,1.4-0.4c0.4-0.3,0.6-0.7,0.7-1.3H34
		c-0.1,0.6-0.5,1-1.2,1c-0.4,0-0.7-0.1-0.9-0.4c-0.2-0.3-0.3-0.6-0.3-1.1s0.1-0.9,0.3-1.1c0.2-0.3,0.5-0.4,0.9-0.4
		c0.3,0,0.6,0.1,0.8,0.2c0.2,0.1,0.3,0.3,0.4,0.6h0.9c-0.1-0.5-0.3-0.9-0.7-1.2C33.9,1.7,33.4,1.6,32.8,1.6z"/>
	<path id="形状_00000106857857160140868130000015801626779003639725_" class="st111" d="M37.9,1.6c-0.7,0-1.3,0.2-1.7,0.6
		c-0.4,0.4-0.6,1-0.6,1.6c0,0.6,0.2,1.2,0.6,1.6c0.4,0.4,1,0.6,1.7,0.6s1.3-0.2,1.7-0.6C40,5,40.2,4.5,40.2,3.9
		c0-0.6-0.2-1.2-0.6-1.6C39.2,1.8,38.6,1.6,37.9,1.6z M37.9,2.3c0.4,0,0.8,0.2,1,0.5c0.2,0.3,0.3,0.6,0.3,1.1c0,0.4-0.1,0.8-0.3,1
		c-0.3,0.3-0.6,0.5-1,0.5c-0.4,0-0.8-0.2-1-0.5c-0.2-0.3-0.3-0.6-0.3-1s0.1-0.8,0.3-1.1C37.1,2.5,37.5,2.3,37.9,2.3z"/>
	<path id="路径_00000064323040146051450560000017797240614893320066_" class="st111" d="M43.4,1.6c-0.5,0-0.9,0.2-1.3,0.6V1.7h-1
		V6h1V3.4c0-0.3,0.1-0.6,0.3-0.8c0.2-0.2,0.4-0.3,0.7-0.3c0.6,0,1,0.3,1,1V6h1V3.4c0-0.3,0.1-0.6,0.3-0.7c0.2-0.2,0.4-0.3,0.7-0.3
		c0.4,0,0.6,0.1,0.8,0.2C46.9,2.7,47,3,47,3.3V6h1V3.2c0-0.5-0.2-0.9-0.5-1.1c-0.3-0.3-0.7-0.4-1.2-0.4c-0.3,0-0.6,0-0.8,0.2
		c-0.2,0.1-0.5,0.3-0.7,0.6C44.6,1.9,44.1,1.6,43.4,1.6z"/>
</g>
</svg>
