<?xml version="1.0" standalone="no"?>
<!DOCTYPE svg PUBLIC "-//W3C//DTD SVG 20010904//EN"
 "http://www.w3.org/TR/2001/REC-SVG-20010904/DTD/svg10.dtd">
<svg version="1.0" xmlns="http://www.w3.org/2000/svg"
 width="564.000000pt" height="499.000000pt" viewBox="0 0 564.000000 499.000000"
 preserveAspectRatio="xMidYMid meet">
<metadata>
Created by potrace 1.16, written by Peter Selinger 2001-2019
</metadata>
<g transform="translate(0.000000,499.000000) scale(0.100000,-0.100000)"
fill="#000000" stroke="none">
<path d="M3273 4702 c-29 -10 -77 -35 -108 -55 -60 -40 -175 -176 -175 -207 0
-27 20 -35 145 -59 61 -12 117 -25 125 -28 8 -3 22 -7 30 -8 60 -8 288 -84
373 -125 57 -28 111 -50 120 -50 22 0 32 54 32 180 0 95 -3 110 -29 163 -56
115 -204 196 -371 204 -70 3 -101 0 -142 -15z"/>
<path d="M1465 4100 c-249 -35 -386 -208 -331 -417 34 -127 147 -230 305 -277
110 -33 140 -17 177 92 52 157 135 291 261 423 40 42 73 79 73 82 0 7 -146 63
-190 72 -19 4 -39 10 -44 13 -6 3 -19 6 -30 7 -12 1 -52 4 -91 8 -38 3 -97 2
-130 -3z"/>
<path d="M681 3662 l-44 -38 87 -58 c48 -32 142 -104 209 -160 284 -238 427
-354 516 -422 53 -39 137 -106 186 -149 50 -43 100 -85 113 -95 12 -10 22 -23
22 -28 0 -6 9 -17 20 -25 12 -8 39 -39 61 -68 22 -30 44 -54 49 -54 5 0 43 25
84 55 l75 55 -47 24 c-68 34 -147 86 -227 150 -38 31 -81 65 -96 76 -29 21
-263 211 -364 295 -119 99 -153 126 -214 175 -61 48 -111 89 -293 238 -45 37
-85 67 -88 67 -3 0 -25 -18 -49 -38z"/>
<path d="M3738 3661 c-41 -14 -69 -37 -100 -82 -52 -78 -36 -125 87 -259 144
-156 267 -333 250 -360 -4 -6 -2 -10 3 -10 5 0 19 -27 31 -59 24 -65 52 -91
101 -91 61 0 150 72 212 171 22 35 48 136 48 186 0 144 -117 323 -272 415
-114 68 -290 111 -360 89z m245 -165 c73 -30 113 -115 83 -178 -44 -93 -191
-92 -254 2 -34 50 -27 124 14 156 41 34 106 42 157 20z"/>
<path d="M353 3436 c46 -43 277 -170 347 -191 14 -4 39 -13 55 -21 28 -12 170
-51 225 -61 23 -4 21 -1 -15 32 -108 98 -487 265 -602 265 l-36 0 26 -24z"/>
<path d="M2770 3325 c-180 -46 -305 -156 -352 -310 -11 -38 -23 -77 -25 -85
-12 -37 0 -159 23 -231 43 -135 126 -223 266 -278 125 -51 235 -40 338 31 60
41 120 113 120 144 0 13 4 24 9 24 5 0 -3 33 -17 73 -35 99 -34 167 6 283 35
100 38 127 21 185 -18 58 -63 105 -134 140 -77 38 -169 46 -255 24z m145 -199
c18 -8 39 -24 45 -36 18 -33 18 -121 1 -152 -41 -75 -186 -78 -235 -4 -18 29
-22 116 -5 147 28 53 122 75 194 45z"/>
<path d="M135 3181 c54 -36 250 -79 402 -89 76 -6 161 -7 188 -3 l50 7 -40 12
c-91 25 -247 53 -355 62 -126 11 -199 18 -245 26 l-30 5 30 -20z"/>
<path d="M4506 3143 c-11 -61 -39 -143 -48 -143 -5 0 -7 -4 -4 -8 15 -24 -104
-262 -195 -389 -88 -124 -162 -205 -254 -279 -91 -74 -248 -154 -345 -178 -62
-15 -399 -62 -512 -71 -85 -7 -149 -19 -149 -29 0 -4 35 -37 79 -71 135 -107
156 -148 117 -225 -35 -70 -104 -134 -186 -175 -37 -19 -75 -45 -83 -57 -27
-38 -20 -86 21 -139 87 -115 200 -153 453 -153 168 -1 243 14 375 71 135 59
314 196 424 324 188 217 382 612 426 864 23 130 22 325 0 436 -26 126 -79 259
-104 259 -5 0 -12 -17 -15 -37z"/>
<path d="M958 2984 c-3 -3 -23 -7 -44 -10 -74 -8 -260 -93 -398 -182 -93 -59
-179 -123 -173 -128 2 -2 26 4 53 15 27 11 94 34 149 51 106 34 287 119 317
148 9 9 35 31 56 47 41 31 69 65 54 65 -5 0 -11 -3 -14 -6z"/>
<path d="M1463 2790 c-9 -10 -18 -25 -19 -32 -11 -66 -50 -244 -54 -248 -3 -3
-2 -75 2 -160 6 -145 27 -271 57 -335 34 -71 50 -119 44 -128 -3 -5 -1 -7 5
-3 6 3 14 -3 17 -15 11 -34 140 -219 202 -290 226 -257 440 -369 707 -369 129
0 223 13 283 40 142 62 199 194 138 316 -27 54 -51 77 -518 478 -114 99 -202
163 -266 195 -83 43 -208 135 -276 204 -75 77 -128 153 -119 170 4 6 4 9 -1 5
-4 -4 -19 10 -33 30 -35 51 -133 162 -143 162 -5 0 -17 -9 -26 -20z"/>
<path d="M3650 2765 c-105 -30 -195 -107 -188 -163 2 -21 14 -33 53 -53 28
-14 53 -25 56 -23 13 7 174 -27 196 -41 48 -32 26 -45 -109 -71 -54 -10 -98
-21 -98 -25 0 -11 113 -39 158 -39 99 0 217 64 237 128 8 27 -7 29 -58 7 -20
-8 -42 -15 -48 -15 -20 0 -1 75 36 146 41 78 46 127 13 145 -35 19 -185 21
-248 4z"/>
<path d="M2110 2583 c-8 -4 -46 -29 -84 -56 l-68 -50 29 -16 c62 -34 155 -105
303 -233 86 -73 205 -175 265 -227 99 -84 141 -121 279 -242 69 -59 98 -79
118 -79 45 0 135 99 122 133 -3 9 -24 31 -47 50 -44 36 -53 42 -367 282 -204
155 -374 295 -474 389 -32 31 -59 56 -60 55 0 0 -8 -3 -16 -6z"/>
<path d="M4948 2536 c-42 -22 -72 -62 -129 -170 -38 -70 -60 -101 -78 -108
-14 -6 -32 -13 -40 -17 -8 -4 -38 -47 -66 -97 -29 -49 -112 -192 -185 -319
-72 -126 -143 -247 -157 -267 -29 -43 -27 -60 8 -65 80 -12 261 -46 364 -68
66 -15 152 -33 190 -41 84 -18 186 -14 237 10 82 39 137 123 191 291 68 212
70 400 6 601 -32 100 -66 154 -127 202 -76 60 -156 78 -214 48z m216 -567 c14
-17 29 -43 32 -57 3 -15 10 -44 16 -65 11 -45 1 -80 -49 -180 -39 -79 -69
-100 -111 -76 -35 19 -63 97 -64 175 0 66 19 137 35 127 6 -3 7 -1 3 5 -9 15
18 67 46 86 34 24 63 19 92 -15z"/>
<path d="M815 2530 c-44 -14 -98 -63 -143 -130 -22 -32 -42 -56 -45 -53 -3 3
-3 -5 0 -18 4 -13 2 -20 -3 -16 -5 3 -10 -2 -11 -11 0 -9 -12 -60 -26 -112
-13 -52 -25 -103 -25 -112 -3 -55 -1 -177 2 -203 6 -49 34 -167 50 -214 9 -24
13 -48 9 -54 -3 -5 -2 -7 4 -4 5 3 15 -11 22 -31 22 -64 77 -138 127 -170 26
-18 54 -32 61 -32 8 0 11 -4 8 -10 -3 -5 0 -7 7 -5 7 3 48 2 90 -3 46 -5 74
-4 71 1 -3 5 12 8 35 5 22 -2 39 -1 37 3 -4 5 75 28 125 36 99 15 404 74 408
78 3 3 -81 175 -186 383 -188 371 -191 377 -224 383 -49 8 -52 10 -143 134
-107 145 -166 181 -250 155z m43 -570 c24 -25 82 -177 82 -212 0 -15 -4 -37
-9 -50 -5 -13 -17 -44 -26 -70 -34 -96 -121 -77 -164 36 -43 115 -33 257 21
298 31 23 73 23 96 -2z"/>
<path d="M3935 1275 c-33 -19 -70 -49 -83 -67 l-22 -33 22 -17 c45 -35 98 -18
172 55 29 28 29 29 13 63 -9 19 -22 34 -29 34 -7 0 -40 -16 -73 -35z"/>
<path d="M3062 864 c-21 -14 -22 -23 -22 -134 0 -65 -4 -121 -8 -124 -5 -3
-22 8 -37 24 -31 32 -119 70 -164 70 -52 0 -136 -31 -169 -63 -39 -37 -63 -82
-82 -150 -22 -80 12 -199 75 -261 36 -37 112 -66 170 -66 59 0 134 29 167 65
35 39 48 37 48 -5 0 -53 77 -80 128 -44 22 15 22 16 22 343 0 305 -1 329 -18
344 -23 21 -81 22 -110 1z m-93 -292 c48 -35 71 -80 71 -139 0 -112 -49 -165
-152 -165 -103 0 -153 58 -145 168 6 81 23 113 77 142 52 27 107 25 149 -6z"/>
<path d="M552 851 c-22 -18 -22 -23 -22 -335 0 -308 1 -317 21 -337 17 -17 30
-20 67 -16 29 3 49 11 56 23 6 11 13 62 16 114 l5 95 135 5 c125 5 140 7 194
35 99 50 143 126 133 228 -8 91 -95 178 -198 197 -28 6 -127 10 -219 10 -149
0 -169 -2 -188 -19z m373 -104 c50 -28 78 -79 69 -127 -8 -50 -46 -94 -91
-108 -42 -12 -179 -18 -203 -8 -12 5 -14 28 -12 136 l3 130 97 0 c82 0 103 -4
137 -23z"/>
<path d="M4060 863 c-38 -15 -39 -31 -40 -349 0 -278 2 -313 17 -325 25 -22
388 -19 466 3 96 28 160 83 205 178 24 48 27 67 26 155 -1 116 -21 175 -82
238 -80 84 -172 107 -412 106 -91 0 -172 -3 -180 -6z m392 -126 c43 -21 64
-40 90 -79 30 -47 33 -59 33 -128 0 -114 -34 -178 -120 -223 -32 -17 -62 -22
-157 -25 l-118 -4 0 225 c0 124 -3 232 -6 240 -8 22 17 26 126 24 81 -2 104
-7 152 -30z"/>
<path d="M4892 854 c-22 -15 -22 -16 -22 -329 l0 -314 26 -20 c25 -19 40 -21
203 -21 271 0 364 28 411 125 49 101 -13 210 -130 230 -22 4 -40 11 -40 15 0
5 19 18 43 28 85 39 120 114 89 193 -8 21 -18 39 -21 39 -3 0 -19 11 -34 24
-42 37 -108 46 -315 46 -154 0 -192 -3 -210 -16z m360 -83 c40 -15 78 -58 78
-88 0 -68 -73 -113 -185 -113 -118 0 -115 -3 -115 104 0 51 3 96 7 99 10 10
188 8 215 -2z m33 -291 c67 -25 95 -100 58 -157 -27 -42 -70 -53 -198 -53
l-115 0 0 110 0 110 114 0 c63 0 126 -4 141 -10z"/>
<path d="M1395 693 c-77 -17 -139 -57 -156 -102 -22 -56 70 -85 122 -37 14 13
35 28 46 35 28 14 125 14 157 0 30 -14 51 -59 42 -92 -6 -24 -9 -24 -139 -29
-142 -6 -190 -20 -243 -73 -35 -35 -34 -121 1 -164 30 -34 118 -71 173 -71 47
0 138 33 167 60 27 25 45 26 45 0 0 -52 90 -80 130 -40 18 18 20 34 19 201 0
200 -4 219 -61 262 -51 39 -120 57 -206 56 -42 -1 -86 -3 -97 -6z m215 -325
c0 -79 -96 -132 -197 -107 -38 10 -48 18 -60 48 -15 34 -14 36 13 58 33 26 51
29 162 32 l82 1 0 -32z"/>
<path d="M1928 693 c-31 -8 -38 -61 -38 -278 0 -208 0 -212 23 -233 31 -30 89
-30 117 0 18 20 20 35 20 170 0 168 8 195 62 221 64 30 128 25 170 -12 l33
-29 3 -169 c4 -190 9 -203 72 -203 26 0 43 7 59 24 22 23 22 29 19 208 -3 178
-4 186 -28 221 -36 53 -99 82 -180 82 -87 0 -113 -9 -155 -51 -39 -39 -65 -39
-65 -1 0 45 -49 67 -112 50z"/>
<path d="M3490 691 c-93 -29 -150 -77 -150 -125 0 -36 92 -49 126 -18 47 44
69 52 132 52 57 0 67 -3 93 -29 19 -19 29 -40 29 -59 0 -25 -5 -30 -31 -36
-17 -3 -61 -6 -98 -6 -104 0 -177 -16 -221 -47 -46 -33 -60 -60 -60 -114 0
-88 78 -144 200 -143 79 0 100 7 162 56 35 27 38 28 44 11 16 -54 30 -68 69
-71 30 -2 46 3 63 18 21 20 22 27 22 198 0 165 -2 180 -23 216 -29 51 -60 73
-127 91 -58 16 -188 19 -230 6z m227 -333 c-7 -51 -38 -82 -98 -98 -87 -24
-163 12 -157 73 5 48 49 66 167 67 l94 0 -6 -42z"/>
</g>
</svg>
