<?xml version="1.0" encoding="UTF-8"?><svg id="_图层_2" xmlns="http://www.w3.org/2000/svg" viewBox="0 0 316.11 279.32"><defs><style>.cls-1{fill:#0168b6;}.cls-2{fill:#0168b7;}.cls-3{fill:#0068b6;}.cls-4{fill:#006bb8;}.cls-5{fill:#fefefe;}.cls-6{fill:#fdfdfe;}.cls-7{fill:#fdfefe;}.cls-8{fill:#cbe0f0;}.cls-9{fill:#056bb7;}</style></defs><g id="_图层_1-2"><path class="cls-5" d="M.02,279.3C.02,186.53,.02,93.75,0,.98,0,.18,.18,0,.98,0,105.7,.02,210.41,.02,315.12,0c.8,0,.98,.18,.98,.98-.02,92.45-.02,184.9,0,277.36,0,.8-.18,.98-.98,.98-105.03-.02-210.07-.02-315.1-.02Z"/><path class="cls-3" d="M143.92,63.72c.33-3.92,.64-7.64,.95-11.36-.06-.03-.13-.05-.19-.08-1.25,1.81-2.51,3.62-3.81,5.5-1.09-2.23-2.46-4.14-4.35-5.64-1.51-1.2-3.35-1.65-5.17-1.82-2.8-.25-5.66-.32-7.95,1.85-1.62,1.54-2.55,3.44-3,5.62-.18,.86-.08,1.75-.39,2.59-.16,.43,.12,.8,.33,1.17,1.78,3.1,3.09,6.36,3.06,9.99-.03,3.89-1.8,6.83-5.06,8.92-1.03,.66-2.1,1.25-2.99,2.11-1.91,1.84-1.05,3.11,.85,4,2.03,.94,4.21,1.44,6.46,1.52,.33,.01,.61,.1,.93,.35-2.73,1.61-5.42,3.2-8.12,4.8-1.74,1.03-3.52,2-5.21,3.1-1.02,.67-1.8,.75-2.91,.06-1.88-1.18-3.79-2.31-5.33-3.92-2.19-2.28-3.61-4.92-3.43-8.2,.05-.98-.49-1.66-1.11-2.3-2.85-2.9-6.12-5.3-9.34-7.76-.55-.42-1.15-.79-1.71-1.19-.38-.27-.7-.62-.83-1.07-.84-3.08-1.66-6.17-2.53-9.42-.68,.73-1.31,1.37-1.89,2.04-2.25,2.61-4.5,5.22-6.3,8.18-.51,.84-.96,1.73-1.22,2.64-.29,1.02-.09,2.04,.55,3,2.43,3.61,2.06,8.39-.94,11.18-2,1.86-4.33,2.21-6.84,1.34-2.06-.71-3.98-.68-5.7,.81-1.01,.88-1.71,2.02-2.33,3.19-1.06,2.01-2.02,4.07-3.02,6.11-.22,.45-.45,.78-1.09,.78-8.27-.03-16.54-.02-24.8-.02-.1,0-.21-.03-.32-.05C41.11,60.02,76.2,23.68,122.91,12.45,174.45,.06,218.35,20.67,241.92,43.69c-1.37-1.05-2.72-2.14-4.12-3.15-3.14-2.27-6.28-4.58-9.7-6.37-2.41-1.26-5.16-1.85-7.78-2.7-4.7-1.53-9.43-2.93-14.25-4-3.77-.84-7.58-1.54-11.48-1.35-1.62,.08-3.17,.47-4.57,1.32-1.57,.97-2.23,2.94-1.72,4.96,.18,.71,.39,1.41,.53,2.13,.04,.2,.3,.45,0,.67-.3,.23-.44-.07-.63-.19-1.33-.83-2.66-1.67-3.99-2.5-.12-.07-.24-.14-.36-.2-2.16-1.18-3.16-.77-3.77,1.61-.32,1.26-.76,2.44-1.5,3.52-1.4,2.04-4.85,2.93-6.81,1.72-1.1-.68-1.24-1.88-1.53-2.97-.28-1.08-.39-2.2-.69-3.27-.58-2.1-2.66-3.11-4.89-2.41-.62,.19-1.26,.34-1.82,.73-1.39,.98-1.09,2.37-.83,3.65,.38,1.9,1.02,3.75,1.43,5.66,.81,3.69-.05,6.92-2.39,9.79-1.75,2.15-4.04,3.7-6.21,5.38-3.51,2.73-7.14,5.28-10.94,8Z"/><path class="cls-3" d="M252.27,192.69c1.59,.1,3.23-.15,4.9,.16,.86,.16,1.78,.03,2.67,.06,1.06,.03,2.12-.06,3.18,.18,1.27,.29,2.14-.72,3.11-1.26,2.53-1.42,4.99-2.95,7.49-4.42,.2-.12,.43-.18,.79-.32-.11,1.5,.18,2.91-.19,4.31-.08,.3-.03,.64-.04,.96-.08,1.81,.15,3.62-.2,5.42-.3,1.56,.85,2.61,1.52,3.8,1.44,2.58,2.96,5.11,4.54,7.81-1.89-.12-3.61,.19-5.33-.2-.41-.09-.85-.01-1.28-.03-1.41-.07-2.84,.15-4.24-.2-.63-.15-1.23,.05-1.8,.4-1.4,.84-2.77,1.8-4.26,2.44-2.65,1.13-4.11,3.39-5.73,5.52-1.84,2.41-3.74,4.77-5.73,7.05-2.41,2.76-4.95,5.37-7.56,7.93-5.58,5.49-11.71,10.31-18.18,14.7-5.79,3.93-11.94,7.25-18.28,10.19-8.16,3.79-16.67,6.57-25.43,8.59-3.8,.87-7.66,1.53-11.55,1.99-3.25,.39-6.5,.66-9.77,.88-4.09,.28-8.18,.22-12.26,.11-3.23-.09-6.46-.39-9.69-.75-5.21-.59-10.36-1.55-15.47-2.66-3.08-.67-6.11-1.61-9.12-2.56-6.37-2.02-12.53-4.55-18.51-7.54-7.47-3.73-14.53-8.11-21.14-13.21-2.57-1.98-5.02-4.1-7.49-6.2-3.17-2.69-6.04-5.69-8.86-8.72-6.54-7.03-12.21-14.73-17.05-23.04-3.98-6.82-7.16-14-9.91-21.38-.26-.71,0-.71,.52-.71,8.91,0,17.82,0,26.73,0,.54,0,.67,.26,.87,.69,3.01,6.61,6.4,13.02,10.5,19.03,2.55,3.73,5.26,7.33,8.23,10.75,2.6,2.99,5.23,5.95,8.11,8.67,6.96,6.57,14.54,12.31,22.84,17.09,7.74,4.46,15.89,7.96,24.43,10.55,4.76,1.44,9.58,2.61,14.5,3.39,3.39,.54,6.79,.94,10.2,1.29,4.78,.48,9.57,.52,14.35,.34,3.68-.14,7.36-.47,11.02-.97,6.43-.88,12.73-2.25,18.94-4.11,7.22-2.17,14.14-5.11,20.79-8.63,5.44-2.88,10.6-6.22,15.52-9.93,2.78-2.1,5.43-4.37,8.04-6.68,2.05-1.82,3.91-3.82,5.94-5.66,1.62-1.47,2.99-3.2,4.45-4.83,.22-.25,.35-.58,.35-.97-.03-2.09,.1-4.2,.27-6.27,.19-2.26-.6-4.02-1.72-5.82-1.36-2.18-2.62-4.44-3.92-6.66-.08-.14-.25-.27-.07-.57Z"/><path class="cls-3" d="M244.08,207.87c-1.04,2.72-2.02,5.25-2.99,7.77-.37,.95,.08,1.83,.27,2.72,.43,1.94,.91,3.86,1.37,5.79,.04,.17,0,.35,0,.63-1.96-.69-3.93-1.19-5.7-2.07-1.91-.95-3.69-.53-5.62-.28-3.04,.38-5.04,2.42-7.34,4-7.23,4.98-15,8.9-23.29,11.81-4.47,1.57-9.02,2.85-13.66,3.79-2.98,.6-6,1.03-9.03,1.37-3.7,.42-7.4,.64-11.12,.61-1.31-.01-2.62,0-3.93,0-4.03,0-8-.5-11.99-1.05-3.8-.53-7.57-1.2-11.29-2.17-4.45-1.16-8.82-2.56-13.12-4.23-3.51-1.37-6.94-2.91-10.28-4.63-5.39-2.76-10.5-6-15.35-9.62-2.45-1.83-4.77-3.84-7.06-5.88-2.13-1.89-4.16-3.88-6.09-5.96-4.54-4.91-8.63-10.18-12.1-15.91-2.11-3.5-4.08-7.07-5.71-10.82-.24-.54-.47-1.09-.74-1.71,1.83,.17,3.61-.08,5.4,.13,.72,.08,1.46-.1,2.19-.1,4.06-.01,8.13,.01,12.19-.02,.75,0,1.1,.24,1.42,.92,2.83,6.13,6.48,11.75,10.62,17.05,2.98,3.81,6.35,7.3,9.91,10.56,7.15,6.56,15.15,11.87,23.92,16.02,6.02,2.85,12.28,5.08,18.75,6.66,3.8,.93,7.66,1.57,11.56,2.03,4.54,.53,9.09,.95,13.65,.78,3.41-.13,6.82-.36,10.23-.76,5.6-.67,11.08-1.86,16.45-3.51,6.42-1.98,12.48-4.8,18.4-8,2.1-1.14,3.13-2.72,3.76-4.83,.32-1.06,.73-2.1,1.15-3.13,.15-.36,.07-.65-.01-1-.62-2.63-1.2-5.27-1.82-8.02,2.15,.8,4.23,1.49,6.23,2.34,1.53,.65,3.02,.57,4.56,.2,2.01-.49,4.03-.97,6.19-1.48Z"/><path class="cls-3" d="M237.32,164.7c1.5,0,2.95-.01,4.41,0,.88,.01,1.36-.31,1.51-1.25,.41-2.52,.9-5.03,1.39-7.74-1.68,.69-3.23,1.32-4.83,1.97-.38-3.07-1.11-5.95-2.1-8.99-.98,4.05-1.94,7.87-3.29,11.59-1.41,3.9-3.1,7.64-5.63,10.97-.46,.6-.71,.67-1.26,.09-1.09-1.14-2.42-1.98-3.77-2.79-.36-.21-.58-.31-.24-.76,4.06-5.28,5.74-11.53,7.22-17.86,.28-1.21,.42-2.46,.74-3.66,.24-.87-.11-.95-.81-.91-.82,.04-1.64-.02-2.46,.02-.58,.03-.76-.17-.66-.74,.31-1.68,.62-3.36,.89-5.04,.09-.54,.37-.67,.88-.65,.89,.04,1.78-.02,2.67,.02,.55,.02,.81-.12,.91-.73,.97-5.68,2.01-11.35,2.96-17.03,.17-1.01,.43-1.51,1.57-1.38,.98,.11,2-.07,2.99,.05,1.07,.12,1.52-.35,1.83-1.27,.67-1.98,1.42-3.94,2.1-5.93,.15-.43,.28-.67,.8-.57,2.1,.39,4.2,.75,6.3,1.12,.13,.02,.25,.11,.4,.17-.97,2.17-2.21,4.17-3.4,6.45,.79,0,1.44,0,2.08,0,1.96,0,3.92,.05,5.88-.02,.96-.04,1.22,.18,1.03,1.17-.66,3.39-1.24,6.79-1.85,10.18-.03,.17-.02,.35-.03,.66,1.54-1.04,2.84-2.19,4.11-3.36,5.16-4.74,9.43-10.18,12.92-16.24,.4-.7,.74-.83,1.48-.57,1.54,.55,3.11,1,4.68,1.47,.52,.16,.75,.39,.32,.85-.81,.9-.62,1.83-.24,2.86,2.39,6.48,5.8,12.28,11.06,16.96-2.05,1.67-4.08,3.35-5.78,5.37-.29,.34-.47,.18-.67-.06-.39-.45-.79-.89-1.26-1.44-.7,3.23-1.36,6.31-2.05,9.38-.32,1.42-.74,2.81-1.24,4.19-1.02,2.75-3.08,4.11-5.89,4.4-2.09,.21-4.19,.26-6.29,.16-.59-.03-.7-.22-.67-.76,.1-1.75,0-3.48-.66-5.22,1.68,.09,3.27,.21,4.85,.24,1.73,.04,2.35-.41,2.93-2.06,.78-2.22,1.15-4.55,1.63-6.85,.12-.58-.09-.73-.65-.72-2.53,.02-5.06,.02-7.59,0-.47,0-.67,.12-.76,.63-1.18,6.76-2.39,13.52-3.59,20.28-.05,.28-.05,.57-.06,.85-.03,1.34,.25,1.71,1.67,1.76,1.96,.07,3.92,.03,5.88,.03,1.07,0,2.14-.01,3.21,0,1.27,.02,2.17-.54,2.75-1.66,.9-1.76,1.24-3.7,1.69-5.6,.07-.27,.04-.58,.32-.81,1.55,1.08,3.25,1.88,5.07,2.4,.56,.16,.52,.42,.4,.84-.55,1.91-1.19,3.79-1.96,5.63-1.59,3.79-4.48,5.59-8.52,5.57-4.1-.02-8.2,.19-12.29-.16-.6-.05-1.21-.14-1.79-.29-2.44-.61-3.54-1.99-3.65-4.58-.11-2.52,.49-4.95,.92-7.4,1.15-6.55,2.34-13.1,3.51-19.64,.02-.1,0-.2-.02-.4-.95,.72-1.84,1.41-2.81,2.15-.46-1.4-.92-2.71-1.67-4.22-.45,2.51-.84,4.73-1.24,6.96-1.29,7.29-2.56,14.58-3.88,21.86-.72,3.96-2.61,5.68-6.61,6.27-1.45,.21-2.91,.19-4.37,.28-.53,.03-.76-.1-.76-.7,0-.96-.08-1.92-.2-2.87-.12-.95-.32-1.89-.5-2.94Z"/><path class="cls-3" d="M53.09,155.29c.4-.17,.74-.49,1.19,.03,2.73,3.05,5.55,6.03,7.8,9.47,.98,1.5,.95,1.51-.5,2.45-1.88,1.21-3.78,2.41-5.65,3.65-.51,.33-.7,.29-.99-.27-1.8-3.51-4.28-6.54-6.69-9.63-.53-.68-.8-.2-1.16,.11-4.7,4.1-9.88,7.44-15.59,9.98-.77,.34-1.12,.29-1.51-.52-.98-2.02-2.24-3.88-4.02-5.5,1.12-.5,2.13-.95,3.15-1.41,12.12-5.44,20.55-14.41,25.55-26.68q.47-1.15-.81-1.15c-6.52,0-13.04,0-19.56,0h-1.28c.44-2.5,.87-4.93,1.29-7.36,.12-.72,.67-.51,1.09-.51,6.98,0,13.97-.03,20.95,.02,1.02,0,1.39-.29,1.62-1.26,1.09-4.5,1.83-9.07,2.7-13.61,.13-.67,.35-.87,1.02-.85,2.17,.04,4.35,.06,6.52,0,.87-.03,1.01,.25,.85,1.03-.97,4.7-1.81,9.43-3.02,14.08-.04,.16-.06,.33-.11,.6,.45,0,.83,0,1.22,0,7.59,0,15.18,.02,22.77-.02,.96,0,1.14,.26,.95,1.15-.39,1.88-.74,3.77-1.01,5.67-.13,.88-.46,1.11-1.35,1.1-6.66-.05-13.33-.02-19.99-.04-.68,0-1.04,.04-.89,.89,1.18,6.55,3.36,12.71,7.21,18.21,2.84,4.06,6.58,7.07,10.99,9.26,.12,.06,.23,.12,.41,.22-2.45,2.02-4.62,4.22-6.51,6.68-.36,.47-.65,.23-.99,.04-4.22-2.38-7.79-5.49-10.53-9.51-3.82-5.62-6.02-11.9-7.42-18.49-.02-.1-.05-.21-.13-.53-2.2,4.55-4.78,8.66-7.81,12.48-.13,.31,0,.34,.26,.25Z"/><path class="cls-3" d="M126.87,169.38c.36-2.07,.74-4.03,1.02-6,.11-.75,.43-.89,1.11-.89,6.98,.02,13.97,0,20.95,.03,.72,0,1.06-.12,1.19-.91,.56-3.55,1.16-7.09,1.83-10.62,.16-.87-.14-.9-.83-.9-4.38,.02-8.77-.01-13.15,.03-.94,0-1.13-.21-.91-1.14,.39-1.69,.62-3.42,.93-5.22-1.07,.44-2.05,.82-3.01,1.26-.48,.22-.74,.22-.97-.33-.8-1.9-1.64-3.78-2.5-5.66-.26-.56-.1-.72,.43-.89,7.06-2.2,13.75-5.22,20-9.18,.36-.23,.57-.26,.89,.09,1.3,1.41,2.64,2.79,4.04,4.27-2.77,1.99-5.62,3.69-8.53,5.31-2.91,1.62-5.9,3.07-8.88,4.67h1.11c11.94,0,23.87,.01,35.81-.02,.93,0,1.23,.13,.99,1.13-.38,1.55-.62,3.14-.86,4.72-.11,.72-.34,1-1.13,1-4.74-.04-9.48-.01-14.22-.03-.67,0-1,.13-1.12,.88-.58,3.58-1.2,7.16-1.87,10.72-.17,.89,.28,.82,.86,.82,7.16,0,14.32,.02,21.48-.03,1.04,0,1.25,.23,1,1.24-.39,1.62-.64,3.28-.88,4.93-.09,.6-.32,.8-.88,.72-.14-.02-.28,0-.43,0-17.42,0-34.85,0-52.27,0h-1.2Z"/><path class="cls-3" d="M158.86,119.34c-.25-1.7-.65-3.25-1.1-4.78-.14-.49-.2-.76,.42-.91,2.45-.61,4.89-1.25,7.32-1.93,.61-.17,.64,.19,.76,.57,.65,2.03,1.38,4.04,1.75,6.15,.14,.79,.47,.92,1.18,.92,6.77-.03,13.54,0,20.31-.04,.9,0,1.11,.13,.93,1.09-.8,4.15-1.51,8.33-2.22,12.5-.1,.56-.29,.78-.88,.77-2.1-.03-4.2-.05-6.3,0-.75,.02-.82-.25-.7-.86,.35-1.82,.66-3.64,1.02-5.45,.16-.81,.12-1.18-.91-1.18-12.68,.04-25.36,.03-38.05,0-.7,0-.98,.16-1.09,.89-.35,2.32-.81,4.62-1.19,6.94-.1,.59-.29,.86-.95,.84-1.96-.04-3.92-.03-5.88,0-.6,0-.81-.11-.69-.78,.85-4.69,1.67-9.38,2.46-14.08,.12-.73,.54-.67,1.05-.67,7.27,0,14.53,0,21.8,0h.97Z"/><path class="cls-9" d="M121.49,196.09c1.97,2.09,3.86,4.25,5.9,6.28,5.27,5.26,11.24,9.55,17.83,13.01,1.7,.89,3.47,1.62,5.16,2.54-.71,.56-1.6,.47-2.42,.64-1.1,.24-2.23,.36-3.35,.52-.86,.12-1.22,.57-1.22,1.42,0,.58,.16,1.21-.31,1.72-4.51-1.55-8.73-3.72-12.82-6.14-3.77-2.23-7.38-4.72-10.73-7.55-2.68-2.26-5.26-4.63-7.6-7.27-3.31-3.72-6.32-7.63-8.92-11.87-1.38-2.26-2.65-4.58-3.75-7,.23-.32,.54-.18,.79-.18,4.06-.01,8.12,0,12.19,0,.4,0,.8-.1,1.04,.44,1.61,3.62,3.68,6.97,5.88,10.24-.56,.78-1.29,.79-2.06,.39-.51-.26-1.01-.52-1.59-.61-.71-.1-1.26,.16-1.63,.77-.55,.92-.1,2.99,.81,3.57,.42,.27,.81,.57,1.14,.95,.76,.85,1.77,1.17,2.86,1.26,1.09,.09,2.53-1.2,2.66-2.33,.03-.27-.1-.57,.14-.81Z"/><path class="cls-9" d="M152.93,218.97c1.97,.65,3.92,1.38,5.92,1.92,3.5,.94,7.05,1.69,10.65,2.21,3.95,.56,7.9,.71,11.86,.59,4.99-.16,9.9-.92,14.74-2.14,.1-.02,.21-.08,.27-.15,1.23-1.35,2.73-2.64,3.08-4.46,.33-1.7,.4-3.49,.54-5.39,1.34,1.01,2.66,1.93,3.89,2.97,.7,.59,1.49,.77,2.32,.83,1.44,.09,2.88,.22,4.45,.47-.89,1.2-1.6,2.48-2.61,3.45-1.13,1.07-1.1,2.41-1.2,3.68-.1,1.19-.43,2.38-.21,3.81-1.47-1.13-2.79-2.12-4.1-3.15-.63-.5-1.34-.64-2.12-.79-2.92-.59-5.35,1-7.97,1.68-3.48,.9-6.97,1.73-10.54,2.23-4.25,.59-8.51,.98-12.79,.8-3.4-.14-6.8-.41-10.19-.98-3.34-.57-6.63-1.33-9.89-2.23-.15-.55-.16-.59,.47-.77,1.16-.33,2.34-.61,3.51-.94,1.41-.41,1.44-.54,.7-1.79-.33-.57-1.14-.96-.81-1.82Z"/><path class="cls-3" d="M162.82,133.81c1.81-1.64,3.53-3.19,5.23-4.76,.36-.34,.64-.42,1.1-.18,5.65,2.86,11.36,5.59,16.79,8.86,.77,.46,.9,.71,.16,1.39-1.66,1.51-3.21,3.14-4.81,4.71-.3,.29-.54,.67-1.13,.25-5.26-3.67-10.87-6.76-16.53-9.77-.25-.13-.48-.29-.81-.48Z"/><path class="cls-2" d="M240.07,98.12c0,1.62-.05,3.11,.02,4.59,.04,.88-.41,.86-1.04,.87-.63,0-.95-.08-.94-.85,.04-4.63,.01-9.26,.03-13.88,0-.39-.28-1,.51-1.04,.63-.04,1.24-.08,1.21,.83,0,.09,.09,.19,.15,.31,.52-.32,1.01-.67,1.54-.95,2.15-1.13,4.7-.31,5.64,1.93,1.01,2.42,1,4.87-.41,7.16-1.29,2.11-3.68,2.69-5.85,1.53-.24-.13-.48-.27-.87-.49Z"/><path class="cls-3" d="M158.88,89.06c.59-.38,.99-.66,1.41-.91,2.49-1.46,5.3-.42,6.19,2.32,.54,1.66,.56,3.37,.09,5.05-.73,2.62-3.59,5.13-7.45,2.6,0,1.59-.06,3.09,.02,4.59,.05,.87-.38,.85-1.02,.87-.69,.02-.99-.1-.99-.91,.04-4.52,0-9.04,.04-13.56,0-.44-.46-1.2,.53-1.32,.86-.1,1.38,.15,1.17,1.27Z"/><path class="cls-3" d="M148.81,99.21c-1.82,0-3.39-.62-4.8-1.76-.64-.52-.26-.81,.08-1.18,.31-.32,.47-.88,1.11-.28,1.26,1.19,2.81,1.63,4.54,1.35,1.14-.18,1.95-.89,2.11-1.83,.2-1.12-.18-1.92-1.35-2.51-1.17-.6-2.39-1.09-3.58-1.66-2.08-1.01-2.91-2.41-2.61-4.28,.3-1.81,1.77-3.11,3.9-3.38,1.7-.21,3.25,.21,4.61,1.27,.36,.28,.81,.55,.27,1.09-.38,.39-.58,.95-1.3,.34-1.05-.9-2.34-1.15-3.71-.85-.96,.21-1.63,.73-1.78,1.74-.15,.97,.34,1.69,1.15,2.1,1.17,.59,2.4,1.07,3.6,1.62,2.48,1.15,3.44,3.09,2.65,5.32-.64,1.8-2.5,2.9-4.91,2.9Z"/><path class="cls-3" d="M221.62,86.81c-.91-.84-1.93-1.48-3.22-1.4-1.7,.11-2.98,.91-3.71,2.48-1.07,2.33-1.08,4.7-.02,7.02,1.22,2.69,4.32,3.37,6.6,1.48,.5-.42,.76-.65,1.32,0,.56,.65,.29,.92-.18,1.34-2.39,2.11-6.19,1.97-8.42-.33-2.9-2.99-2.77-9.24,.24-12.11,1.89-1.8,4.94-2.17,7.12-.86,1.55,.93,1.56,1.02,.28,2.38Z"/><path class="cls-3" d="M176.57,97.68c-1.27,.86-2.39,1.61-3.84,1.54-1.53-.07-2.63-.87-3.01-2.25-.4-1.43,.1-2.82,1.34-3.63,1.35-.88,2.89-1.17,4.45-1.35,.72-.08,1.01-.27,.79-1.07-.33-1.19-.96-1.74-2.2-1.75-.92,0-1.77,.27-2.52,.77-.61,.4-.85,.27-1.21-.32-.42-.68-.03-.84,.44-1.09,.82-.43,1.67-.77,2.59-.94,2.83-.52,4.75,.85,4.91,3.7,.13,2.34,.04,4.7,.05,7.05,0,.38-.08,.66-.52,.58-.4-.07-.97,.3-1.17-.38-.07-.23-.06-.48-.11-.86Z"/><path class="cls-3" d="M232.39,97.69c-1,.62-1.82,1.25-2.87,1.45-1.81,.35-3.39-.42-3.92-1.94-.58-1.65,.06-3.26,1.71-4.13,1.28-.67,2.68-.96,4.1-1.09,.73-.07,.88-.34,.71-1.03-.3-1.21-.93-1.76-2.17-1.78-1-.01-1.9,.32-2.7,.86-.61,.41-.76,.03-1.02-.4-.26-.43-.36-.71,.19-1,.99-.52,2-.94,3.1-1.1,2.69-.39,4.49,1.04,4.63,3.84,.12,2.31,.03,4.63,.05,6.94,0,.36-.05,.67-.5,.6-.41-.07-.97,.3-1.18-.36-.07-.23-.07-.49-.11-.87Z"/><path class="cls-1" d="M197.93,93.86c-.96,0-1.93,.05-2.88-.02-.8-.06-.77,.32-.65,.89,.5,2.49,2.98,3.59,5.53,2.35,.69-.33,.9-.13,1.19,.42,.22,.43,.12,.64-.27,.84-2.06,1.09-4.19,1.34-6.17-.02-2.28-1.56-2.67-3.94-2.18-6.47,.43-2.19,1.68-3.74,3.96-4.26,2.66-.6,4.86,1.06,5.23,3.94q.3,2.32-1.96,2.32c-.61,0-1.21,0-1.82,0Z"/><path class="cls-3" d="M285.31,93.86c-.96,0-1.92,.05-2.88-.01-.83-.05-.86,.3-.69,.95,.65,2.5,2.99,3.55,5.47,2.31,.83-.42,1.01-.06,1.3,.52,.17,.33,.11,.49-.2,.67-2,1.12-4.08,1.38-6.08,.18-2.36-1.42-2.79-3.77-2.45-6.26,.3-2.18,1.45-3.86,3.69-4.52,2.54-.76,4.87,.61,5.45,3.19,.13,.58,.15,1.2,.23,1.79,.12,.9-.19,1.31-1.17,1.21-.88-.09-1.78-.02-2.67-.02Z"/><path class="cls-4" d="M152.93,218.97c.27,.86,.96,1.46,1.4,2.22,.5,.86,.41,1.18-.54,1.46-1.32,.39-2.67,.69-3.98,1.09-.26,.08-.91-.14-.74,.57-2.04-.57-4.08-1.13-5.99-2.08,0-.75,.01-1.49,0-2.24,0-.63,.31-1.02,.92-1.11,2.12-.33,4.25-.64,6.38-.96,.82,.42,1.77,.53,2.55,1.05Z"/><path class="cls-2" d="M268.2,97.4c-1.11,1.02-2.15,1.84-3.63,1.81-1.79-.03-2.89-.86-3.23-2.63-.42-2.19-.13-4.4-.21-6.61-.01-.36,.05-.72-.01-1.07-.18-1.01,.3-1.17,1.19-1.15,.72,.02,.79,.3,.8,.9,.01,2.21-.14,4.42,.08,6.62,.16,1.65,.81,2.28,2.14,2.21,1.4-.07,2.74-1.33,2.75-2.59,0-2.07,.04-4.13-.02-6.2-.02-.79,.29-.94,.99-.94,.73,0,1.07,.11,1.06,.98-.06,3.06-.02,6.13-.02,9.19,0,.47,.17,1-.67,1.02-.75,.02-1.16-.14-1.05-.97,.02-.13-.07-.26-.15-.58Z"/><path class="cls-4" d="M121.49,196.09c.47,1.97-1.38,3.81-3.37,3.37-1.14-.25-2.17-.65-2.82-1.69-.07-.11-.2-.24-.32-.27-1.09-.32-1.38-1.13-1.52-2.17-.14-1.01-.23-1.94,.66-2.62,.9-.69,1.89-.41,2.67,.14,.85,.59,1.57,.45,2.37,.05,.87,1,1.62,2.09,2.34,3.19Z"/><path class="cls-1" d="M254.23,99.21c-1.36,0-2.57-.44-3.71-1.17-.41-.27-.57-.51-.16-.88,.31-.28,.39-1.04,1.1-.48,.84,.65,1.79,.98,2.88,.95,.93-.03,1.73-.29,1.98-1.28,.27-1.07-.5-1.55-1.29-1.94-.73-.36-1.52-.61-2.26-.94-1.67-.74-2.34-1.74-2.17-3.15,.19-1.52,1.2-2.48,2.94-2.77,1.4-.23,2.68,.12,3.87,.86,.3,.19,.56,.43,.19,.73-.31,.26-.32,1.12-1.06,.64-.77-.49-1.56-.83-2.5-.72-.83,.09-1.44,.45-1.58,1.32-.13,.83,.46,1.22,1.08,1.52,.64,.3,1.32,.53,1.98,.8,2.21,.9,3,2.03,2.66,3.79-.32,1.68-1.81,2.7-3.96,2.7Z"/><path class="cls-3" d="M181.46,93.41c-.01-3.25,1.9-5.58,4.83-5.89,1.26-.13,2.38,.21,3.4,.96,.37,.27,.47,.53,.1,.81-.32,.25-.29,1.04-1.08,.59-2.33-1.35-4.3-.52-5.03,2.08-.32,1.13-.26,2.26,.13,3.35,.76,2.11,2.93,2.86,4.85,1.68,.51-.32,.83-.63,1.29,.14,.48,.79-.03,.99-.5,1.29-3.6,2.23-7.75-.15-7.99-4.58,0-.14,0-.28,0-.43Z"/><path class="cls-3" d="M276.13,90c0,2.1-.01,4.2,0,6.29,0,.53-.12,1.12,.73,1.29,.54,.11,.34,.79,.41,1.2,.07,.42-.39,.4-.7,.42-1.39,.13-2.15-.46-2.35-1.86-.05-.31-.05-.64-.05-.96,0-4.27,.02-8.53-.02-12.8,0-.74,.19-.97,.94-.96,.72,.02,1.09,.08,1.06,.96-.07,2.13-.02,4.27-.02,6.4Z"/><path class="cls-3" d="M133.9,79.31c-.16,1.82-1.13,3.26-2.32,4.55-.41,.44-1.12,.55-1.65-.03-.56-.61-1.3-1.18-.81-2.17,.89-1.78,2.62-2.64,4.15-3.71,.24-.17,.36-.06,.41,.23,.07,.37,.31,.71,.22,1.13Z"/><path class="cls-3" d="M98.93,94.32c-1.72,.02-3.45-2.25-2.9-3.75,.22-.6,.44-.63,.87-.2,.92,.92,1.84,1.83,2.53,2.95,.16,.25,.34,.45,.15,.75-.16,.25-.4,.27-.66,.25Z"/><path class="cls-1" d="M206.76,93.93c-.64,0-1.28-.03-1.92,0-.59,.04-.8-.15-.8-.77,0-.61,.18-.8,.79-.78,1.28,.04,2.56,.04,3.84,0,.56-.02,.74,.16,.72,.72-.02,.51,0,.91-.71,.84-.63-.06-1.28-.01-1.92-.01Z"/><path class="cls-8" d="M53.09,155.29c-.2,.23-.42,.42-.91,.36,.26-.25,.46-.43,.65-.62,.09,.08,.17,.17,.26,.25Z"/><path class="cls-5" d="M279.44,134.02h-15.72c3.74-3.74,7.09-7.59,10.16-11.87,1.44,4.18,3.15,8.09,5.56,11.87Z"/><path class="cls-6" d="M248.24,134.96c-.19,1.09-.41,2.17-.55,3.26-.07,.58-.28,.78-.87,.77-2.21-.03-4.42-.04-6.63,0-.72,.01-.73-.31-.63-.85,.52-2.86,1.03-5.72,1.64-8.6,.88,2.54,1.2,5.2,1.58,7.98,1.65-.63,3.25-1.25,4.85-1.86,.26-.1,.26-.3,.28-.52,.06-.15,.14-.25,.32-.2Z"/><path class="cls-7" d="M248.24,134.96c-.11,.07-.21,.13-.32,.2-.39-2.46-.89-4.89-1.59-7.28-.2-.68-.47-.8-1.12-.53-1.24,.51-2.52,.94-3.94,1.46,.16-.96,.3-1.81,.43-2.66,.06-.39,.34-.4,.63-.4,2.31,0,4.62,.02,6.94-.01,.77-.01,.56,.45,.49,.83-.5,2.8-1.01,5.59-1.52,8.38Z"/><path class="cls-7" d="M244.8,154.54c-.56-2.67-1.26-5.01-2.05-7.32-.24-.69-.49-.88-1.21-.54-1.16,.53-2.37,.94-3.65,1.43-.12-.89,.25-1.63,.36-2.41,.05-.36,.36-.28,.59-.28,2.31,0,4.62,0,6.93,0,.34,0,.65,0,.56,.5-.5,2.79-1,5.58-1.54,8.64Z"/><path class="cls-5" d="M240.07,93.55c0-.46,0-.92,0-1.39,0-1.61,1.01-2.72,2.65-2.93,1.35-.17,2.46,.61,2.84,2.16,.38,1.54,.41,3.11-.37,4.56-.97,1.81-3.34,2.13-4.82,.7-.26-.26-.31-.54-.3-.86,0-.75,0-1.49,0-2.24Z"/><path class="cls-5" d="M159.12,93.51c0-.46,0-.93,0-1.39,0-1.59,1.05-2.71,2.69-2.89,1.4-.15,2.52,.75,2.86,2.31,.29,1.31,.29,2.61-.19,3.89-.83,2.24-3.23,2.83-5.03,1.27-.28-.24-.35-.5-.34-.84,.01-.78,0-1.57,0-2.35Z"/><path class="cls-6" d="M176.41,94.84c0,1.84-2.09,3.26-3.83,2.62-1.18-.44-1.46-1.97-.46-2.88,1.08-.98,2.47-1.16,3.85-1.34,.32-.04,.45,.12,.44,.43,0,.39,0,.78,0,1.17Z"/><path class="cls-6" d="M232.22,94.79c0,1.87-1.99,3.28-3.79,2.7-1.16-.38-1.52-1.86-.62-2.79,1.09-1.12,2.57-1.27,4.02-1.46,.35-.05,.4,.21,.39,.48,0,.36,0,.71,0,1.07Z"/><path class="cls-5" d="M197.17,92.4c-.64,0-1.28-.05-1.92,.01-1.06,.11-.99-.39-.72-1.12,.56-1.49,1.82-2.32,3.28-2.13,1.25,.16,2.03,1.08,2.21,2.48,.09,.66-.14,.8-.73,.77-.71-.04-1.42,0-2.13,0Z"/><path class="cls-5" d="M284.44,92.4c-.75,0-1.49-.01-2.24,0-.37,0-.59-.03-.52-.52,.2-1.43,1.55-2.71,2.96-2.76,1.59-.06,2.85,1.25,2.79,2.84-.02,.44-.24,.43-.54,.43-.82,0-1.63,0-2.45,0Z"/></g></svg>