<?xml version="1.0" encoding="utf-8"?>
<!-- Generator: Adobe Illustrator 26.5.0, SVG Export Plug-In . SVG Version: 6.00 Build 0)  -->
<svg version="1.1" id="_图层_2" xmlns="http://www.w3.org/2000/svg" xmlns:xlink="http://www.w3.org/1999/xlink" x="0px" y="0px"
	 viewBox="0 0 316.1 279.3" style="enable-background:new 0 0 316.1 279.3;" xml:space="preserve">
<style type="text/css">
	.st0{fill:#0068B6;}
	.st1{fill:#056BB7;}
	.st2{fill:#0168B7;}
	.st3{fill:#0168B6;}
	.st4{fill:#006BB8;}
	.st5{fill:#CBE0F0;}
	.st6{fill:#FEFEFE;}
	.st7{fill:#FDFDFE;}
	.st8{fill:#FDFEFE;}
</style>
<path class="st0" d="M143.9,63.7c0.3-3.9,0.6-7.6,0.9-11.4c-0.1,0-0.1,0-0.2-0.1c-1.2,1.8-2.5,3.6-3.8,5.5c-1.1-2.2-2.5-4.1-4.4-5.6
	c-1.5-1.2-3.4-1.7-5.2-1.8c-2.8-0.2-5.7-0.3-7.9,1.8c-1.6,1.5-2.6,3.4-3,5.6c-0.2,0.9-0.1,1.8-0.4,2.6c-0.2,0.4,0.1,0.8,0.3,1.2
	c1.8,3.1,3.1,6.4,3.1,10c0,3.9-1.8,6.8-5.1,8.9c-1,0.7-2.1,1.2-3,2.1c-1.9,1.8-1.1,3.1,0.8,4c2,0.9,4.2,1.4,6.5,1.5
	c0.3,0,0.6,0.1,0.9,0.3c-2.7,1.6-5.4,3.2-8.1,4.8c-1.7,1-3.5,2-5.2,3.1c-1,0.7-1.8,0.8-2.9,0.1c-1.9-1.2-3.8-2.3-5.3-3.9
	c-2.2-2.3-3.6-4.9-3.4-8.2c0.1-1-0.5-1.7-1.1-2.3c-2.8-2.9-6.1-5.3-9.3-7.8c-0.6-0.4-1.2-0.8-1.7-1.2c-0.4-0.3-0.7-0.6-0.8-1.1
	c-0.8-3.1-1.7-6.2-2.5-9.4c-0.7,0.7-1.3,1.4-1.9,2c-2.2,2.6-4.5,5.2-6.3,8.2c-0.5,0.8-1,1.7-1.2,2.6c-0.3,1-0.1,2,0.6,3
	c2.4,3.6,2.1,8.4-0.9,11.2c-2,1.9-4.3,2.2-6.8,1.3c-2.1-0.7-4-0.7-5.7,0.8c-1,0.9-1.7,2-2.3,3.2c-1.1,2-2,4.1-3,6.1
	c-0.2,0.4-0.5,0.8-1.1,0.8c-8.3,0-16.5,0-24.8,0c-0.1,0-0.2,0-0.3-0.1c11.9-41.7,47-78.1,93.7-89.3c51.5-12.4,95.4,8.2,119,31.2
	c-1.4-1-2.7-2.1-4.1-3.2c-3.1-2.3-6.3-4.6-9.7-6.4c-2.4-1.3-5.2-1.8-7.8-2.7c-4.7-1.5-9.4-2.9-14.2-4c-3.8-0.8-7.6-1.5-11.5-1.4
	c-1.6,0.1-3.2,0.5-4.6,1.3c-1.6,1-2.2,2.9-1.7,5c0.2,0.7,0.4,1.4,0.5,2.1c0,0.2,0.3,0.5,0,0.7c-0.3,0.2-0.4-0.1-0.6-0.2
	c-1.3-0.8-2.7-1.7-4-2.5c-0.1-0.1-0.2-0.1-0.4-0.2c-2.2-1.2-3.2-0.8-3.8,1.6c-0.3,1.3-0.8,2.4-1.5,3.5c-1.4,2-4.9,2.9-6.8,1.7
	c-1.1-0.7-1.2-1.9-1.5-3c-0.3-1.1-0.4-2.2-0.7-3.3c-0.6-2.1-2.7-3.1-4.9-2.4c-0.6,0.2-1.3,0.3-1.8,0.7c-1.4,1-1.1,2.4-0.8,3.7
	c0.4,1.9,1,3.8,1.4,5.7c0.8,3.7-0.1,6.9-2.4,9.8c-1.8,2.2-4,3.7-6.2,5.4C151.3,58.5,147.7,61,143.9,63.7L143.9,63.7z"/>
<path class="st0" d="M252.3,192.7c1.6,0.1,3.2-0.1,4.9,0.2c0.9,0.2,1.8,0,2.7,0.1c1.1,0,2.1-0.1,3.2,0.2c1.3,0.3,2.1-0.7,3.1-1.3
	c2.5-1.4,5-2.9,7.5-4.4c0.2-0.1,0.4-0.2,0.8-0.3c-0.1,1.5,0.2,2.9-0.2,4.3c-0.1,0.3,0,0.6,0,1c-0.1,1.8,0.1,3.6-0.2,5.4
	c-0.3,1.6,0.9,2.6,1.5,3.8c1.4,2.6,3,5.1,4.5,7.8c-1.9-0.1-3.6,0.2-5.3-0.2c-0.4-0.1-0.9,0-1.3,0c-1.4-0.1-2.8,0.1-4.2-0.2
	c-0.6-0.1-1.2,0.1-1.8,0.4c-1.4,0.8-2.8,1.8-4.3,2.4c-2.6,1.1-4.1,3.4-5.7,5.5c-1.8,2.4-3.7,4.8-5.7,7.1c-2.4,2.8-4.9,5.4-7.6,7.9
	c-5.6,5.5-11.7,10.3-18.2,14.7c-5.8,3.9-11.9,7.2-18.3,10.2c-8.2,3.8-16.7,6.6-25.4,8.6c-3.8,0.9-7.7,1.5-11.6,2
	c-3.2,0.4-6.5,0.7-9.8,0.9c-4.1,0.3-8.2,0.2-12.3,0.1c-3.2-0.1-6.5-0.4-9.7-0.8c-5.2-0.6-10.4-1.5-15.5-2.7
	c-3.1-0.7-6.1-1.6-9.1-2.6c-6.4-2-12.5-4.5-18.5-7.5c-7.5-3.7-14.5-8.1-21.1-13.2c-2.6-2-5-4.1-7.5-6.2c-3.2-2.7-6-5.7-8.9-8.7
	c-6.5-7-12.2-14.7-17-23c-4-6.8-7.2-14-9.9-21.4c-0.3-0.7,0-0.7,0.5-0.7c8.9,0,17.8,0,26.7,0c0.5,0,0.7,0.3,0.9,0.7
	c3,6.6,6.4,13,10.5,19c2.6,3.7,5.3,7.3,8.2,10.8c2.6,3,5.2,5.9,8.1,8.7c7,6.6,14.5,12.3,22.8,17.1c7.7,4.5,15.9,8,24.4,10.6
	c4.8,1.4,9.6,2.6,14.5,3.4c3.4,0.5,6.8,0.9,10.2,1.3c4.8,0.5,9.6,0.5,14.4,0.3c3.7-0.1,7.4-0.5,11-1c6.4-0.9,12.7-2.2,18.9-4.1
	c7.2-2.2,14.1-5.1,20.8-8.6c5.4-2.9,10.6-6.2,15.5-9.9c2.8-2.1,5.4-4.4,8-6.7c2.1-1.8,3.9-3.8,5.9-5.7c1.6-1.5,3-3.2,4.5-4.8
	c0.2-0.2,0.4-0.6,0.4-1c0-2.1,0.1-4.2,0.3-6.3c0.2-2.3-0.6-4-1.7-5.8c-1.4-2.2-2.6-4.4-3.9-6.7C252.3,193.1,252.1,193,252.3,192.7
	L252.3,192.7z"/>
<path class="st0" d="M244.1,207.9c-1,2.7-2,5.2-3,7.8c-0.4,0.9,0.1,1.8,0.3,2.7c0.4,1.9,0.9,3.9,1.4,5.8c0,0.2,0,0.4,0,0.6
	c-2-0.7-3.9-1.2-5.7-2.1c-1.9-0.9-3.7-0.5-5.6-0.3c-3,0.4-5,2.4-7.3,4c-7.2,5-15,8.9-23.3,11.8c-4.5,1.6-9,2.9-13.7,3.8
	c-3,0.6-6,1-9,1.4c-3.7,0.4-7.4,0.6-11.1,0.6c-1.3,0-2.6,0-3.9,0c-4,0-8-0.5-12-1.1c-3.8-0.5-7.6-1.2-11.3-2.2
	c-4.4-1.2-8.8-2.6-13.1-4.2c-3.5-1.4-6.9-2.9-10.3-4.6c-5.4-2.8-10.5-6-15.3-9.6c-2.4-1.8-4.8-3.8-7.1-5.9c-2.1-1.9-4.2-3.9-6.1-6
	c-4.5-4.9-8.6-10.2-12.1-15.9c-2.1-3.5-4.1-7.1-5.7-10.8c-0.2-0.5-0.5-1.1-0.7-1.7c1.8,0.2,3.6-0.1,5.4,0.1c0.7,0.1,1.5-0.1,2.2-0.1
	c4.1,0,8.1,0,12.2,0c0.8,0,1.1,0.2,1.4,0.9c2.8,6.1,6.5,11.8,10.6,17.1c3,3.8,6.3,7.3,9.9,10.6c7.2,6.6,15.2,11.9,23.9,16
	c6,2.9,12.3,5.1,18.8,6.7c3.8,0.9,7.7,1.6,11.6,2c4.5,0.5,9.1,0.9,13.6,0.8c3.4-0.1,6.8-0.4,10.2-0.8c5.6-0.7,11.1-1.9,16.4-3.5
	c6.4-2,12.5-4.8,18.4-8c2.1-1.1,3.1-2.7,3.8-4.8c0.3-1.1,0.7-2.1,1.1-3.1c0.1-0.4,0.1-0.6,0-1c-0.6-2.6-1.2-5.3-1.8-8
	c2.1,0.8,4.2,1.5,6.2,2.3c1.5,0.6,3,0.6,4.6,0.2C239.9,208.9,241.9,208.4,244.1,207.9L244.1,207.9z"/>
<path class="st0" d="M237.3,164.7c1.5,0,2.9,0,4.4,0c0.9,0,1.4-0.3,1.5-1.2c0.4-2.5,0.9-5,1.4-7.7c-1.7,0.7-3.2,1.3-4.8,2
	c-0.4-3.1-1.1-5.9-2.1-9c-1,4.1-1.9,7.9-3.3,11.6c-1.4,3.9-3.1,7.6-5.6,11c-0.5,0.6-0.7,0.7-1.3,0.1c-1.1-1.1-2.4-2-3.8-2.8
	c-0.4-0.2-0.6-0.3-0.2-0.8c4.1-5.3,5.7-11.5,7.2-17.9c0.3-1.2,0.4-2.5,0.7-3.7c0.2-0.9-0.1-0.9-0.8-0.9c-0.8,0-1.6,0-2.5,0
	c-0.6,0-0.8-0.2-0.7-0.7c0.3-1.7,0.6-3.4,0.9-5c0.1-0.5,0.4-0.7,0.9-0.6c0.9,0,1.8,0,2.7,0c0.6,0,0.8-0.1,0.9-0.7c1-5.7,2-11.3,3-17
	c0.2-1,0.4-1.5,1.6-1.4c1,0.1,2-0.1,3,0.1c1.1,0.1,1.5-0.3,1.8-1.3c0.7-2,1.4-3.9,2.1-5.9c0.1-0.4,0.3-0.7,0.8-0.6
	c2.1,0.4,4.2,0.8,6.3,1.1c0.1,0,0.2,0.1,0.4,0.2c-1,2.2-2.2,4.2-3.4,6.4c0.8,0,1.4,0,2.1,0c2,0,3.9,0.1,5.9,0c1,0,1.2,0.2,1,1.2
	c-0.7,3.4-1.2,6.8-1.9,10.2c0,0.2,0,0.4,0,0.7c1.5-1,2.8-2.2,4.1-3.4c5.2-4.7,9.4-10.2,12.9-16.2c0.4-0.7,0.7-0.8,1.5-0.6
	c1.5,0.6,3.1,1,4.7,1.5c0.5,0.2,0.8,0.4,0.3,0.8c-0.8,0.9-0.6,1.8-0.2,2.9c2.4,6.5,5.8,12.3,11.1,17c-2,1.7-4.1,3.4-5.8,5.4
	c-0.3,0.3-0.5,0.2-0.7-0.1c-0.4-0.4-0.8-0.9-1.3-1.4c-0.7,3.2-1.4,6.3-2,9.4c-0.3,1.4-0.7,2.8-1.2,4.2c-1,2.8-3.1,4.1-5.9,4.4
	c-2.1,0.2-4.2,0.3-6.3,0.2c-0.6,0-0.7-0.2-0.7-0.8c0.1-1.8,0-3.5-0.7-5.2c1.7,0.1,3.3,0.2,4.9,0.2c1.7,0,2.4-0.4,2.9-2.1
	c0.8-2.2,1.1-4.6,1.6-6.9c0.1-0.6-0.1-0.7-0.6-0.7c-2.5,0-5.1,0-7.6,0c-0.5,0-0.7,0.1-0.8,0.6c-1.2,6.8-2.4,13.5-3.6,20.3
	c0,0.3,0,0.6-0.1,0.9c0,1.3,0.2,1.7,1.7,1.8c2,0.1,3.9,0,5.9,0c1.1,0,2.1,0,3.2,0c1.3,0,2.2-0.5,2.8-1.7c0.9-1.8,1.2-3.7,1.7-5.6
	c0.1-0.3,0-0.6,0.3-0.8c1.5,1.1,3.2,1.9,5.1,2.4c0.6,0.2,0.5,0.4,0.4,0.8c-0.5,1.9-1.2,3.8-2,5.6c-1.6,3.8-4.5,5.6-8.5,5.6
	c-4.1,0-8.2,0.2-12.3-0.2c-0.6-0.1-1.2-0.1-1.8-0.3c-2.4-0.6-3.5-2-3.6-4.6c-0.1-2.5,0.5-4.9,0.9-7.4c1.2-6.6,2.3-13.1,3.5-19.6
	c0-0.1,0-0.2,0-0.4c-1,0.7-1.8,1.4-2.8,2.1c-0.5-1.4-0.9-2.7-1.7-4.2c-0.4,2.5-0.8,4.7-1.2,7c-1.3,7.3-2.6,14.6-3.9,21.9
	c-0.7,4-2.6,5.7-6.6,6.3c-1.4,0.2-2.9,0.2-4.4,0.3c-0.5,0-0.8-0.1-0.8-0.7c0-1-0.1-1.9-0.2-2.9S237.5,165.7,237.3,164.7L237.3,164.7
	z"/>
<path class="st0" d="M53.1,155.3c0.4-0.2,0.7-0.5,1.2,0c2.7,3.1,5.5,6,7.8,9.5c1,1.5,1,1.5-0.5,2.4c-1.9,1.2-3.8,2.4-5.7,3.6
	c-0.5,0.3-0.7,0.3-1-0.3c-1.8-3.5-4.3-6.5-6.7-9.6c-0.5-0.7-0.8-0.2-1.2,0.1c-4.7,4.1-9.9,7.4-15.6,10c-0.8,0.3-1.1,0.3-1.5-0.5
	c-1-2-2.2-3.9-4-5.5c1.1-0.5,2.1-0.9,3.1-1.4c12.1-5.4,20.5-14.4,25.5-26.7c0.3-0.8,0-1.1-0.8-1.1c-6.5,0-13,0-19.6,0H33
	c0.4-2.5,0.9-4.9,1.3-7.4c0.1-0.7,0.7-0.5,1.1-0.5c7,0,14,0,21,0c1,0,1.4-0.3,1.6-1.3c1.1-4.5,1.8-9.1,2.7-13.6
	c0.1-0.7,0.3-0.9,1-0.8c2.2,0,4.4,0.1,6.5,0c0.9,0,1,0.2,0.8,1c-1,4.7-1.8,9.4-3,14.1c0,0.2-0.1,0.3-0.1,0.6c0.4,0,0.8,0,1.2,0
	c7.6,0,15.2,0,22.8,0c1,0,1.1,0.3,0.9,1.1c-0.4,1.9-0.7,3.8-1,5.7c-0.1,0.9-0.5,1.1-1.3,1.1c-6.7-0.1-13.3,0-20,0
	c-0.7,0-1,0-0.9,0.9c1.2,6.6,3.4,12.7,7.2,18.2c2.8,4.1,6.6,7.1,11,9.3c0.1,0.1,0.2,0.1,0.4,0.2c-2.4,2-4.6,4.2-6.5,6.7
	c-0.4,0.5-0.7,0.2-1,0c-4.2-2.4-7.8-5.5-10.5-9.5c-3.8-5.6-6-11.9-7.4-18.5c0-0.1,0-0.2-0.1-0.5c-2.2,4.6-4.8,8.7-7.8,12.5
	C52.7,155.4,52.8,155.4,53.1,155.3L53.1,155.3z"/>
<path class="st0" d="M126.9,169.4c0.4-2.1,0.7-4,1-6c0.1-0.8,0.4-0.9,1.1-0.9c7,0,14,0,20.9,0c0.7,0,1.1-0.1,1.2-0.9
	c0.6-3.6,1.2-7.1,1.8-10.6c0.2-0.9-0.1-0.9-0.8-0.9c-4.4,0-8.8,0-13.1,0c-0.9,0-1.1-0.2-0.9-1.1c0.4-1.7,0.6-3.4,0.9-5.2
	c-1.1,0.4-2.1,0.8-3,1.3c-0.5,0.2-0.7,0.2-1-0.3c-0.8-1.9-1.6-3.8-2.5-5.7c-0.3-0.6-0.1-0.7,0.4-0.9c7.1-2.2,13.8-5.2,20-9.2
	c0.4-0.2,0.6-0.3,0.9,0.1c1.3,1.4,2.6,2.8,4,4.3c-2.8,2-5.6,3.7-8.5,5.3s-5.9,3.1-8.9,4.7h1.1c11.9,0,23.9,0,35.8,0
	c0.9,0,1.2,0.1,1,1.1c-0.4,1.6-0.6,3.1-0.9,4.7c-0.1,0.7-0.3,1-1.1,1c-4.7,0-9.5,0-14.2,0c-0.7,0-1,0.1-1.1,0.9
	c-0.6,3.6-1.2,7.2-1.9,10.7c-0.2,0.9,0.3,0.8,0.9,0.8c7.2,0,14.3,0,21.5,0c1,0,1.2,0.2,1,1.2c-0.4,1.6-0.6,3.3-0.9,4.9
	c-0.1,0.6-0.3,0.8-0.9,0.7c-0.1,0-0.3,0-0.4,0c-17.4,0-34.8,0-52.3,0H126.9L126.9,169.4z"/>
<path class="st0" d="M158.9,119.3c-0.2-1.7-0.6-3.2-1.1-4.8c-0.1-0.5-0.2-0.8,0.4-0.9c2.4-0.6,4.9-1.2,7.3-1.9
	c0.6-0.2,0.6,0.2,0.8,0.6c0.6,2,1.4,4,1.8,6.2c0.1,0.8,0.5,0.9,1.2,0.9c6.8,0,13.5,0,20.3,0c0.9,0,1.1,0.1,0.9,1.1
	c-0.8,4.2-1.5,8.3-2.2,12.5c-0.1,0.6-0.3,0.8-0.9,0.8c-2.1,0-4.2-0.1-6.3,0c-0.8,0-0.8-0.2-0.7-0.9c0.4-1.8,0.7-3.6,1-5.4
	c0.2-0.8,0.1-1.2-0.9-1.2c-12.7,0-25.4,0-38.1,0c-0.7,0-1,0.2-1.1,0.9c-0.4,2.3-0.8,4.6-1.2,6.9c-0.1,0.6-0.3,0.9-0.9,0.8
	c-2,0-3.9,0-5.9,0c-0.6,0-0.8-0.1-0.7-0.8c0.9-4.7,1.7-9.4,2.5-14.1c0.1-0.7,0.5-0.7,1.1-0.7c7.3,0,14.5,0,21.8,0L158.9,119.3
	L158.9,119.3z"/>
<path class="st1" d="M121.5,196.1c2,2.1,3.9,4.2,5.9,6.3c5.3,5.3,11.2,9.6,17.8,13c1.7,0.9,3.5,1.6,5.2,2.5
	c-0.7,0.6-1.6,0.5-2.4,0.6c-1.1,0.2-2.2,0.4-3.4,0.5c-0.9,0.1-1.2,0.6-1.2,1.4c0,0.6,0.2,1.2-0.3,1.7c-4.5-1.6-8.7-3.7-12.8-6.1
	c-3.8-2.2-7.4-4.7-10.7-7.6c-2.7-2.3-5.3-4.6-7.6-7.3c-3.3-3.7-6.3-7.6-8.9-11.9c-1.4-2.3-2.7-4.6-3.8-7c0.2-0.3,0.5-0.2,0.8-0.2
	c4.1,0,8.1,0,12.2,0c0.4,0,0.8-0.1,1,0.4c1.6,3.6,3.7,7,5.9,10.2c-0.6,0.8-1.3,0.8-2.1,0.4c-0.5-0.3-1-0.5-1.6-0.6
	c-0.7-0.1-1.3,0.2-1.6,0.8c-0.6,0.9-0.1,3,0.8,3.6c0.4,0.3,0.8,0.6,1.1,0.9c0.8,0.9,1.8,1.2,2.9,1.3c1.1,0.1,2.5-1.2,2.7-2.3
	C121.4,196.6,121.3,196.3,121.5,196.1L121.5,196.1z"/>
<path class="st1" d="M152.9,219c2,0.6,3.9,1.4,5.9,1.9c3.5,0.9,7.1,1.7,10.6,2.2c3.9,0.6,7.9,0.7,11.9,0.6c5-0.2,9.9-0.9,14.7-2.1
	c0.1,0,0.2-0.1,0.3-0.1c1.2-1.4,2.7-2.6,3.1-4.5c0.3-1.7,0.4-3.5,0.5-5.4c1.3,1,2.7,1.9,3.9,3c0.7,0.6,1.5,0.8,2.3,0.8
	c1.4,0.1,2.9,0.2,4.4,0.5c-0.9,1.2-1.6,2.5-2.6,3.4c-1.1,1.1-1.1,2.4-1.2,3.7c-0.1,1.2-0.4,2.4-0.2,3.8c-1.5-1.1-2.8-2.1-4.1-3.1
	c-0.6-0.5-1.3-0.6-2.1-0.8c-2.9-0.6-5.4,1-8,1.7c-3.5,0.9-7,1.7-10.5,2.2c-4.2,0.6-8.5,1-12.8,0.8c-3.4-0.1-6.8-0.4-10.2-1
	c-3.3-0.6-6.6-1.3-9.9-2.2c-0.1-0.6-0.2-0.6,0.5-0.8c1.2-0.3,2.3-0.6,3.5-0.9c1.4-0.4,1.4-0.5,0.7-1.8
	C153.4,220.2,152.6,219.9,152.9,219L152.9,219z"/>
<path class="st0" d="M162.8,133.8c1.8-1.6,3.5-3.2,5.2-4.8c0.4-0.3,0.6-0.4,1.1-0.2c5.6,2.9,11.4,5.6,16.8,8.9
	c0.8,0.5,0.9,0.7,0.2,1.4c-1.7,1.5-3.2,3.1-4.8,4.7c-0.3,0.3-0.5,0.7-1.1,0.2c-5.3-3.7-10.9-6.8-16.5-9.8
	C163.4,134.2,163.2,134,162.8,133.8L162.8,133.8z"/>
<path class="st2" d="M240.1,98.1c0,1.6-0.1,3.1,0,4.6c0,0.9-0.4,0.9-1,0.9c-0.6,0-0.9-0.1-0.9-0.8c0-4.6,0-9.3,0-13.9
	c0-0.4-0.3-1,0.5-1c0.6,0,1.2-0.1,1.2,0.8c0,0.1,0.1,0.2,0.1,0.3c0.5-0.3,1-0.7,1.5-0.9c2.1-1.1,4.7-0.3,5.6,1.9
	c1,2.4,1,4.9-0.4,7.2c-1.3,2.1-3.7,2.7-5.9,1.5C240.7,98.5,240.4,98.4,240.1,98.1L240.1,98.1z"/>
<path class="st0" d="M158.9,89.1c0.6-0.4,1-0.7,1.4-0.9c2.5-1.5,5.3-0.4,6.2,2.3c0.5,1.7,0.6,3.4,0.1,5.1c-0.7,2.6-3.6,5.1-7.4,2.6
	c0,1.6-0.1,3.1,0,4.6c0.1,0.9-0.4,0.8-1,0.9c-0.7,0-1-0.1-1-0.9c0-4.5,0-9,0-13.6c0-0.4-0.5-1.2,0.5-1.3
	C158.6,87.7,159.1,87.9,158.9,89.1L158.9,89.1z"/>
<path class="st0" d="M148.8,99.2c-1.8,0-3.4-0.6-4.8-1.8c-0.6-0.5-0.3-0.8,0.1-1.2c0.3-0.3,0.5-0.9,1.1-0.3c1.3,1.2,2.8,1.6,4.5,1.3
	c1.1-0.2,1.9-0.9,2.1-1.8c0.2-1.1-0.2-1.9-1.4-2.5c-1.2-0.6-2.4-1.1-3.6-1.7c-2.1-1-2.9-2.4-2.6-4.3c0.3-1.8,1.8-3.1,3.9-3.4
	c1.7-0.2,3.2,0.2,4.6,1.3c0.4,0.3,0.8,0.6,0.3,1.1c-0.4,0.4-0.6,0.9-1.3,0.3c-1.1-0.9-2.3-1.2-3.7-0.8c-1,0.2-1.6,0.7-1.8,1.7
	c-0.1,1,0.3,1.7,1.1,2.1c1.2,0.6,2.4,1.1,3.6,1.6c2.5,1.2,3.4,3.1,2.6,5.3C153.1,98.1,151.2,99.2,148.8,99.2L148.8,99.2z"/>
<path class="st0" d="M221.6,86.8c-0.9-0.8-1.9-1.5-3.2-1.4c-1.7,0.1-3,0.9-3.7,2.5c-1.1,2.3-1.1,4.7,0,7c1.2,2.7,4.3,3.4,6.6,1.5
	c0.5-0.4,0.8-0.7,1.3,0c0.6,0.7,0.3,0.9-0.2,1.3c-2.4,2.1-6.2,2-8.4-0.3c-2.9-3-2.8-9.2,0.2-12.1c1.9-1.8,4.9-2.2,7.1-0.9
	C222.9,85.4,222.9,85.4,221.6,86.8L221.6,86.8z"/>
<path class="st0" d="M176.6,97.7c-1.3,0.9-2.4,1.6-3.8,1.5c-1.5-0.1-2.6-0.9-3-2.2c-0.4-1.4,0.1-2.8,1.3-3.6
	c1.4-0.9,2.9-1.2,4.4-1.3c0.7-0.1,1-0.3,0.8-1.1c-0.3-1.2-1-1.7-2.2-1.8c-0.9,0-1.8,0.3-2.5,0.8c-0.6,0.4-0.9,0.3-1.2-0.3
	c-0.4-0.7,0-0.8,0.4-1.1c0.8-0.4,1.7-0.8,2.6-0.9c2.8-0.5,4.8,0.8,4.9,3.7c0.1,2.3,0,4.7,0.1,7.1c0,0.4-0.1,0.7-0.5,0.6
	c-0.4-0.1-1,0.3-1.2-0.4C176.6,98.3,176.6,98.1,176.6,97.7L176.6,97.7z"/>
<path class="st0" d="M232.4,97.7c-1,0.6-1.8,1.2-2.9,1.4c-1.8,0.3-3.4-0.4-3.9-1.9c-0.6-1.7,0.1-3.3,1.7-4.1c1.3-0.7,2.7-1,4.1-1.1
	c0.7-0.1,0.9-0.3,0.7-1c-0.3-1.2-0.9-1.8-2.2-1.8c-1,0-1.9,0.3-2.7,0.9c-0.6,0.4-0.8,0-1-0.4c-0.3-0.4-0.4-0.7,0.2-1
	c1-0.5,2-0.9,3.1-1.1c2.7-0.4,4.5,1,4.6,3.8c0.1,2.3,0,4.6,0.1,6.9c0,0.4-0.1,0.7-0.5,0.6c-0.4-0.1-1,0.3-1.2-0.4
	C232.5,98.3,232.5,98.1,232.4,97.7L232.4,97.7z"/>
<path class="st3" d="M197.9,93.9c-1,0-1.9,0.1-2.9,0c-0.8-0.1-0.8,0.3-0.6,0.9c0.5,2.5,3,3.6,5.5,2.3c0.7-0.3,0.9-0.1,1.2,0.4
	c0.2,0.4,0.1,0.6-0.3,0.8c-2.1,1.1-4.2,1.3-6.2,0c-2.3-1.6-2.7-3.9-2.2-6.5c0.4-2.2,1.7-3.7,4-4.3c2.7-0.6,4.9,1.1,5.2,3.9
	c0.2,1.5-0.5,2.3-2,2.3C199.1,93.8,198.5,93.8,197.9,93.9L197.9,93.9z"/>
<path class="st0" d="M285.3,93.9c-1,0-1.9,0.1-2.9,0c-0.8-0.1-0.9,0.3-0.7,0.9c0.6,2.5,3,3.6,5.5,2.3c0.8-0.4,1-0.1,1.3,0.5
	c0.2,0.3,0.1,0.5-0.2,0.7c-2,1.1-4.1,1.4-6.1,0.2c-2.4-1.4-2.8-3.8-2.5-6.3c0.3-2.2,1.5-3.9,3.7-4.5c2.5-0.8,4.9,0.6,5.5,3.2
	c0.1,0.6,0.1,1.2,0.2,1.8c0.1,0.9-0.2,1.3-1.2,1.2C287.1,93.8,286.2,93.9,285.3,93.9L285.3,93.9z"/>
<path class="st4" d="M152.9,219c0.3,0.9,1,1.5,1.4,2.2c0.5,0.9,0.4,1.2-0.5,1.5c-1.3,0.4-2.7,0.7-4,1.1c-0.3,0.1-0.9-0.1-0.7,0.6
	c-2-0.6-4.1-1.1-6-2.1c0-0.8,0-1.5,0-2.2c0-0.6,0.3-1,0.9-1.1c2.1-0.3,4.2-0.6,6.4-1C151.2,218.3,152.1,218.4,152.9,219z"/>
<path class="st2" d="M268.2,97.4c-1.1,1-2.1,1.8-3.6,1.8c-1.8,0-2.9-0.9-3.2-2.6c-0.4-2.2-0.1-4.4-0.2-6.6c0-0.4,0-0.7,0-1.1
	c-0.2-1,0.3-1.2,1.2-1.2c0.7,0,0.8,0.3,0.8,0.9c0,2.2-0.1,4.4,0.1,6.6c0.2,1.7,0.8,2.3,2.1,2.2c1.4-0.1,2.7-1.3,2.8-2.6
	c0-2.1,0-4.1,0-6.2c0-0.8,0.3-0.9,1-0.9c0.7,0,1.1,0.1,1.1,1c-0.1,3.1,0,6.1,0,9.2c0,0.5,0.2,1-0.7,1c-0.8,0-1.2-0.1-1-1
	C268.4,97.8,268.3,97.7,268.2,97.4L268.2,97.4z"/>
<path class="st4" d="M121.5,196.1c0.5,2-1.4,3.8-3.4,3.4c-1.1-0.2-2.2-0.6-2.8-1.7c-0.1-0.1-0.2-0.2-0.3-0.3
	c-1.1-0.3-1.4-1.1-1.5-2.2c-0.1-1-0.2-1.9,0.7-2.6c0.9-0.7,1.9-0.4,2.7,0.1c0.8,0.6,1.6,0.4,2.4,0.1
	C120,193.9,120.8,195,121.5,196.1L121.5,196.1z"/>
<path class="st3" d="M254.2,99.2c-1.4,0-2.6-0.4-3.7-1.2c-0.4-0.3-0.6-0.5-0.2-0.9c0.3-0.3,0.4-1,1.1-0.5c0.8,0.7,1.8,1,2.9,0.9
	c0.9,0,1.7-0.3,2-1.3c0.3-1.1-0.5-1.6-1.3-1.9c-0.7-0.4-1.5-0.6-2.3-0.9c-1.7-0.7-2.3-1.7-2.2-3.2c0.2-1.5,1.2-2.5,2.9-2.8
	c1.4-0.2,2.7,0.1,3.9,0.9c0.3,0.2,0.6,0.4,0.2,0.7c-0.3,0.3-0.3,1.1-1.1,0.6c-0.8-0.5-1.6-0.8-2.5-0.7c-0.8,0.1-1.4,0.4-1.6,1.3
	c-0.1,0.8,0.5,1.2,1.1,1.5c0.6,0.3,1.3,0.5,2,0.8c2.2,0.9,3,2,2.7,3.8C257.9,98.2,256.4,99.2,254.2,99.2L254.2,99.2z"/>
<path class="st0" d="M181.5,93.4c0-3.2,1.9-5.6,4.8-5.9c1.3-0.1,2.4,0.2,3.4,1c0.4,0.3,0.5,0.5,0.1,0.8c-0.3,0.2-0.3,1-1.1,0.6
	c-2.3-1.3-4.3-0.5-5,2.1c-0.3,1.1-0.3,2.3,0.1,3.3c0.8,2.1,2.9,2.9,4.9,1.7c0.5-0.3,0.8-0.6,1.3,0.1c0.5,0.8,0,1-0.5,1.3
	c-3.6,2.2-7.8-0.2-8-4.6C181.5,93.7,181.5,93.6,181.5,93.4z"/>
<path class="st0" d="M276.1,90c0,2.1,0,4.2,0,6.3c0,0.5-0.1,1.1,0.7,1.3c0.5,0.1,0.3,0.8,0.4,1.2c0.1,0.4-0.4,0.4-0.7,0.4
	c-1.4,0.1-2.1-0.5-2.4-1.9c0-0.3,0-0.6,0-1c0-4.3,0-8.5,0-12.8c0-0.7,0.2-1,0.9-1c0.7,0,1.1,0.1,1.1,1
	C276.1,85.7,276.1,87.8,276.1,90L276.1,90z"/>
<path class="st0" d="M133.9,79.3c-0.2,1.8-1.1,3.3-2.3,4.6c-0.4,0.4-1.1,0.6-1.6,0c-0.6-0.6-1.3-1.2-0.8-2.2
	c0.9-1.8,2.6-2.6,4.1-3.7c0.2-0.2,0.4-0.1,0.4,0.2C133.8,78.6,134,78.9,133.9,79.3z"/>
<path class="st0" d="M98.9,94.3c-1.7,0-3.4-2.2-2.9-3.8c0.2-0.6,0.4-0.6,0.9-0.2c0.9,0.9,1.8,1.8,2.5,2.9c0.2,0.2,0.3,0.4,0.2,0.8
	C99.4,94.3,99.2,94.3,98.9,94.3L98.9,94.3z"/>
<path class="st3" d="M206.8,93.9c-0.6,0-1.3,0-1.9,0c-0.6,0-0.8-0.2-0.8-0.8c0-0.6,0.2-0.8,0.8-0.8c1.3,0,2.6,0,3.8,0
	c0.6,0,0.7,0.2,0.7,0.7c0,0.5,0,0.9-0.7,0.8C208,93.9,207.4,93.9,206.8,93.9L206.8,93.9z"/>
<path class="st5" d="M53.1,155.3c-0.2,0.2-0.4,0.4-0.9,0.4c0.3-0.2,0.5-0.4,0.7-0.6C52.9,155.1,53,155.2,53.1,155.3L53.1,155.3z"/>
<path class="st6" d="M279.4,134h-15.7c3.7-3.7,7.1-7.6,10.2-11.9C275.3,126.3,277,130.2,279.4,134z"/>
<path class="st7" d="M248.2,135c-0.2,1.1-0.4,2.2-0.6,3.3c-0.1,0.6-0.3,0.8-0.9,0.8c-2.2,0-4.4,0-6.6,0c-0.7,0-0.7-0.3-0.6-0.9
	c0.5-2.9,1-5.7,1.6-8.6c0.9,2.5,1.2,5.2,1.6,8c1.6-0.6,3.2-1.2,4.9-1.9c0.3-0.1,0.3-0.3,0.3-0.5C248,135,248.1,134.9,248.2,135
	L248.2,135z"/>
<path class="st8" d="M248.2,135c-0.1,0.1-0.2,0.1-0.3,0.2c-0.4-2.5-0.9-4.9-1.6-7.3c-0.2-0.7-0.5-0.8-1.1-0.5
	c-1.2,0.5-2.5,0.9-3.9,1.5c0.2-1,0.3-1.8,0.4-2.7c0.1-0.4,0.3-0.4,0.6-0.4c2.3,0,4.6,0,6.9,0c0.8,0,0.6,0.4,0.5,0.8
	C249.3,129.4,248.8,132.2,248.2,135L248.2,135z"/>
<path class="st8" d="M244.8,154.5c-0.6-2.7-1.3-5-2.1-7.3c-0.2-0.7-0.5-0.9-1.2-0.5c-1.2,0.5-2.4,0.9-3.6,1.4
	c-0.1-0.9,0.2-1.6,0.4-2.4c0.1-0.4,0.4-0.3,0.6-0.3c2.3,0,4.6,0,6.9,0c0.3,0,0.6,0,0.6,0.5C245.8,148.7,245.3,151.5,244.8,154.5
	L244.8,154.5z"/>
<path class="st6" d="M240.1,93.6c0-0.5,0-0.9,0-1.4c0-1.6,1-2.7,2.6-2.9c1.4-0.2,2.5,0.6,2.8,2.2c0.4,1.5,0.4,3.1-0.4,4.6
	c-1,1.8-3.3,2.1-4.8,0.7c-0.3-0.3-0.3-0.5-0.3-0.9C240.1,95,240.1,94.3,240.1,93.6L240.1,93.6z"/>
<path class="st6" d="M159.1,93.5c0-0.5,0-0.9,0-1.4c0-1.6,1.1-2.7,2.7-2.9c1.4-0.2,2.5,0.8,2.9,2.3c0.3,1.3,0.3,2.6-0.2,3.9
	c-0.8,2.2-3.2,2.8-5,1.3c-0.3-0.2-0.4-0.5-0.3-0.8C159.1,95.1,159.1,94.3,159.1,93.5L159.1,93.5z"/>
<path class="st7" d="M176.4,94.8c0,1.8-2.1,3.3-3.8,2.6c-1.2-0.4-1.5-2-0.5-2.9c1.1-1,2.5-1.2,3.9-1.3c0.3,0,0.4,0.1,0.4,0.4
	C176.4,94.1,176.4,94.5,176.4,94.8z"/>
<path class="st7" d="M232.2,94.8c0,1.9-2,3.3-3.8,2.7c-1.2-0.4-1.5-1.9-0.6-2.8c1.1-1.1,2.6-1.3,4-1.5c0.4-0.1,0.4,0.2,0.4,0.5
	C232.2,94.1,232.2,94.4,232.2,94.8L232.2,94.8z"/>
<path class="st6" d="M197.2,92.4c-0.6,0-1.3-0.1-1.9,0c-1.1,0.1-1-0.4-0.7-1.1c0.6-1.5,1.8-2.3,3.3-2.1c1.2,0.2,2,1.1,2.2,2.5
	c0.1,0.7-0.1,0.8-0.7,0.8C198.6,92.4,197.9,92.4,197.2,92.4L197.2,92.4z"/>
<path class="st6" d="M284.4,92.4c-0.8,0-1.5,0-2.2,0c-0.4,0-0.6,0-0.5-0.5c0.2-1.4,1.5-2.7,3-2.8c1.6-0.1,2.9,1.2,2.8,2.8
	c0,0.4-0.2,0.4-0.5,0.4C286.1,92.4,285.3,92.4,284.4,92.4L284.4,92.4z"/>
</svg>
