<?xml version="1.0" encoding="utf-8"?>
<!-- Generator: Adobe Illustrator 26.5.0, SVG Export Plug-In . SVG Version: 6.00 Build 0)  -->
<svg version="1.1" id="图层_1" xmlns="http://www.w3.org/2000/svg" xmlns:xlink="http://www.w3.org/1999/xlink" x="0px" y="0px"
	 viewBox="0 0 500 500" style="enable-background:new 0 0 500 500;" xml:space="preserve">
<style type="text/css">
	.st0{fill-rule:evenodd;clip-rule:evenodd;fill:#007AB5;}
	.st1{fill-rule:evenodd;clip-rule:evenodd;fill:#FF9900;}
	.st2{fill:#FF9900;}
	.st3{fill:#007AB5;}
</style>
<g id="Layer_x5F_1">
	<path class="st0" d="M201.4,147.7h-23.9l-16.8-27.4h79C224.3,125.3,211,135,201.4,147.7z M264.4,151.6v87.2
		c-10.3,0-20-3.6-27.4-9.7v-67.8c7.5-6,17.1-9.7,27.4-9.7V151.6z"/>
	<path class="st1" d="M264.4,120.2c-41.4,0-75,33.5-75,75c0,41.4,33.5,75,75,75c41.4,0,75-33.5,75-75V102
		c-9.1,14.9-18.3,30.9-27.4,45.7v47.6c0,26.3-21.3,47.6-47.6,47.6c-26.3,0-47.6-21.3-47.6-47.6s21.3-47.6,47.6-47.6
		c14.1,0,28.1,0,42.2,0l16.8-27.4C303.7,120.2,284.1,120.2,264.4,120.2z"/>
	<path class="st2" d="M401.6,356.9l7.8-10.8H420c1.2,0,2.5,0,4,0c1.3,0,2.5,0,3.5,0.1c-0.6-0.7-1.3-1.7-2-2.9
		c-0.7-1.2-1.6-2.3-2.3-3.2l-7.6-11.1l-19.7,27.8h-15.4l26.9-37.9c0.8-1.2,1.9-2.3,3.4-3.2c1.3-1,3-1.4,5.1-1.4
		c1.9,0,3.6,0.5,4.9,1.3c1.3,0.8,2.4,2,3.4,3.4l26.2,37.9h-48.7L401.6,356.9L401.6,356.9z M282.6,335.5c0,3-0.6,5.9-1.9,8.5
		c-1.3,2.6-3,4.8-5.3,6.7c-2.3,1.9-4.9,3.4-7.9,4.4c-3.1,1.1-6.5,1.7-10.1,1.7h-28v-26.1h13v15.4h15c1.8,0,3.5-0.2,4.9-0.7
		c1.6-0.5,2.9-1.2,4-2c1.1-0.8,1.9-1.9,2.5-3.1c0.6-1.2,1-2.6,1-4.1c0-1.4-0.4-2.8-1-4.1c-0.6-1.2-1.6-2.3-2.6-3.2
		c-1.1-0.8-2.4-1.6-4-2.2c-1.6-0.5-3.1-0.8-4.9-0.8h-28l8.3-10.9h19.8c3.7,0,7.1,0.5,10.1,1.6c3.1,1,5.8,2.4,7.9,4.2
		c2.3,1.8,4,4,5.3,6.5C281.9,329.7,282.6,332.5,282.6,335.5z M301.1,356.9l7.8-10.8h10.6c1.2,0,2.5,0,4,0c1.3,0,2.5,0,3.5,0.1
		c-0.6-0.7-1.3-1.7-2-2.9c-0.7-1.2-1.6-2.3-2.3-3.2L315,329l-19.7,27.8h-15.4l26.9-37.9c0.8-1.2,2-2.3,3.4-3.2c1.3-1,3-1.4,5-1.4
		c1.9,0,3.6,0.5,4.9,1.3c1.3,0.8,2.4,2,3.4,3.4l26.2,37.9h-48.7L301.1,356.9L301.1,356.9z M393.1,314.9l-8.4,10.9h-15v31h-13v-31
		h-19.7l8.4-10.9H393H393.1z"/>
	<path class="st3" d="M222.8,330.8c0,2.3-0.5,4.5-1.3,6.4c-1,1.9-2.3,3.5-4.1,4.8s-4,2.4-6.5,3.1c-2.5,0.7-5.4,1.1-8.7,1.1h-21.9
		v10.7h-12.9v-21.4h36.1c2,0,3.6-0.5,4.7-1.3c1.1-0.8,1.7-2,1.7-3.5c0-1.4-0.6-2.6-1.7-3.5c-1.1-0.8-2.6-1.3-4.7-1.3h-36.1l8.5-10.9
		h26.3c3.2,0,6.1,0.4,8.7,1.2c2.5,0.7,4.7,1.8,6.5,3.2c1.8,1.3,3.1,3,4,4.9c1,1.9,1.3,4.1,1.3,6.4L222.8,330.8L222.8,330.8z
		 M105.7,315L97.3,326h-15v31h-13v-31H49.6L58,315h47.6H105.7z M114.1,357l7.8-10.8h10.6c1.2,0,2.5,0,4,0c1.3,0,2.5,0,3.5,0.1
		c-0.6-0.7-1.3-1.7-2-2.9s-1.6-2.3-2.3-3.2l-7.6-11.1l-19.7,27.8H93l26.9-37.9c0.8-1.2,2-2.3,3.4-3.2c1.3-1,3-1.4,5-1.4
		c1.9,0,3.6,0.5,4.9,1.3c1.3,0.8,2.4,2,3.4,3.4l26.2,37.9h-48.7L114.1,357L114.1,357z"/>
</g>
</svg>
