<?xml version="1.0" encoding="utf-8"?>
<!-- Generator: Adobe Illustrator 25.1.0, SVG Export Plug-In . SVG Version: 6.00 Build 0)  -->
<svg version="1.1" id="图层_1" xmlns="http://www.w3.org/2000/svg" xmlns:xlink="http://www.w3.org/1999/xlink" x="0px" y="0px"
	 viewBox="0 0 490 256" style="enable-background:new 0 0 490 256;" xml:space="preserve">
<style type="text/css">
	.st0{fill:#099DFD;}
</style>
<g>
	<path class="st0" d="M230.3,41.5v-26h-98.5V0l-2.5,0.4c-9.1,1.3-18.2,6.4-23.2,15.2H3.5v26h98.6v17.3h-85v25.9h199.6v-26h-85V41.5
		H230.3z"/>
	<path class="st0" d="M490,42.4c-1.8-14.2-13.1-25.3-27.4-26.8H263.2v229.7l2.5-0.4c13.5-2,27.2-12.3,27.2-31V41.5h160.7
		c3.8,0,6.8,3,6.9,6.8c0,0,0,0,0,0c0,0,0,154.9,0,155c0,12.5-6.5,24.2-17.2,30.8l20.2,22c16.8-12.3,26.7-31.9,26.7-52.7L490,42.4z"
		/>
	<path class="st0" d="M452.9,70.7l-2.1-0.7c-11.4-3.9-26.2-1.2-33.7,13.5l-8.8,17.3L399.1,83l0,0c-2.2-4.4-5.5-8.2-9.6-10.9
		l-0.1-0.1c-7.9-4.7-17.7-4.7-25.6,0l-0.4,0.3c-3.9,2.7-7.1,6.3-9.3,10.6l0,0v0l-9.1,17.8l-8.8-17.3c-7.5-14.6-22.3-17.3-33.8-13.5
		l-2.1,0.7l30,58.6l-30,58.6l2.1,0.7c11.4,3.8,26.3,1.2,33.8-13.5l8.8-17.3l9.1,17.8l0,0l0,0c2.1,4.3,5.3,7.9,9.3,10.6
		c0.1,0.1,0.3,0.2,0.4,0.3c7.9,4.7,17.7,4.7,25.6,0l0.1-0.1c4.1-2.7,7.4-6.5,9.6-10.9l0,0l9.1-17.8l8.8,17.3
		c7.5,14.7,22.3,17.3,33.7,13.5l2.1-0.7l-30-58.6L452.9,70.7z M376.6,162.5l-17-33.2l17-33.2l17,33.2L376.6,162.5z"/>
	<path class="st0" d="M216.7,102.1H17.2c0,0,0,101.1,0,101.2c0,12.5-6.5,24.2-17.2,30.8l20.2,22c16.8-12.3,26.7-31.9,26.7-52.7
		v-24.6h142.5c14.2-1.4,25.6-12.5,27.4-26.7L216.7,102.1z M46.8,128.1h55.3v24.7H46.8V128.1z M187,146.3c0,3.6-2.9,6.5-6.5,6.5
		h-48.7v-24.7H187V146.3z"/>
</g>
</svg>
